solid OpenSCAD_Model
  facet normal 1 0 0
    outer loop
      vertex 46.84 1.494 -3.1
      vertex 46.84 3.094 -0.0999994
      vertex 46.84 1.494 -0.0999994
    endloop
  endfacet
  facet normal 1 0 0
    outer loop
      vertex 46.84 3.094 -0.0999994
      vertex 46.84 1.494 -3.1
      vertex 46.84 3.094 -13.4
    endloop
  endfacet
  facet normal 1 0 0
    outer loop
      vertex 46.84 3.094 -13.4
      vertex 46.84 1.494 -3.1
      vertex 46.84 0.0284683 -13.4
    endloop
  endfacet
  facet normal 0 1 0
    outer loop
      vertex 60.5142 3.094 -13.9858
      vertex 59.1 3.094 -13.4
      vertex 59.4902 3.094 -13.4384
    endloop
  endfacet
  facet normal 0 1 0
    outer loop
      vertex 9.67846 3.094 -18.8892
      vertex 46.84 3.094 -0.0999994
      vertex 46.84 3.094 -13.4
    endloop
  endfacet
  facet normal 0 1 0
    outer loop
      vertex 46.84 3.094 -0.0999994
      vertex 9.67846 3.094 -18.8892
      vertex 0.459999 3.094 -0.0999994
    endloop
  endfacet
  facet normal 0 1 0
    outer loop
      vertex 59.1 3.094 -13.4
      vertex 52 3.094 -20.5
      vertex 46.84 3.094 -13.4
    endloop
  endfacet
  facet normal 0 1 0
    outer loop
      vertex 60.5142 3.094 -13.9858
      vertex 59.4902 3.094 -13.4384
      vertex 59.8654 3.094 -13.5522
    endloop
  endfacet
  facet normal 0 1 0
    outer loop
      vertex 0.459999 3.094 -0.0999994
      vertex 9.67846 3.094 -18.8892
      vertex 0.459999 3.094 -13.5021
    endloop
  endfacet
  facet normal 0 1 0
    outer loop
      vertex 60.5142 3.094 -13.9858
      vertex 59.8654 3.094 -13.5522
      vertex 60.2111 3.094 -13.7371
    endloop
  endfacet
  facet normal -0 1 -0
    outer loop
      vertex 1.8 3.094 -17.5
      vertex 0.459999 3.094 -13.5021
      vertex 9.67846 3.094 -18.8892
    endloop
  endfacet
  facet normal 0 1 0
    outer loop
      vertex 59.1 3.094 -13.4
      vertex 60.5142 3.094 -13.9858
      vertex 61.4371 3.094 -18.2889
    endloop
  endfacet
  facet normal -0 1 0
    outer loop
      vertex -0.354213 3.094 -13.9858
      vertex 0.459999 3.094 -13.5021
      vertex 1.8 3.094 -17.5
    endloop
  endfacet
  facet normal 0 1 -0
    outer loop
      vertex 62.7098 3.094 -17.4384
      vertex 60.5142 3.094 -13.9858
      vertex 63.1 3.094 -17.4
    endloop
  endfacet
  facet normal 0 1 0
    outer loop
      vertex 60.5142 3.094 -13.9858
      vertex 63.4902 3.094 -17.4384
      vertex 63.1 3.094 -17.4
    endloop
  endfacet
  facet normal 0 1 0
    outer loop
      vertex 60.5142 3.094 -13.9858
      vertex 63.8654 3.094 -17.5522
      vertex 63.4902 3.094 -17.4384
    endloop
  endfacet
  facet normal 0 1 0
    outer loop
      vertex 60.5142 3.094 -13.9858
      vertex 64.2111 3.094 -17.7371
      vertex 63.8654 3.094 -17.5522
    endloop
  endfacet
  facet normal -0 1 -0
    outer loop
      vertex 64.2111 3.094 -17.7371
      vertex 60.5142 3.094 -13.9858
      vertex 64.5142 3.094 -17.9858
    endloop
  endfacet
  facet normal 0 1 0
    outer loop
      vertex 61.1384 3.094 -19.0098
      vertex 59.8785 3.094 -21.8892
      vertex 52 3.094 -20.5
    endloop
  endfacet
  facet normal 0 1 -0
    outer loop
      vertex 61.1 3.094 -25.4
      vertex 59.8785 3.094 -21.8892
      vertex 61.1 3.094 -19.4
    endloop
  endfacet
  facet normal 0 1 0
    outer loop
      vertex 59.8785 3.094 -21.8892
      vertex 61.1 3.094 -25.4
      vertex 59.5 3.094 -24.0355
    endloop
  endfacet
  facet normal 0 1 0
    outer loop
      vertex 59.5 3.094 -27.4
      vertex 61.1 3.094 -25.4
      vertex 61.1384 3.094 -25.7902
    endloop
  endfacet
  facet normal 0 1 0
    outer loop
      vertex 59.5 3.094 -27.4
      vertex 61.1384 3.094 -25.7902
      vertex 61.2522 3.094 -26.1654
    endloop
  endfacet
  facet normal 0 1 0
    outer loop
      vertex 59.5 3.094 -27.4
      vertex 61.2522 3.094 -26.1654
      vertex 61.4371 3.094 -26.5111
    endloop
  endfacet
  facet normal 0 1 0
    outer loop
      vertex 61.1 3.094 -25.4
      vertex 59.5 3.094 -27.4
      vertex 59.5 3.094 -24.0355
    endloop
  endfacet
  facet normal 0 1 0
    outer loop
      vertex 61.6858 3.094 -26.8142
      vertex 59.5 3.094 -27.4
      vertex 61.4371 3.094 -26.5111
    endloop
  endfacet
  facet normal 0 1 0
    outer loop
      vertex 61.9889 3.094 -27.0629
      vertex 59.5 3.094 -27.4
      vertex 61.6858 3.094 -26.8142
    endloop
  endfacet
  facet normal 0 1 0
    outer loop
      vertex 62.3346 3.094 -27.2478
      vertex 59.5 3.094 -27.4
      vertex 61.9889 3.094 -27.0629
    endloop
  endfacet
  facet normal 0 1 0
    outer loop
      vertex 62.7098 3.094 -27.3616
      vertex 59.5 3.094 -27.4
      vertex 62.3346 3.094 -27.2478
    endloop
  endfacet
  facet normal 0 1 0
    outer loop
      vertex 59.5 3.094 -27.4
      vertex 62.7098 3.094 -27.3616
      vertex 63.1 3.094 -27.4
    endloop
  endfacet
  facet normal 0 1 -0
    outer loop
      vertex 62.3346 3.094 -17.5522
      vertex 60.5142 3.094 -13.9858
      vertex 62.7098 3.094 -17.4384
    endloop
  endfacet
  facet normal 0 1 0
    outer loop
      vertex -0.354213 3.094 -13.9858
      vertex 1.8 3.094 -17.5
      vertex -3.76843 3.094 -17.4
    endloop
  endfacet
  facet normal 0 1 -0
    outer loop
      vertex 61.9889 3.094 -17.7371
      vertex 60.5142 3.094 -13.9858
      vertex 62.3346 3.094 -17.5522
    endloop
  endfacet
  facet normal 0 1 -0
    outer loop
      vertex 1.2 3.094 -20.9
      vertex -3.76843 3.094 -17.4
      vertex 1.8 3.094 -17.5
    endloop
  endfacet
  facet normal 0 1 0
    outer loop
      vertex -7.68 3.094 -25.4
      vertex -3.76843 3.094 -17.4
      vertex 1.2 3.094 -20.9
    endloop
  endfacet
  facet normal 0 1 -0
    outer loop
      vertex 51.5 3.094 -23.3
      vertex 46.84 3.094 -13.4
      vertex 52 3.094 -20.5
    endloop
  endfacet
  facet normal 0 1 -0
    outer loop
      vertex 61.6858 3.094 -17.9858
      vertex 60.5142 3.094 -13.9858
      vertex 61.9889 3.094 -17.7371
    endloop
  endfacet
  facet normal 0 1 -0
    outer loop
      vertex 61.4371 3.094 -18.2889
      vertex 60.5142 3.094 -13.9858
      vertex 61.6858 3.094 -17.9858
    endloop
  endfacet
  facet normal 0 1 0
    outer loop
      vertex 59.1 3.094 -13.4
      vertex 61.4371 3.094 -18.2889
      vertex 61.2522 3.094 -18.6346
    endloop
  endfacet
  facet normal 0 1 0
    outer loop
      vertex 59.1 3.094 -13.4
      vertex 61.2522 3.094 -18.6346
      vertex 61.1384 3.094 -19.0098
    endloop
  endfacet
  facet normal 0 1 0
    outer loop
      vertex 0.459999 3.094 -13.5021
      vertex -0.0511398 3.094 -13.7371
      vertex 0.294633 3.094 -13.5522
    endloop
  endfacet
  facet normal 0 1 0
    outer loop
      vertex 59.1 3.094 -13.4
      vertex 61.1384 3.094 -19.0098
      vertex 52 3.094 -20.5
    endloop
  endfacet
  facet normal 0 1 0
    outer loop
      vertex 59.8785 3.094 -21.8892
      vertex 61.1384 3.094 -19.0098
      vertex 61.1 3.094 -19.4
    endloop
  endfacet
  facet normal -0 1 0
    outer loop
      vertex -0.0511398 3.094 -13.7371
      vertex 0.459999 3.094 -13.5021
      vertex -0.354213 3.094 -13.9858
    endloop
  endfacet
  facet normal 0 1 -0
    outer loop
      vertex 51.4964 3.094 -23.3559
      vertex 46.84 3.094 -13.4
      vertex 51.5 3.094 -23.3
    endloop
  endfacet
  facet normal 0 1 0
    outer loop
      vertex 51.5 3.094 -23.3
      vertex 52 3.094 -20.5
      vertex 51.5063 3.094 -23.3
    endloop
  endfacet
  facet normal 0 1 0
    outer loop
      vertex 51.5 3.094 -27.4
      vertex 46.84 3.094 -13.4
      vertex 51.4964 3.094 -23.3559
    endloop
  endfacet
  facet normal 0 1 0
    outer loop
      vertex 51.4964 3.094 -23.3559
      vertex 51.5 3.094 -23.3
      vertex 51.5 3.094 -23.3356
    endloop
  endfacet
  facet normal 0 1 0
    outer loop
      vertex 46.84 3.094 -13.4
      vertex 9.2 3.094 -21.6027
      vertex 9.67846 3.094 -18.8892
    endloop
  endfacet
  facet normal 0 1 -0
    outer loop
      vertex 51.5 3.094 -27.4
      vertex 51.4964 3.094 -23.3559
      vertex 51.5 3.094 -23.3566
    endloop
  endfacet
  facet normal 0 1 0
    outer loop
      vertex 46.84 3.094 -13.4
      vertex 51.5 3.094 -27.4
      vertex 9.2 3.094 -27.4
    endloop
  endfacet
  facet normal 0 1 0
    outer loop
      vertex 46.84 3.094 -13.4
      vertex 9.2 3.094 -27.4
      vertex 9.2 3.094 -21.6027
    endloop
  endfacet
  facet normal 0 1 0
    outer loop
      vertex -3.76843 3.094 -17.4
      vertex -7.68 3.094 -19.4
      vertex -5.68 3.094 -17.4
    endloop
  endfacet
  facet normal 0 1 0
    outer loop
      vertex -5.68 3.094 -17.4
      vertex -7.68 3.094 -19.4
      vertex -6.07018 3.094 -17.4384
    endloop
  endfacet
  facet normal 0 1 0
    outer loop
      vertex -6.07018 3.094 -17.4384
      vertex -7.68 3.094 -19.4
      vertex -6.44537 3.094 -17.5522
    endloop
  endfacet
  facet normal 0 1 0
    outer loop
      vertex -6.44537 3.094 -17.5522
      vertex -7.68 3.094 -19.4
      vertex -6.79114 3.094 -17.7371
    endloop
  endfacet
  facet normal 0 1 0
    outer loop
      vertex -6.79114 3.094 -17.7371
      vertex -7.68 3.094 -19.4
      vertex -7.09421 3.094 -17.9858
    endloop
  endfacet
  facet normal 0 1 0
    outer loop
      vertex -7.09421 3.094 -17.9858
      vertex -7.68 3.094 -19.4
      vertex -7.34294 3.094 -18.2889
    endloop
  endfacet
  facet normal 0 1 0
    outer loop
      vertex -7.34294 3.094 -18.2889
      vertex -7.68 3.094 -19.4
      vertex -7.52776 3.094 -18.6346
    endloop
  endfacet
  facet normal 0 1 0
    outer loop
      vertex 1.2 3.094 -20.9
      vertex 1.8 3.094 -17.5
      vertex 1.20049 3.094 -20.9
    endloop
  endfacet
  facet normal 0 1 0
    outer loop
      vertex -7.52776 3.094 -18.6346
      vertex -7.68 3.094 -19.4
      vertex -7.64157 3.094 -19.0098
    endloop
  endfacet
  facet normal 0 1 0
    outer loop
      vertex -3.76843 3.094 -17.4
      vertex -7.68 3.094 -25.4
      vertex -7.68 3.094 -19.4
    endloop
  endfacet
  facet normal 0 1 -0
    outer loop
      vertex -5.68 3.094 -27.4
      vertex -7.68 3.094 -25.4
      vertex 1.2 3.094 -20.9
    endloop
  endfacet
  facet normal 0 1 0
    outer loop
      vertex -7.68 3.094 -25.4
      vertex -5.68 3.094 -27.4
      vertex -7.64157 3.094 -25.7902
    endloop
  endfacet
  facet normal 0 1 0
    outer loop
      vertex -7.64157 3.094 -25.7902
      vertex -5.68 3.094 -27.4
      vertex -7.52776 3.094 -26.1654
    endloop
  endfacet
  facet normal 0 1 0
    outer loop
      vertex -7.52776 3.094 -26.1654
      vertex -5.68 3.094 -27.4
      vertex -7.34294 3.094 -26.5111
    endloop
  endfacet
  facet normal 0 1 0
    outer loop
      vertex -7.34294 3.094 -26.5111
      vertex -5.68 3.094 -27.4
      vertex -7.09421 3.094 -26.8142
    endloop
  endfacet
  facet normal 0 1 0
    outer loop
      vertex -7.09421 3.094 -26.8142
      vertex -5.68 3.094 -27.4
      vertex -6.79114 3.094 -27.0629
    endloop
  endfacet
  facet normal 0 1 0
    outer loop
      vertex -6.79114 3.094 -27.0629
      vertex -5.68 3.094 -27.4
      vertex -6.44537 3.094 -27.2478
    endloop
  endfacet
  facet normal 0 1 0
    outer loop
      vertex -5.68 3.094 -27.4
      vertex 1.2 3.094 -20.9
      vertex 1.2 3.094 -27.4
    endloop
  endfacet
  facet normal 0 1 0
    outer loop
      vertex -6.44537 3.094 -27.2478
      vertex -5.68 3.094 -27.4
      vertex -6.07018 3.094 -27.3616
    endloop
  endfacet
  facet normal 0 -1 0
    outer loop
      vertex 0.459999 1.494 -3.1
      vertex 46.84 1.494 -0.0999994
      vertex 0.459999 1.494 -0.0999994
    endloop
  endfacet
  facet normal 0 -1 -0
    outer loop
      vertex 46.84 1.494 -0.0999994
      vertex 0.459999 1.494 -3.1
      vertex 46.84 1.494 -3.1
    endloop
  endfacet
  facet normal 0 -1 0
    outer loop
      vertex -4.78776 1.494 -18.6346
      vertex -5.68 1.494 -17.4
      vertex -6.07018 1.494 -17.4384
    endloop
  endfacet
  facet normal 0 -1 0
    outer loop
      vertex -4.90157 1.494 -19.0098
      vertex -6.07018 1.494 -17.4384
      vertex -6.44537 1.494 -17.5522
    endloop
  endfacet
  facet normal 0 -1 0
    outer loop
      vertex -4.90157 1.494 -19.0098
      vertex -6.44537 1.494 -17.5522
      vertex -6.79114 1.494 -17.7371
    endloop
  endfacet
  facet normal 0 -1 0
    outer loop
      vertex -4.90157 1.494 -19.0098
      vertex -6.79114 1.494 -17.7371
      vertex -7.09421 1.494 -17.9858
    endloop
  endfacet
  facet normal 0 -1 0
    outer loop
      vertex -5.68 1.494 -17.4
      vertex -4.35421 1.494 -17.9858
      vertex -3.76843 1.494 -17.4
    endloop
  endfacet
  facet normal 0 -1 0
    outer loop
      vertex -4.90157 1.494 -19.0098
      vertex -7.09421 1.494 -17.9858
      vertex -7.34294 1.494 -18.2889
    endloop
  endfacet
  facet normal 0 -1 0
    outer loop
      vertex -5.68 1.494 -17.4
      vertex -4.60294 1.494 -18.2889
      vertex -4.35421 1.494 -17.9858
    endloop
  endfacet
  facet normal 0 -1 0
    outer loop
      vertex -4.94 1.494 -19.4
      vertex -7.34294 1.494 -18.2889
      vertex -7.52776 1.494 -18.6346
    endloop
  endfacet
  facet normal 0 -1 0
    outer loop
      vertex -5.68 1.494 -17.4
      vertex -4.78776 1.494 -18.6346
      vertex -4.60294 1.494 -18.2889
    endloop
  endfacet
  facet normal 0 -1 0
    outer loop
      vertex -4.94 1.494 -19.4
      vertex -7.52776 1.494 -18.6346
      vertex -7.64157 1.494 -19.0098
    endloop
  endfacet
  facet normal 0 -1 0
    outer loop
      vertex -6.07018 1.494 -17.4384
      vertex -4.90157 1.494 -19.0098
      vertex -4.78776 1.494 -18.6346
    endloop
  endfacet
  facet normal 0 -1 0
    outer loop
      vertex -4.94 1.494 -19.4
      vertex -7.64157 1.494 -19.0098
      vertex -7.68 1.494 -19.4
    endloop
  endfacet
  facet normal 0 -1 0
    outer loop
      vertex -7.34294 1.494 -18.2889
      vertex -4.94 1.494 -19.4
      vertex -4.90157 1.494 -19.0098
    endloop
  endfacet
  facet normal 0 -1 0
    outer loop
      vertex -7.68 1.494 -25.4
      vertex -4.94 1.494 -19.4
      vertex -7.68 1.494 -19.4
    endloop
  endfacet
  facet normal 0 -1 0
    outer loop
      vertex -7.68 1.494 -25.4
      vertex -4.94 1.494 -25.4
      vertex -4.94 1.494 -19.4
    endloop
  endfacet
  facet normal 0 -1 0
    outer loop
      vertex -7.64157 1.494 -25.7902
      vertex -4.94 1.494 -25.4
      vertex -7.68 1.494 -25.4
    endloop
  endfacet
  facet normal 0 -1 0
    outer loop
      vertex -7.52776 1.494 -26.1654
      vertex -4.94 1.494 -25.4
      vertex -7.64157 1.494 -25.7902
    endloop
  endfacet
  facet normal 0 -1 0
    outer loop
      vertex -7.34294 1.494 -26.5111
      vertex -4.94 1.494 -25.4
      vertex -7.52776 1.494 -26.1654
    endloop
  endfacet
  facet normal 0 -1 -0
    outer loop
      vertex -4.94 1.494 -25.4
      vertex -7.34294 1.494 -26.5111
      vertex -4.90157 1.494 -25.7902
    endloop
  endfacet
  facet normal 0 -1 0
    outer loop
      vertex -7.09421 1.494 -26.8142
      vertex -4.90157 1.494 -25.7902
      vertex -7.34294 1.494 -26.5111
    endloop
  endfacet
  facet normal 0 -1 0
    outer loop
      vertex -6.79114 1.494 -27.0629
      vertex -4.90157 1.494 -25.7902
      vertex -7.09421 1.494 -26.8142
    endloop
  endfacet
  facet normal 0 -1 0
    outer loop
      vertex -6.44537 1.494 -27.2478
      vertex -4.90157 1.494 -25.7902
      vertex -6.79114 1.494 -27.0629
    endloop
  endfacet
  facet normal 0 -1 0
    outer loop
      vertex -6.07018 1.494 -27.3616
      vertex -4.90157 1.494 -25.7902
      vertex -6.44537 1.494 -27.2478
    endloop
  endfacet
  facet normal 0 -1 -0
    outer loop
      vertex -4.90157 1.494 -25.7902
      vertex -6.07018 1.494 -27.3616
      vertex -4.78776 1.494 -26.1654
    endloop
  endfacet
  facet normal 0 -1 0
    outer loop
      vertex -5.68 1.494 -27.4
      vertex -4.78776 1.494 -26.1654
      vertex -6.07018 1.494 -27.3616
    endloop
  endfacet
  facet normal 0 -1 -0
    outer loop
      vertex -4.78776 1.494 -26.1654
      vertex -5.68 1.494 -27.4
      vertex -4.60294 1.494 -26.5111
    endloop
  endfacet
  facet normal 0 -1 -0
    outer loop
      vertex -4.35421 1.494 -26.8142
      vertex -5.68 1.494 -27.4
      vertex -4.05114 1.494 -27.0629
    endloop
  endfacet
  facet normal 0 -1 -0
    outer loop
      vertex -4.60294 1.494 -26.5111
      vertex -5.68 1.494 -27.4
      vertex -4.35421 1.494 -26.8142
    endloop
  endfacet
  facet normal 0 -1 -0
    outer loop
      vertex -4.05114 1.494 -27.0629
      vertex -5.68 1.494 -27.4
      vertex -3.70537 1.494 -27.2478
    endloop
  endfacet
  facet normal 0 -1 -0
    outer loop
      vertex -3.70537 1.494 -27.2478
      vertex -5.68 1.494 -27.4
      vertex -3.33018 1.494 -27.3616
    endloop
  endfacet
  facet normal 0 -1 -0
    outer loop
      vertex -3.33018 1.494 -27.3616
      vertex -5.68 1.494 -27.4
      vertex -2.94 1.494 -27.4
    endloop
  endfacet
  facet normal -1 0 0
    outer loop
      vertex 0.459999 3.094 -13.5021
      vertex 0.459999 1.494 -3.1
      vertex 0.459999 3.094 -0.0999994
    endloop
  endfacet
  facet normal -1 0 -0
    outer loop
      vertex 0.459999 1.494 -3.1
      vertex 0.459999 3.094 -13.5021
      vertex 0.459999 0.0139443 -13.5021
    endloop
  endfacet
  facet normal -1 -0 0
    outer loop
      vertex 0.459999 3.094 -0.0999994
      vertex 0.459999 1.494 -3.1
      vertex 0.459999 1.494 -0.0999994
    endloop
  endfacet
  facet normal -0 0 1
    outer loop
      vertex 0.459999 3.094 -0.0999994
      vertex 46.84 1.494 -0.0999994
      vertex 46.84 3.094 -0.0999994
    endloop
  endfacet
  facet normal 0 0 1
    outer loop
      vertex 46.84 1.494 -0.0999994
      vertex 0.459999 3.094 -0.0999994
      vertex 0.459999 1.494 -0.0999994
    endloop
  endfacet
  facet normal -0.47156 0 -0.881834
    outer loop
      vertex -6.79114 1.494 -27.0629
      vertex -6.44537 3.094 -27.2478
      vertex -6.44537 1.494 -27.2478
    endloop
  endfacet
  facet normal -0.47156 0 -0.881834
    outer loop
      vertex -6.44537 3.094 -27.2478
      vertex -6.79114 1.494 -27.0629
      vertex -6.79114 3.094 -27.0629
    endloop
  endfacet
  facet normal -0.0979429 0 -0.995192
    outer loop
      vertex -6.07018 1.494 -27.3616
      vertex -5.68 3.094 -27.4
      vertex -5.68 1.494 -27.4
    endloop
  endfacet
  facet normal -0.0979429 0 -0.995192
    outer loop
      vertex -5.68 3.094 -27.4
      vertex -6.07018 1.494 -27.3616
      vertex -6.07018 3.094 -27.3616
    endloop
  endfacet
  facet normal -0.634358 0 0.773039
    outer loop
      vertex -7.09421 3.094 -17.9858
      vertex -6.79114 1.494 -17.7371
      vertex -6.79114 3.094 -17.7371
    endloop
  endfacet
  facet normal -0.634358 0 0.773039
    outer loop
      vertex -6.79114 1.494 -17.7371
      vertex -7.09421 3.094 -17.9858
      vertex -7.09421 1.494 -17.9858
    endloop
  endfacet
  facet normal -0 0 1
    outer loop
      vertex -5.68 3.094 -17.4
      vertex -3.76843 1.494 -17.4
      vertex -3.76843 3.094 -17.4
    endloop
  endfacet
  facet normal 0 0 1
    outer loop
      vertex -3.76843 1.494 -17.4
      vertex -5.68 3.094 -17.4
      vertex -5.68 1.494 -17.4
    endloop
  endfacet
  facet normal -0.290255 0 0.956949
    outer loop
      vertex -6.44537 3.094 -17.5522
      vertex -6.07018 1.494 -17.4384
      vertex -6.07018 3.094 -17.4384
    endloop
  endfacet
  facet normal -0.290255 0 0.956949
    outer loop
      vertex -6.07018 1.494 -17.4384
      vertex -6.44537 3.094 -17.5522
      vertex -6.44537 1.494 -17.5522
    endloop
  endfacet
  facet normal -1 0 0
    outer loop
      vertex -7.68 1.494 -25.4
      vertex -7.68 3.094 -19.4
      vertex -7.68 3.094 -25.4
    endloop
  endfacet
  facet normal -1 -0 0
    outer loop
      vertex -7.68 3.094 -19.4
      vertex -7.68 1.494 -25.4
      vertex -7.68 1.494 -19.4
    endloop
  endfacet
  facet normal -0.881879 0 -0.471475
    outer loop
      vertex -7.34294 1.494 -26.5111
      vertex -7.52776 3.094 -26.1654
      vertex -7.34294 3.094 -26.5111
    endloop
  endfacet
  facet normal -0.881879 -0 -0.471475
    outer loop
      vertex -7.52776 3.094 -26.1654
      vertex -7.34294 1.494 -26.5111
      vertex -7.52776 1.494 -26.1654
    endloop
  endfacet
  facet normal 0 0 -1
    outer loop
      vertex 63.1 0 -27.4
      vertex 59.5 1 -27.4
      vertex 63.1 3.094 -27.4
    endloop
  endfacet
  facet normal 0 0 -1
    outer loop
      vertex 63.1 0 -27.4
      vertex 51.5 1 -27.4
      vertex 59.5 1 -27.4
    endloop
  endfacet
  facet normal 0 0 -1
    outer loop
      vertex 51.5 1 -27.4
      vertex 9.2 1 -27.4
      vertex 51.5 3.094 -27.4
    endloop
  endfacet
  facet normal 0 0 -1
    outer loop
      vertex 63.1 0 -27.4
      vertex 9.2 1 -27.4
      vertex 51.5 1 -27.4
    endloop
  endfacet
  facet normal 0 0 -1
    outer loop
      vertex -2.94 0 -27.4
      vertex 9.2 1 -27.4
      vertex 63.1 0 -27.4
    endloop
  endfacet
  facet normal -0 0 -1
    outer loop
      vertex 9.2 1 -27.4
      vertex -2.94 0 -27.4
      vertex 1.2 1 -27.4
    endloop
  endfacet
  facet normal 0 0 -1
    outer loop
      vertex -2.94 1.494 -27.4
      vertex 1.2 1 -27.4
      vertex -2.94 0 -27.4
    endloop
  endfacet
  facet normal 0 0 -1
    outer loop
      vertex 1.2 1 -27.4
      vertex -2.94 1.494 -27.4
      vertex 1.2 3.094 -27.4
    endloop
  endfacet
  facet normal 0 0 -1
    outer loop
      vertex -5.68 3.094 -27.4
      vertex -2.94 1.494 -27.4
      vertex -5.68 1.494 -27.4
    endloop
  endfacet
  facet normal 0 0 -1
    outer loop
      vertex -2.94 1.494 -27.4
      vertex -5.68 3.094 -27.4
      vertex 1.2 3.094 -27.4
    endloop
  endfacet
  facet normal -0 0 -1
    outer loop
      vertex 63.1 3.094 -27.4
      vertex 59.5 1 -27.4
      vertex 59.5 3.094 -27.4
    endloop
  endfacet
  facet normal -0 0 -1
    outer loop
      vertex 51.5 3.094 -27.4
      vertex 9.2 1 -27.4
      vertex 9.2 3.094 -27.4
    endloop
  endfacet
  facet normal -0.995185 0 -0.0980137
    outer loop
      vertex -7.64157 1.494 -25.7902
      vertex -7.68 3.094 -25.4
      vertex -7.64157 3.094 -25.7902
    endloop
  endfacet
  facet normal -0.995185 -0 -0.0980137
    outer loop
      vertex -7.68 3.094 -25.4
      vertex -7.64157 1.494 -25.7902
      vertex -7.68 1.494 -25.4
    endloop
  endfacet
  facet normal -0.0979429 0 0.995192
    outer loop
      vertex -6.07018 3.094 -17.4384
      vertex -5.68 1.494 -17.4
      vertex -5.68 3.094 -17.4
    endloop
  endfacet
  facet normal -0.0979429 0 0.995192
    outer loop
      vertex -5.68 1.494 -17.4
      vertex -6.07018 3.094 -17.4384
      vertex -6.07018 1.494 -17.4384
    endloop
  endfacet
  facet normal -0.773033 0 0.634366
    outer loop
      vertex -7.34294 1.494 -18.2889
      vertex -7.09421 3.094 -17.9858
      vertex -7.34294 3.094 -18.2889
    endloop
  endfacet
  facet normal -0.773033 0 0.634366
    outer loop
      vertex -7.09421 3.094 -17.9858
      vertex -7.34294 1.494 -18.2889
      vertex -7.09421 1.494 -17.9858
    endloop
  endfacet
  facet normal -0.881879 0 0.471475
    outer loop
      vertex -7.52776 1.494 -18.6346
      vertex -7.34294 3.094 -18.2889
      vertex -7.52776 3.094 -18.6346
    endloop
  endfacet
  facet normal -0.881879 0 0.471475
    outer loop
      vertex -7.34294 3.094 -18.2889
      vertex -7.52776 1.494 -18.6346
      vertex -7.34294 1.494 -18.2889
    endloop
  endfacet
  facet normal -0.956944 0 0.290271
    outer loop
      vertex -7.64157 1.494 -19.0098
      vertex -7.52776 3.094 -18.6346
      vertex -7.64157 3.094 -19.0098
    endloop
  endfacet
  facet normal -0.956944 0 0.290271
    outer loop
      vertex -7.52776 3.094 -18.6346
      vertex -7.64157 1.494 -19.0098
      vertex -7.52776 1.494 -18.6346
    endloop
  endfacet
  facet normal -0.995185 0 0.0980137
    outer loop
      vertex -7.68 1.494 -19.4
      vertex -7.64157 3.094 -19.0098
      vertex -7.68 3.094 -19.4
    endloop
  endfacet
  facet normal -0.995185 0 0.0980137
    outer loop
      vertex -7.64157 3.094 -19.0098
      vertex -7.68 1.494 -19.4
      vertex -7.64157 1.494 -19.0098
    endloop
  endfacet
  facet normal -0.956944 0 -0.290271
    outer loop
      vertex -7.52776 1.494 -26.1654
      vertex -7.64157 3.094 -25.7902
      vertex -7.52776 3.094 -26.1654
    endloop
  endfacet
  facet normal -0.956944 -0 -0.290271
    outer loop
      vertex -7.64157 3.094 -25.7902
      vertex -7.52776 1.494 -26.1654
      vertex -7.64157 1.494 -25.7902
    endloop
  endfacet
  facet normal -0.47156 0 0.881834
    outer loop
      vertex -6.79114 3.094 -17.7371
      vertex -6.44537 1.494 -17.5522
      vertex -6.44537 3.094 -17.5522
    endloop
  endfacet
  facet normal -0.47156 0 0.881834
    outer loop
      vertex -6.44537 1.494 -17.5522
      vertex -6.79114 3.094 -17.7371
      vertex -6.79114 1.494 -17.7371
    endloop
  endfacet
  facet normal -0.773033 0 -0.634366
    outer loop
      vertex -7.09421 1.494 -26.8142
      vertex -7.34294 3.094 -26.5111
      vertex -7.09421 3.094 -26.8142
    endloop
  endfacet
  facet normal -0.773033 -0 -0.634366
    outer loop
      vertex -7.34294 3.094 -26.5111
      vertex -7.09421 1.494 -26.8142
      vertex -7.34294 1.494 -26.5111
    endloop
  endfacet
  facet normal -0.634358 0 -0.773039
    outer loop
      vertex -7.09421 1.494 -26.8142
      vertex -6.79114 3.094 -27.0629
      vertex -6.79114 1.494 -27.0629
    endloop
  endfacet
  facet normal -0.634358 0 -0.773039
    outer loop
      vertex -6.79114 3.094 -27.0629
      vertex -7.09421 1.494 -26.8142
      vertex -7.09421 3.094 -26.8142
    endloop
  endfacet
  facet normal -0.290255 0 -0.956949
    outer loop
      vertex -6.44537 1.494 -27.2478
      vertex -6.07018 3.094 -27.3616
      vertex -6.07018 1.494 -27.3616
    endloop
  endfacet
  facet normal -0.290255 0 -0.956949
    outer loop
      vertex -6.07018 3.094 -27.3616
      vertex -6.44537 1.494 -27.2478
      vertex -6.44537 3.094 -27.2478
    endloop
  endfacet
  facet normal -0.881879 0 -0.471475
    outer loop
      vertex -4.60294 0 -26.5111
      vertex -4.78776 1.494 -26.1654
      vertex -4.60294 1.494 -26.5111
    endloop
  endfacet
  facet normal -0.881879 -0 -0.471475
    outer loop
      vertex -4.78776 1.494 -26.1654
      vertex -4.60294 0 -26.5111
      vertex -4.78776 0 -26.1654
    endloop
  endfacet
  facet normal 0.881795 -0 0.471634
    outer loop
      vertex 64.7629 0 -18.2889
      vertex 64.9478 11.4 -18.6346
      vertex 64.7629 11.4 -18.2889
    endloop
  endfacet
  facet normal 0.881795 0 0.471634
    outer loop
      vertex 64.9478 11.4 -18.6346
      vertex 64.7629 0 -18.2889
      vertex 64.9478 0 -18.6346
    endloop
  endfacet
  facet normal -0.634354 0 0.773043
    outer loop
      vertex -0.354213 3.094 -13.9858
      vertex -0.0511398 0 -13.7371
      vertex -0.0511398 3.094 -13.7371
    endloop
  endfacet
  facet normal -0.634354 0 0.773043
    outer loop
      vertex -0.0511398 0 -13.7371
      vertex -0.354213 3.094 -13.9858
      vertex -0.354213 0 -13.9858
    endloop
  endfacet
  facet normal 0.707107 -0 0.707107
    outer loop
      vertex 60.5142 0 -13.9858
      vertex 64.5142 3.094 -17.9858
      vertex 60.5142 3.094 -13.9858
    endloop
  endfacet
  facet normal 0.707107 0 0.707107
    outer loop
      vertex 64.5142 3.094 -17.9858
      vertex 60.5142 0 -13.9858
      vertex 64.5142 0 -17.9858
    endloop
  endfacet
  facet normal -0.881879 0 0.471475
    outer loop
      vertex -4.78776 0 -18.6346
      vertex -4.60294 1.494 -18.2889
      vertex -4.78776 1.494 -18.6346
    endloop
  endfacet
  facet normal -0.881879 0 0.471475
    outer loop
      vertex -4.60294 1.494 -18.2889
      vertex -4.78776 0 -18.6346
      vertex -4.60294 0 -18.2889
    endloop
  endfacet
  facet normal -0.956944 0 0.290271
    outer loop
      vertex -4.90157 0 -19.0098
      vertex -4.78776 1.494 -18.6346
      vertex -4.90157 1.494 -19.0098
    endloop
  endfacet
  facet normal -0.956944 0 0.290271
    outer loop
      vertex -4.78776 1.494 -18.6346
      vertex -4.90157 0 -19.0098
      vertex -4.78776 0 -18.6346
    endloop
  endfacet
  facet normal -0.28995 0 0.957042
    outer loop
      vertex 0.459999 3.094 -13.5021
      vertex 0.294633 3.094 -13.5522
      vertex 0.459999 0.0139443 -13.5021
    endloop
  endfacet
  facet normal -0.290501 0 0.956875
    outer loop
      vertex 0.459999 0.0139443 -13.5021
      vertex 0.669819 0 -13.4384
      vertex 0.669819 0.0230004 -13.4384
    endloop
  endfacet
  facet normal -0.290256 0.00399337 0.956941
    outer loop
      vertex 0.459999 0.0139443 -13.5021
      vertex 0.294633 0 -13.5522
      vertex 0.669819 0 -13.4384
    endloop
  endfacet
  facet normal -0.28995 0 0.957042
    outer loop
      vertex 0.294633 0 -13.5522
      vertex 0.459999 0.0139443 -13.5021
      vertex 0.294633 3.094 -13.5522
    endloop
  endfacet
  facet normal 1 -0 0
    outer loop
      vertex 65.1 0 -19.4
      vertex 65.1 11.4 -25.4
      vertex 65.1 11.4 -19.4
    endloop
  endfacet
  facet normal 1 0 0
    outer loop
      vertex 65.1 11.4 -25.4
      vertex 65.1 0 -19.4
      vertex 65.1 0 -25.4
    endloop
  endfacet
  facet normal -1 0 0
    outer loop
      vertex -4.94 0 -25.4
      vertex -4.94 1.494 -19.4
      vertex -4.94 1.494 -25.4
    endloop
  endfacet
  facet normal -1 -0 0
    outer loop
      vertex -4.94 1.494 -19.4
      vertex -4.94 0 -25.4
      vertex -4.94 0 -19.4
    endloop
  endfacet
  facet normal -0.707119 0 0.707095
    outer loop
      vertex -4.35421 1.494 -17.9858
      vertex -4.35421 0 -17.9858
      vertex -3.76843 1.494 -17.4
    endloop
  endfacet
  facet normal -0.707105 0 0.707109
    outer loop
      vertex -3.76843 1.494 -17.4
      vertex -0.354213 3.094 -13.9858
      vertex -3.76843 3.094 -17.4
    endloop
  endfacet
  facet normal -0.707107 -9.25801e-06 0.707107
    outer loop
      vertex -0.354213 0 -13.9858
      vertex -3.76843 1.494 -17.4
      vertex -4.35421 0 -17.9858
    endloop
  endfacet
  facet normal -0.707105 0 0.707109
    outer loop
      vertex -3.76843 1.494 -17.4
      vertex -0.354213 0 -13.9858
      vertex -0.354213 3.094 -13.9858
    endloop
  endfacet
  facet normal 0.634321 0 -0.77307
    outer loop
      vertex 64.2111 0 -27.0629
      vertex 64.5142 11.4 -26.8142
      vertex 64.5142 0 -26.8142
    endloop
  endfacet
  facet normal 0.634321 0 -0.77307
    outer loop
      vertex 64.5142 11.4 -26.8142
      vertex 64.2111 0 -27.0629
      vertex 64.2111 11.4 -27.0629
    endloop
  endfacet
  facet normal -0.995185 0 0.0980137
    outer loop
      vertex -4.94 0 -19.4
      vertex -4.90157 1.494 -19.0098
      vertex -4.94 1.494 -19.4
    endloop
  endfacet
  facet normal -0.995185 0 0.0980137
    outer loop
      vertex -4.90157 1.494 -19.0098
      vertex -4.94 0 -19.4
      vertex -4.90157 0 -19.0098
    endloop
  endfacet
  facet normal -0.995185 0 -0.0980137
    outer loop
      vertex -4.90157 0 -25.7902
      vertex -4.94 1.494 -25.4
      vertex -4.90157 1.494 -25.7902
    endloop
  endfacet
  facet normal -0.995185 -0 -0.0980137
    outer loop
      vertex -4.94 1.494 -25.4
      vertex -4.90157 0 -25.7902
      vertex -4.94 0 -25.4
    endloop
  endfacet
  facet normal -0 0 1
    outer loop
      vertex 46.84 3.094 -13.4
      vertex 59.1 0 -13.4
      vertex 59.1 3.094 -13.4
    endloop
  endfacet
  facet normal -0 0 1
    outer loop
      vertex 46.84 0.0284683 -13.4
      vertex 59.1 0 -13.4
      vertex 46.84 3.094 -13.4
    endloop
  endfacet
  facet normal 0 0 1
    outer loop
      vertex 1.06 0 -13.4
      vertex 46.84 0.0284683 -13.4
      vertex 1.06 0.0284683 -13.4
    endloop
  endfacet
  facet normal 0 0 1
    outer loop
      vertex 46.84 0.0284683 -13.4
      vertex 1.06 0 -13.4
      vertex 59.1 0 -13.4
    endloop
  endfacet
  facet normal 0.77307 0 -0.634321
    outer loop
      vertex 64.7629 0 -26.5111
      vertex 64.5142 11.4 -26.8142
      vertex 64.7629 11.4 -26.5111
    endloop
  endfacet
  facet normal 0.77307 0 -0.634321
    outer loop
      vertex 64.5142 11.4 -26.8142
      vertex 64.7629 0 -26.5111
      vertex 64.5142 0 -26.8142
    endloop
  endfacet
  facet normal -0.0979429 0 -0.995192
    outer loop
      vertex -3.33018 0 -27.3616
      vertex -2.94 1.494 -27.4
      vertex -2.94 0 -27.4
    endloop
  endfacet
  facet normal -0.0979429 0 -0.995192
    outer loop
      vertex -2.94 1.494 -27.4
      vertex -3.33018 0 -27.3616
      vertex -3.33018 1.494 -27.3616
    endloop
  endfacet
  facet normal 0.77307 -0 0.634321
    outer loop
      vertex 64.5142 3.094 -17.9858
      vertex 64.7629 11.4 -18.2889
      vertex 64.5142 11.4 -17.9858
    endloop
  endfacet
  facet normal 0.77307 0 0.634321
    outer loop
      vertex 64.7629 0 -18.2889
      vertex 64.5142 3.094 -17.9858
      vertex 64.5142 0 -17.9858
    endloop
  endfacet
  facet normal 0.77307 0 0.634321
    outer loop
      vertex 64.5142 3.094 -17.9858
      vertex 64.7629 0 -18.2889
      vertex 64.7629 11.4 -18.2889
    endloop
  endfacet
  facet normal -0.773033 0 0.634366
    outer loop
      vertex -4.60294 0 -18.2889
      vertex -4.35421 1.494 -17.9858
      vertex -4.60294 1.494 -18.2889
    endloop
  endfacet
  facet normal -0.773033 0 0.634366
    outer loop
      vertex -4.35421 1.494 -17.9858
      vertex -4.60294 0 -18.2889
      vertex -4.35421 0 -17.9858
    endloop
  endfacet
  facet normal 0.956951 0 -0.290248
    outer loop
      vertex 65.0616 0 -25.7902
      vertex 64.9478 11.4 -26.1654
      vertex 65.0616 11.4 -25.7902
    endloop
  endfacet
  facet normal 0.956951 0 -0.290248
    outer loop
      vertex 64.9478 11.4 -26.1654
      vertex 65.0616 0 -25.7902
      vertex 64.9478 0 -26.1654
    endloop
  endfacet
  facet normal 0.290248 0 -0.956951
    outer loop
      vertex 63.4902 0 -27.3616
      vertex 63.8654 11.4 -27.2478
      vertex 63.8654 0 -27.2478
    endloop
  endfacet
  facet normal 0.290248 0 -0.956951
    outer loop
      vertex 63.8654 11.4 -27.2478
      vertex 63.4902 0 -27.3616
      vertex 63.4902 11.4 -27.3616
    endloop
  endfacet
  facet normal -0.634358 0 -0.773039
    outer loop
      vertex -4.35421 0 -26.8142
      vertex -4.05114 1.494 -27.0629
      vertex -4.05114 0 -27.0629
    endloop
  endfacet
  facet normal -0.634358 0 -0.773039
    outer loop
      vertex -4.05114 1.494 -27.0629
      vertex -4.35421 0 -26.8142
      vertex -4.35421 1.494 -26.8142
    endloop
  endfacet
  facet normal -0.956944 0 -0.290271
    outer loop
      vertex -4.78776 0 -26.1654
      vertex -4.90157 1.494 -25.7902
      vertex -4.78776 1.494 -26.1654
    endloop
  endfacet
  facet normal -0.956944 -0 -0.290271
    outer loop
      vertex -4.90157 1.494 -25.7902
      vertex -4.78776 0 -26.1654
      vertex -4.90157 0 -25.7902
    endloop
  endfacet
  facet normal -0.471557 0 0.881836
    outer loop
      vertex -0.0511398 3.094 -13.7371
      vertex 0.294633 0 -13.5522
      vertex 0.294633 3.094 -13.5522
    endloop
  endfacet
  facet normal -0.471557 0 0.881836
    outer loop
      vertex 0.294633 0 -13.5522
      vertex -0.0511398 3.094 -13.7371
      vertex -0.0511398 0 -13.7371
    endloop
  endfacet
  facet normal -0.0979427 0 0.995192
    outer loop
      vertex 0.669819 0.0230004 -13.4384
      vertex 1.06 0 -13.4
      vertex 1.06 0.0284683 -13.4
    endloop
  endfacet
  facet normal -0.0979427 0 0.995192
    outer loop
      vertex 1.06 0 -13.4
      vertex 0.669819 0.0230004 -13.4384
      vertex 0.669819 0 -13.4384
    endloop
  endfacet
  facet normal -0.290255 0 -0.956949
    outer loop
      vertex -3.70537 0 -27.2478
      vertex -3.33018 1.494 -27.3616
      vertex -3.33018 0 -27.3616
    endloop
  endfacet
  facet normal -0.290255 0 -0.956949
    outer loop
      vertex -3.33018 1.494 -27.3616
      vertex -3.70537 0 -27.2478
      vertex -3.70537 1.494 -27.2478
    endloop
  endfacet
  facet normal 0.097938 0 0.995193
    outer loop
      vertex 59.1 3.094 -13.4
      vertex 59.4902 0 -13.4384
      vertex 59.4902 3.094 -13.4384
    endloop
  endfacet
  facet normal 0.097938 0 0.995193
    outer loop
      vertex 59.4902 0 -13.4384
      vertex 59.1 3.094 -13.4
      vertex 59.1 0 -13.4
    endloop
  endfacet
  facet normal -0.773033 0 -0.634366
    outer loop
      vertex -4.35421 0 -26.8142
      vertex -4.60294 1.494 -26.5111
      vertex -4.35421 1.494 -26.8142
    endloop
  endfacet
  facet normal -0.773033 -0 -0.634366
    outer loop
      vertex -4.60294 1.494 -26.5111
      vertex -4.35421 0 -26.8142
      vertex -4.60294 0 -26.5111
    endloop
  endfacet
  facet normal 0.290248 0 0.956951
    outer loop
      vertex 59.4902 3.094 -13.4384
      vertex 59.8654 0 -13.5522
      vertex 59.8654 3.094 -13.5522
    endloop
  endfacet
  facet normal 0.290248 0 0.956951
    outer loop
      vertex 59.8654 0 -13.5522
      vertex 59.4902 3.094 -13.4384
      vertex 59.4902 0 -13.4384
    endloop
  endfacet
  facet normal 0.881795 0 -0.471634
    outer loop
      vertex 64.9478 0 -26.1654
      vertex 64.7629 11.4 -26.5111
      vertex 64.9478 11.4 -26.1654
    endloop
  endfacet
  facet normal 0.881795 0 -0.471634
    outer loop
      vertex 64.7629 11.4 -26.5111
      vertex 64.9478 0 -26.1654
      vertex 64.7629 0 -26.5111
    endloop
  endfacet
  facet normal 0.097938 0 -0.995193
    outer loop
      vertex 63.1 3.094 -27.4
      vertex 63.4902 11.4 -27.3616
      vertex 63.4902 0 -27.3616
    endloop
  endfacet
  facet normal 0.097938 0 -0.995193
    outer loop
      vertex 63.1 3.094 -27.4
      vertex 63.4902 0 -27.3616
      vertex 63.1 0 -27.4
    endloop
  endfacet
  facet normal 0.0979975 -2.82457e-06 -0.995187
    outer loop
      vertex 63.4902 11.4 -27.3616
      vertex 63.1 3.094 -27.4
      vertex 63.15 11.4 -27.3951
    endloop
  endfacet
  facet normal 0.0975328 0 -0.995232
    outer loop
      vertex 63.1 13 -27.4
      vertex 63.15 11.4 -27.3951
      vertex 63.1 3.094 -27.4
    endloop
  endfacet
  facet normal 0.0975328 0 -0.995232
    outer loop
      vertex 63.15 11.4 -27.3951
      vertex 63.1 13 -27.4
      vertex 63.15 13 -27.3951
    endloop
  endfacet
  facet normal 0.995193 0 -0.097938
    outer loop
      vertex 65.1 0 -25.4
      vertex 65.0616 11.4 -25.7902
      vertex 65.1 11.4 -25.4
    endloop
  endfacet
  facet normal 0.995193 0 -0.097938
    outer loop
      vertex 65.0616 11.4 -25.7902
      vertex 65.1 0 -25.4
      vertex 65.0616 0 -25.7902
    endloop
  endfacet
  facet normal 0.956951 -0 0.290248
    outer loop
      vertex 64.9478 0 -18.6346
      vertex 65.0616 11.4 -19.0098
      vertex 64.9478 11.4 -18.6346
    endloop
  endfacet
  facet normal 0.956951 0 0.290248
    outer loop
      vertex 65.0616 11.4 -19.0098
      vertex 64.9478 0 -18.6346
      vertex 65.0616 0 -19.0098
    endloop
  endfacet
  facet normal -0.47156 0 -0.881834
    outer loop
      vertex -4.05114 0 -27.0629
      vertex -3.70537 1.494 -27.2478
      vertex -3.70537 0 -27.2478
    endloop
  endfacet
  facet normal -0.47156 0 -0.881834
    outer loop
      vertex -3.70537 1.494 -27.2478
      vertex -4.05114 0 -27.0629
      vertex -4.05114 1.494 -27.0629
    endloop
  endfacet
  facet normal 0.471634 0 0.881795
    outer loop
      vertex 59.8654 3.094 -13.5522
      vertex 60.2111 0 -13.7371
      vertex 60.2111 3.094 -13.7371
    endloop
  endfacet
  facet normal 0.471634 0 0.881795
    outer loop
      vertex 60.2111 0 -13.7371
      vertex 59.8654 3.094 -13.5522
      vertex 59.8654 0 -13.5522
    endloop
  endfacet
  facet normal 0 -1 0
    outer loop
      vertex -0.354213 0 -13.9858
      vertex 1.06 0 -13.4
      vertex 0.669819 0 -13.4384
    endloop
  endfacet
  facet normal 0 -1 -0
    outer loop
      vertex 1.06 0 -13.4
      vertex -2.94 0 -27.4
      vertex 59.1 0 -13.4
    endloop
  endfacet
  facet normal 0 -1 0
    outer loop
      vertex -0.354213 0 -13.9858
      vertex 0.669819 0 -13.4384
      vertex 0.294633 0 -13.5522
    endloop
  endfacet
  facet normal 0 -1 0
    outer loop
      vertex 63.1 0 -27.4
      vertex 59.1 0 -13.4
      vertex -2.94 0 -27.4
    endloop
  endfacet
  facet normal 0 -1 0
    outer loop
      vertex -0.354213 0 -13.9858
      vertex 0.294633 0 -13.5522
      vertex -0.0511398 0 -13.7371
    endloop
  endfacet
  facet normal -0 -1 -0
    outer loop
      vertex 60.5142 0 -13.9858
      vertex 59.1 0 -13.4
      vertex 63.1 0 -27.4
    endloop
  endfacet
  facet normal 0 -1 0
    outer loop
      vertex 1.06 0 -13.4
      vertex -0.354213 0 -13.9858
      vertex -2.94 0 -27.4
    endloop
  endfacet
  facet normal 0 -1 0
    outer loop
      vertex 59.1 0 -13.4
      vertex 60.5142 0 -13.9858
      vertex 59.4902 0 -13.4384
    endloop
  endfacet
  facet normal 0 -1 0
    outer loop
      vertex -2.94 0 -27.4
      vertex -0.354213 0 -13.9858
      vertex -4.35421 0 -17.9858
    endloop
  endfacet
  facet normal 0 -1 0
    outer loop
      vertex 59.4902 0 -13.4384
      vertex 60.5142 0 -13.9858
      vertex 59.8654 0 -13.5522
    endloop
  endfacet
  facet normal 0 -1 0
    outer loop
      vertex -4.94 0 -19.4
      vertex -4.35421 0 -17.9858
      vertex -4.60294 0 -18.2889
    endloop
  endfacet
  facet normal 0 -1 0
    outer loop
      vertex 59.8654 0 -13.5522
      vertex 60.5142 0 -13.9858
      vertex 60.2111 0 -13.7371
    endloop
  endfacet
  facet normal 0 -1 0
    outer loop
      vertex -4.94 0 -19.4
      vertex -4.60294 0 -18.2889
      vertex -4.78776 0 -18.6346
    endloop
  endfacet
  facet normal 0 -1 0
    outer loop
      vertex 60.5142 0 -13.9858
      vertex 63.1 0 -27.4
      vertex 64.5142 0 -17.9858
    endloop
  endfacet
  facet normal 0 -1 0
    outer loop
      vertex -4.94 0 -19.4
      vertex -4.78776 0 -18.6346
      vertex -4.90157 0 -19.0098
    endloop
  endfacet
  facet normal -0 -1 0
    outer loop
      vertex 65.1 0 -19.4
      vertex 64.5142 0 -17.9858
      vertex 63.1 0 -27.4
    endloop
  endfacet
  facet normal 0 -1 -0
    outer loop
      vertex -4.35421 0 -17.9858
      vertex -4.94 0 -19.4
      vertex -2.94 0 -27.4
    endloop
  endfacet
  facet normal 0 -1 0
    outer loop
      vertex 64.5142 0 -17.9858
      vertex 65.1 0 -19.4
      vertex 64.7629 0 -18.2889
    endloop
  endfacet
  facet normal 0 -1 0
    outer loop
      vertex -2.94 0 -27.4
      vertex -4.94 0 -19.4
      vertex -4.94 0 -25.4
    endloop
  endfacet
  facet normal 0 -1 0
    outer loop
      vertex 64.7629 0 -18.2889
      vertex 65.1 0 -19.4
      vertex 64.9478 0 -18.6346
    endloop
  endfacet
  facet normal 0 -1 0
    outer loop
      vertex -2.94 0 -27.4
      vertex -4.94 0 -25.4
      vertex -4.90157 0 -25.7902
    endloop
  endfacet
  facet normal 0 -1 0
    outer loop
      vertex 64.9478 0 -18.6346
      vertex 65.1 0 -19.4
      vertex 65.0616 0 -19.0098
    endloop
  endfacet
  facet normal 0 -1 0
    outer loop
      vertex -2.94 0 -27.4
      vertex -4.90157 0 -25.7902
      vertex -4.78776 0 -26.1654
    endloop
  endfacet
  facet normal 0 -1 -0
    outer loop
      vertex 65.1 0 -19.4
      vertex 63.1 0 -27.4
      vertex 65.1 0 -25.4
    endloop
  endfacet
  facet normal 0 -1 0
    outer loop
      vertex -2.94 0 -27.4
      vertex -4.78776 0 -26.1654
      vertex -4.60294 0 -26.5111
    endloop
  endfacet
  facet normal 0 -1 0
    outer loop
      vertex 65.1 0 -25.4
      vertex 63.1 0 -27.4
      vertex 65.0616 0 -25.7902
    endloop
  endfacet
  facet normal 0 -1 0
    outer loop
      vertex -2.94 0 -27.4
      vertex -4.60294 0 -26.5111
      vertex -4.35421 0 -26.8142
    endloop
  endfacet
  facet normal 0 -1 0
    outer loop
      vertex 65.0616 0 -25.7902
      vertex 63.1 0 -27.4
      vertex 64.9478 0 -26.1654
    endloop
  endfacet
  facet normal 0 -1 0
    outer loop
      vertex -2.94 0 -27.4
      vertex -4.35421 0 -26.8142
      vertex -4.05114 0 -27.0629
    endloop
  endfacet
  facet normal 0 -1 0
    outer loop
      vertex 64.9478 0 -26.1654
      vertex 63.1 0 -27.4
      vertex 64.7629 0 -26.5111
    endloop
  endfacet
  facet normal 0 -1 0
    outer loop
      vertex -2.94 0 -27.4
      vertex -4.05114 0 -27.0629
      vertex -3.70537 0 -27.2478
    endloop
  endfacet
  facet normal 0 -1 0
    outer loop
      vertex 64.7629 0 -26.5111
      vertex 63.1 0 -27.4
      vertex 64.5142 0 -26.8142
    endloop
  endfacet
  facet normal 0 -1 0
    outer loop
      vertex -2.94 0 -27.4
      vertex -3.70537 0 -27.2478
      vertex -3.33018 0 -27.3616
    endloop
  endfacet
  facet normal 0 -1 0
    outer loop
      vertex 64.5142 0 -26.8142
      vertex 63.1 0 -27.4
      vertex 64.2111 0 -27.0629
    endloop
  endfacet
  facet normal 0 -1 0
    outer loop
      vertex 64.2111 0 -27.0629
      vertex 63.1 0 -27.4
      vertex 63.8654 0 -27.2478
    endloop
  endfacet
  facet normal 0 -1 0
    outer loop
      vertex 63.8654 0 -27.2478
      vertex 63.1 0 -27.4
      vertex 63.4902 0 -27.3616
    endloop
  endfacet
  facet normal 0.995193 -0 0.097938
    outer loop
      vertex 65.0616 0 -19.0098
      vertex 65.1 11.4 -19.4
      vertex 65.0616 11.4 -19.0098
    endloop
  endfacet
  facet normal 0.995193 0 0.097938
    outer loop
      vertex 65.1 11.4 -19.4
      vertex 65.0616 0 -19.0098
      vertex 65.1 0 -19.4
    endloop
  endfacet
  facet normal 0.634321 0 0.77307
    outer loop
      vertex 60.2111 3.094 -13.7371
      vertex 60.5142 0 -13.9858
      vertex 60.5142 3.094 -13.9858
    endloop
  endfacet
  facet normal 0.634321 0 0.77307
    outer loop
      vertex 60.5142 0 -13.9858
      vertex 60.2111 3.094 -13.7371
      vertex 60.2111 0 -13.7371
    endloop
  endfacet
  facet normal 0.471634 0 -0.881795
    outer loop
      vertex 63.8654 0 -27.2478
      vertex 64.2111 11.4 -27.0629
      vertex 64.2111 0 -27.0629
    endloop
  endfacet
  facet normal 0.471634 0 -0.881795
    outer loop
      vertex 64.2111 11.4 -27.0629
      vertex 63.8654 0 -27.2478
      vertex 63.8654 11.4 -27.2478
    endloop
  endfacet
  facet normal 0 -0.990029 0.140866
    outer loop
      vertex 0.459999 1.494 -3.1
      vertex 1.06 0.0284683 -13.4
      vertex 46.84 1.494 -3.1
    endloop
  endfacet
  facet normal 1.05209e-05 -0.990029 0.140866
    outer loop
      vertex 0.459999 1.494 -3.1
      vertex 0.669819 0.0230004 -13.4384
      vertex 1.06 0.0284683 -13.4
    endloop
  endfacet
  facet normal -3.49687e-05 -0.990029 0.140866
    outer loop
      vertex 0.669819 0.0230004 -13.4384
      vertex 0.459999 1.494 -3.1
      vertex 0.459999 0.0139443 -13.5021
    endloop
  endfacet
  facet normal 0 -0.990029 0.140866
    outer loop
      vertex 46.84 1.494 -3.1
      vertex 1.06 0.0284683 -13.4
      vertex 46.84 0.0284683 -13.4
    endloop
  endfacet
  facet normal -0.77307 0 -0.634321
    outer loop
      vertex 61.6858 3.094 -26.8142
      vertex 61.4371 13 -26.5111
      vertex 61.6858 13 -26.8142
    endloop
  endfacet
  facet normal -0.77307 -0 -0.634321
    outer loop
      vertex 61.4371 13 -26.5111
      vertex 61.6858 3.094 -26.8142
      vertex 61.4371 3.094 -26.5111
    endloop
  endfacet
  facet normal -0.956951 0 -0.290248
    outer loop
      vertex 61.2522 3.094 -26.1654
      vertex 61.1384 13 -25.7902
      vertex 61.2522 13 -26.1654
    endloop
  endfacet
  facet normal -0.956951 -0 -0.290248
    outer loop
      vertex 61.1384 13 -25.7902
      vertex 61.2522 3.094 -26.1654
      vertex 61.1384 3.094 -25.7902
    endloop
  endfacet
  facet normal -0.290248 0 -0.956951
    outer loop
      vertex 62.3346 3.094 -27.2478
      vertex 62.7098 13 -27.3616
      vertex 62.7098 3.094 -27.3616
    endloop
  endfacet
  facet normal -0.290248 0 -0.956951
    outer loop
      vertex 62.7098 13 -27.3616
      vertex 62.3346 3.094 -27.2478
      vertex 62.3346 13 -27.2478
    endloop
  endfacet
  facet normal -0.77307 0 0.634321
    outer loop
      vertex 61.4371 3.094 -18.2889
      vertex 61.6858 13 -17.9858
      vertex 61.4371 13 -18.2889
    endloop
  endfacet
  facet normal -0.77307 0 0.634321
    outer loop
      vertex 61.6858 13 -17.9858
      vertex 61.4371 3.094 -18.2889
      vertex 61.6858 3.094 -17.9858
    endloop
  endfacet
  facet normal -1 0 0
    outer loop
      vertex 61.1 3.094 -25.4
      vertex 61.1 13 -19.4
      vertex 61.1 13 -25.4
    endloop
  endfacet
  facet normal -1 -0 0
    outer loop
      vertex 61.1 13 -19.4
      vertex 61.1 3.094 -25.4
      vertex 61.1 3.094 -19.4
    endloop
  endfacet
  facet normal -0.097938 0 -0.995193
    outer loop
      vertex 62.7098 3.094 -27.3616
      vertex 63.1 13 -27.4
      vertex 63.1 3.094 -27.4
    endloop
  endfacet
  facet normal -0.097938 0 -0.995193
    outer loop
      vertex 63.1 13 -27.4
      vertex 62.7098 3.094 -27.3616
      vertex 62.7098 13 -27.3616
    endloop
  endfacet
  facet normal -0.634321 0 0.77307
    outer loop
      vertex 61.6858 13 -17.9858
      vertex 61.9889 3.094 -17.7371
      vertex 61.9889 13 -17.7371
    endloop
  endfacet
  facet normal -0.634321 0 0.77307
    outer loop
      vertex 61.9889 3.094 -17.7371
      vertex 61.6858 13 -17.9858
      vertex 61.6858 3.094 -17.9858
    endloop
  endfacet
  facet normal -0.471634 0 0.881795
    outer loop
      vertex 61.9889 13 -17.7371
      vertex 62.3346 3.094 -17.5522
      vertex 62.3346 13 -17.5522
    endloop
  endfacet
  facet normal -0.471634 0 0.881795
    outer loop
      vertex 62.3346 3.094 -17.5522
      vertex 61.9889 13 -17.7371
      vertex 61.9889 3.094 -17.7371
    endloop
  endfacet
  facet normal 0.290248 0 0.956951
    outer loop
      vertex 63.4902 11.4 -17.4384
      vertex 63.8654 3.094 -17.5522
      vertex 63.8654 11.4 -17.5522
    endloop
  endfacet
  facet normal 0.290248 0 0.956951
    outer loop
      vertex 63.8654 3.094 -17.5522
      vertex 63.4902 11.4 -17.4384
      vertex 63.4902 3.094 -17.4384
    endloop
  endfacet
  facet normal -0.995193 0 -0.097938
    outer loop
      vertex 61.1384 3.094 -25.7902
      vertex 61.1 13 -25.4
      vertex 61.1384 13 -25.7902
    endloop
  endfacet
  facet normal -0.995193 -0 -0.097938
    outer loop
      vertex 61.1 13 -25.4
      vertex 61.1384 3.094 -25.7902
      vertex 61.1 3.094 -25.4
    endloop
  endfacet
  facet normal 0.634321 0 0.77307
    outer loop
      vertex 64.2111 11.4 -17.7371
      vertex 64.5142 3.094 -17.9858
      vertex 64.5142 11.4 -17.9858
    endloop
  endfacet
  facet normal 0.634321 0 0.77307
    outer loop
      vertex 64.5142 3.094 -17.9858
      vertex 64.2111 11.4 -17.7371
      vertex 64.2111 3.094 -17.7371
    endloop
  endfacet
  facet normal -0.995193 0 0.097938
    outer loop
      vertex 61.1 3.094 -19.4
      vertex 61.1384 13 -19.0098
      vertex 61.1 13 -19.4
    endloop
  endfacet
  facet normal -0.995193 0 0.097938
    outer loop
      vertex 61.1384 13 -19.0098
      vertex 61.1 3.094 -19.4
      vertex 61.1384 3.094 -19.0098
    endloop
  endfacet
  facet normal -0.881795 0 -0.471634
    outer loop
      vertex 61.4371 3.094 -26.5111
      vertex 61.2522 13 -26.1654
      vertex 61.4371 13 -26.5111
    endloop
  endfacet
  facet normal -0.881795 -0 -0.471634
    outer loop
      vertex 61.2522 13 -26.1654
      vertex 61.4371 3.094 -26.5111
      vertex 61.2522 3.094 -26.1654
    endloop
  endfacet
  facet normal -0.881795 0 0.471634
    outer loop
      vertex 61.2522 3.094 -18.6346
      vertex 61.4371 13 -18.2889
      vertex 61.2522 13 -18.6346
    endloop
  endfacet
  facet normal -0.881795 0 0.471634
    outer loop
      vertex 61.4371 13 -18.2889
      vertex 61.2522 3.094 -18.6346
      vertex 61.4371 3.094 -18.2889
    endloop
  endfacet
  facet normal -0.097938 0 0.995193
    outer loop
      vertex 62.7098 13 -17.4384
      vertex 63.1 3.094 -17.4
      vertex 63.1 13 -17.4
    endloop
  endfacet
  facet normal -0.097938 0 0.995193
    outer loop
      vertex 63.1 3.094 -17.4
      vertex 62.7098 13 -17.4384
      vertex 62.7098 3.094 -17.4384
    endloop
  endfacet
  facet normal -0.290248 0 0.956951
    outer loop
      vertex 62.3346 13 -17.5522
      vertex 62.7098 3.094 -17.4384
      vertex 62.7098 13 -17.4384
    endloop
  endfacet
  facet normal -0.290248 0 0.956951
    outer loop
      vertex 62.7098 3.094 -17.4384
      vertex 62.3346 13 -17.5522
      vertex 62.3346 3.094 -17.5522
    endloop
  endfacet
  facet normal 0.0975328 0 0.995232
    outer loop
      vertex 63.15 13 -17.4049
      vertex 63.1 13 -17.4
      vertex 63.15 11.4 -17.4049
    endloop
  endfacet
  facet normal 0.0979975 0 0.995187
    outer loop
      vertex 63.15 11.4 -17.4049
      vertex 63.4902 3.094 -17.4384
      vertex 63.4902 11.4 -17.4384
    endloop
  endfacet
  facet normal 0.097938 -2.46265e-06 0.995193
    outer loop
      vertex 63.15 11.4 -17.4049
      vertex 63.1 3.094 -17.4
      vertex 63.4902 3.094 -17.4384
    endloop
  endfacet
  facet normal 0.0975328 -0 0.995232
    outer loop
      vertex 63.1 3.094 -17.4
      vertex 63.15 11.4 -17.4049
      vertex 63.1 13 -17.4
    endloop
  endfacet
  facet normal 0 1 0
    outer loop
      vertex 68.2 13 -19.4
      vertex 63.2 13 -17.4
      vertex 66.2 13 -17.4
    endloop
  endfacet
  facet normal 0 1 0
    outer loop
      vertex 68.2 13 -19.4
      vertex 66.2 13 -17.4
      vertex 66.5902 13 -17.4384
    endloop
  endfacet
  facet normal 0 1 0
    outer loop
      vertex 63.15 13 -17.4049
      vertex 62.7098 13 -17.4384
      vertex 63.1 13 -17.4
    endloop
  endfacet
  facet normal 0 1 0
    outer loop
      vertex 61.1 13 -19.4
      vertex 63.2 13 -17.4
      vertex 68.2 13 -19.4
    endloop
  endfacet
  facet normal 0 1 0
    outer loop
      vertex 68.2 13 -19.4
      vertex 66.5902 13 -17.4384
      vertex 66.9654 13 -17.5522
    endloop
  endfacet
  facet normal 0 1 0
    outer loop
      vertex 63.2 13 -17.4
      vertex 61.1 13 -19.4
      vertex 63.15 13 -17.4049
    endloop
  endfacet
  facet normal 0 1 0
    outer loop
      vertex 68.2 13 -19.4
      vertex 66.9654 13 -17.5522
      vertex 67.3111 13 -17.7371
    endloop
  endfacet
  facet normal 0 1 0
    outer loop
      vertex 63.15 13 -17.4049
      vertex 61.1 13 -19.4
      vertex 62.7098 13 -17.4384
    endloop
  endfacet
  facet normal 0 1 0
    outer loop
      vertex 68.2 13 -19.4
      vertex 67.3111 13 -17.7371
      vertex 67.6142 13 -17.9858
    endloop
  endfacet
  facet normal 0 1 0
    outer loop
      vertex 62.7098 13 -17.4384
      vertex 61.1 13 -19.4
      vertex 62.3346 13 -17.5522
    endloop
  endfacet
  facet normal 0 1 0
    outer loop
      vertex 68.2 13 -19.4
      vertex 67.6142 13 -17.9858
      vertex 67.8629 13 -18.2889
    endloop
  endfacet
  facet normal 0 1 0
    outer loop
      vertex 62.3346 13 -17.5522
      vertex 61.1 13 -19.4
      vertex 61.9889 13 -17.7371
    endloop
  endfacet
  facet normal 0 1 0
    outer loop
      vertex 68.2 13 -19.4
      vertex 67.8629 13 -18.2889
      vertex 68.0478 13 -18.6346
    endloop
  endfacet
  facet normal 0 1 0
    outer loop
      vertex 61.9889 13 -17.7371
      vertex 61.1 13 -19.4
      vertex 61.6858 13 -17.9858
    endloop
  endfacet
  facet normal 0 1 0
    outer loop
      vertex 68.2 13 -19.4
      vertex 68.0478 13 -18.6346
      vertex 68.1616 13 -19.0098
    endloop
  endfacet
  facet normal 0 1 0
    outer loop
      vertex 61.6858 13 -17.9858
      vertex 61.1 13 -19.4
      vertex 61.4371 13 -18.2889
    endloop
  endfacet
  facet normal 0 1 0
    outer loop
      vertex 61.4371 13 -18.2889
      vertex 61.1 13 -19.4
      vertex 61.2522 13 -18.6346
    endloop
  endfacet
  facet normal 0 1 0
    outer loop
      vertex 61.2522 13 -18.6346
      vertex 61.1 13 -19.4
      vertex 61.1384 13 -19.0098
    endloop
  endfacet
  facet normal 0 1 -0
    outer loop
      vertex 68.2 13 -25.4
      vertex 61.1 13 -19.4
      vertex 68.2 13 -19.4
    endloop
  endfacet
  facet normal 0 1 0
    outer loop
      vertex 68.2 13 -25.4
      vertex 61.1 13 -25.4
      vertex 61.1 13 -19.4
    endloop
  endfacet
  facet normal 0 1 0
    outer loop
      vertex 66.2 13 -27.4
      vertex 68.2 13 -25.4
      vertex 68.1616 13 -25.7902
    endloop
  endfacet
  facet normal 0 1 0
    outer loop
      vertex 63.2 13 -27.4
      vertex 68.2 13 -25.4
      vertex 66.2 13 -27.4
    endloop
  endfacet
  facet normal 0 1 0
    outer loop
      vertex 66.2 13 -27.4
      vertex 68.1616 13 -25.7902
      vertex 68.0478 13 -26.1654
    endloop
  endfacet
  facet normal 0 1 0
    outer loop
      vertex 68.2 13 -25.4
      vertex 63.2 13 -27.4
      vertex 61.1 13 -25.4
    endloop
  endfacet
  facet normal 0 1 0
    outer loop
      vertex 66.2 13 -27.4
      vertex 68.0478 13 -26.1654
      vertex 67.8629 13 -26.5111
    endloop
  endfacet
  facet normal -0 1 -0
    outer loop
      vertex 63.15 13 -27.3951
      vertex 61.1 13 -25.4
      vertex 63.2 13 -27.4
    endloop
  endfacet
  facet normal 0 1 0
    outer loop
      vertex 66.2 13 -27.4
      vertex 67.8629 13 -26.5111
      vertex 67.6142 13 -26.8142
    endloop
  endfacet
  facet normal 0 1 0
    outer loop
      vertex 61.1 13 -25.4
      vertex 63.15 13 -27.3951
      vertex 61.1384 13 -25.7902
    endloop
  endfacet
  facet normal 0 1 0
    outer loop
      vertex 66.2 13 -27.4
      vertex 67.6142 13 -26.8142
      vertex 67.3111 13 -27.0629
    endloop
  endfacet
  facet normal 0 1 0
    outer loop
      vertex 61.1384 13 -25.7902
      vertex 63.15 13 -27.3951
      vertex 61.2522 13 -26.1654
    endloop
  endfacet
  facet normal 0 1 0
    outer loop
      vertex 66.2 13 -27.4
      vertex 67.3111 13 -27.0629
      vertex 66.9654 13 -27.2478
    endloop
  endfacet
  facet normal 0 1 0
    outer loop
      vertex 61.2522 13 -26.1654
      vertex 63.15 13 -27.3951
      vertex 61.4371 13 -26.5111
    endloop
  endfacet
  facet normal 0 1 0
    outer loop
      vertex 66.2 13 -27.4
      vertex 66.9654 13 -27.2478
      vertex 66.5902 13 -27.3616
    endloop
  endfacet
  facet normal 0 1 0
    outer loop
      vertex 61.4371 13 -26.5111
      vertex 63.15 13 -27.3951
      vertex 61.6858 13 -26.8142
    endloop
  endfacet
  facet normal 0 1 0
    outer loop
      vertex 62.3346 13 -27.2478
      vertex 63.15 13 -27.3951
      vertex 62.7098 13 -27.3616
    endloop
  endfacet
  facet normal 0 1 0
    outer loop
      vertex 61.6858 13 -26.8142
      vertex 63.15 13 -27.3951
      vertex 61.9889 13 -27.0629
    endloop
  endfacet
  facet normal 0 1 0
    outer loop
      vertex 61.9889 13 -27.0629
      vertex 63.15 13 -27.3951
      vertex 62.3346 13 -27.2478
    endloop
  endfacet
  facet normal 0 1 0
    outer loop
      vertex 62.7098 13 -27.3616
      vertex 63.15 13 -27.3951
      vertex 63.1 13 -27.4
    endloop
  endfacet
  facet normal -0.634321 0 -0.77307
    outer loop
      vertex 61.6858 3.094 -26.8142
      vertex 61.9889 13 -27.0629
      vertex 61.9889 3.094 -27.0629
    endloop
  endfacet
  facet normal -0.634321 0 -0.77307
    outer loop
      vertex 61.9889 13 -27.0629
      vertex 61.6858 3.094 -26.8142
      vertex 61.6858 13 -26.8142
    endloop
  endfacet
  facet normal -0.471634 0 -0.881795
    outer loop
      vertex 61.9889 3.094 -27.0629
      vertex 62.3346 13 -27.2478
      vertex 62.3346 3.094 -27.2478
    endloop
  endfacet
  facet normal -0.471634 0 -0.881795
    outer loop
      vertex 62.3346 13 -27.2478
      vertex 61.9889 3.094 -27.0629
      vertex 61.9889 13 -27.0629
    endloop
  endfacet
  facet normal -0.956951 0 0.290248
    outer loop
      vertex 61.1384 3.094 -19.0098
      vertex 61.2522 13 -18.6346
      vertex 61.1384 13 -19.0098
    endloop
  endfacet
  facet normal -0.956951 0 0.290248
    outer loop
      vertex 61.2522 13 -18.6346
      vertex 61.1384 3.094 -19.0098
      vertex 61.2522 3.094 -18.6346
    endloop
  endfacet
  facet normal 0.471634 0 0.881795
    outer loop
      vertex 63.8654 11.4 -17.5522
      vertex 64.2111 3.094 -17.7371
      vertex 64.2111 11.4 -17.7371
    endloop
  endfacet
  facet normal 0.471634 0 0.881795
    outer loop
      vertex 64.2111 3.094 -17.7371
      vertex 63.8654 11.4 -17.5522
      vertex 63.8654 3.094 -17.5522
    endloop
  endfacet
  facet normal 0.881795 -0 0.471634
    outer loop
      vertex 67.8629 11.4 -18.2889
      vertex 68.0478 13 -18.6346
      vertex 67.8629 13 -18.2889
    endloop
  endfacet
  facet normal 0.881795 0 0.471634
    outer loop
      vertex 68.0478 13 -18.6346
      vertex 67.8629 11.4 -18.2889
      vertex 68.0478 11.4 -18.6346
    endloop
  endfacet
  facet normal 0.290248 0 0.956951
    outer loop
      vertex 66.5902 13 -17.4384
      vertex 66.9654 11.4 -17.5522
      vertex 66.9654 13 -17.5522
    endloop
  endfacet
  facet normal 0.290248 0 0.956951
    outer loop
      vertex 66.9654 11.4 -17.5522
      vertex 66.5902 13 -17.4384
      vertex 66.5902 11.4 -17.4384
    endloop
  endfacet
  facet normal 1 -0 0
    outer loop
      vertex 68.2 11.4 -19.4
      vertex 68.2 13 -25.4
      vertex 68.2 13 -19.4
    endloop
  endfacet
  facet normal 1 0 0
    outer loop
      vertex 68.2 13 -25.4
      vertex 68.2 11.4 -19.4
      vertex 68.2 11.4 -25.4
    endloop
  endfacet
  facet normal 0.77307 0 -0.634321
    outer loop
      vertex 67.8629 11.4 -26.5111
      vertex 67.6142 13 -26.8142
      vertex 67.8629 13 -26.5111
    endloop
  endfacet
  facet normal 0.77307 0 -0.634321
    outer loop
      vertex 67.6142 13 -26.8142
      vertex 67.8629 11.4 -26.5111
      vertex 67.6142 11.4 -26.8142
    endloop
  endfacet
  facet normal 0.471634 0 0.881795
    outer loop
      vertex 66.9654 13 -17.5522
      vertex 67.3111 11.4 -17.7371
      vertex 67.3111 13 -17.7371
    endloop
  endfacet
  facet normal 0.471634 0 0.881795
    outer loop
      vertex 67.3111 11.4 -17.7371
      vertex 66.9654 13 -17.5522
      vertex 66.9654 11.4 -17.5522
    endloop
  endfacet
  facet normal 0.956951 -0 0.290248
    outer loop
      vertex 68.0478 11.4 -18.6346
      vertex 68.1616 13 -19.0098
      vertex 68.0478 13 -18.6346
    endloop
  endfacet
  facet normal 0.956951 0 0.290248
    outer loop
      vertex 68.1616 13 -19.0098
      vertex 68.0478 11.4 -18.6346
      vertex 68.1616 11.4 -19.0098
    endloop
  endfacet
  facet normal -0 0 1
    outer loop
      vertex 63.2 13 -17.4
      vertex 66.2 11.4 -17.4
      vertex 66.2 13 -17.4
    endloop
  endfacet
  facet normal 0 0 1
    outer loop
      vertex 66.2 11.4 -17.4
      vertex 63.2 13 -17.4
      vertex 63.2 11.4 -17.4
    endloop
  endfacet
  facet normal 0.634321 0 -0.77307
    outer loop
      vertex 67.3111 11.4 -27.0629
      vertex 67.6142 13 -26.8142
      vertex 67.6142 11.4 -26.8142
    endloop
  endfacet
  facet normal 0.634321 0 -0.77307
    outer loop
      vertex 67.6142 13 -26.8142
      vertex 67.3111 11.4 -27.0629
      vertex 67.3111 13 -27.0629
    endloop
  endfacet
  facet normal 0.956951 0 -0.290248
    outer loop
      vertex 68.1616 11.4 -25.7902
      vertex 68.0478 13 -26.1654
      vertex 68.1616 13 -25.7902
    endloop
  endfacet
  facet normal 0.956951 0 -0.290248
    outer loop
      vertex 68.0478 13 -26.1654
      vertex 68.1616 11.4 -25.7902
      vertex 68.0478 11.4 -26.1654
    endloop
  endfacet
  facet normal 0.471634 0 -0.881795
    outer loop
      vertex 66.9654 11.4 -27.2478
      vertex 67.3111 13 -27.0629
      vertex 67.3111 11.4 -27.0629
    endloop
  endfacet
  facet normal 0.471634 0 -0.881795
    outer loop
      vertex 67.3111 13 -27.0629
      vertex 66.9654 11.4 -27.2478
      vertex 66.9654 13 -27.2478
    endloop
  endfacet
  facet normal 0.290248 0 -0.956951
    outer loop
      vertex 66.5902 11.4 -27.3616
      vertex 66.9654 13 -27.2478
      vertex 66.9654 11.4 -27.2478
    endloop
  endfacet
  facet normal 0.290248 0 -0.956951
    outer loop
      vertex 66.9654 13 -27.2478
      vertex 66.5902 11.4 -27.3616
      vertex 66.5902 13 -27.3616
    endloop
  endfacet
  facet normal -0.0975328 0 -0.995232
    outer loop
      vertex 63.15 11.4 -27.3951
      vertex 63.2 13 -27.4
      vertex 63.2 11.4 -27.4
    endloop
  endfacet
  facet normal -0.0975328 0 -0.995232
    outer loop
      vertex 63.2 13 -27.4
      vertex 63.15 11.4 -27.3951
      vertex 63.15 13 -27.3951
    endloop
  endfacet
  facet normal 0.995193 -0 0.097938
    outer loop
      vertex 68.1616 11.4 -19.0098
      vertex 68.2 13 -19.4
      vertex 68.1616 13 -19.0098
    endloop
  endfacet
  facet normal 0.995193 0 0.097938
    outer loop
      vertex 68.2 13 -19.4
      vertex 68.1616 11.4 -19.0098
      vertex 68.2 11.4 -19.4
    endloop
  endfacet
  facet normal -0.0975328 0 0.995232
    outer loop
      vertex 63.15 13 -17.4049
      vertex 63.2 11.4 -17.4
      vertex 63.2 13 -17.4
    endloop
  endfacet
  facet normal -0.0975328 0 0.995232
    outer loop
      vertex 63.2 11.4 -17.4
      vertex 63.15 13 -17.4049
      vertex 63.15 11.4 -17.4049
    endloop
  endfacet
  facet normal 0.881795 0 -0.471634
    outer loop
      vertex 68.0478 11.4 -26.1654
      vertex 67.8629 13 -26.5111
      vertex 68.0478 13 -26.1654
    endloop
  endfacet
  facet normal 0.881795 0 -0.471634
    outer loop
      vertex 67.8629 13 -26.5111
      vertex 68.0478 11.4 -26.1654
      vertex 67.8629 11.4 -26.5111
    endloop
  endfacet
  facet normal 0.097938 0 -0.995193
    outer loop
      vertex 66.2 11.4 -27.4
      vertex 66.5902 13 -27.3616
      vertex 66.5902 11.4 -27.3616
    endloop
  endfacet
  facet normal 0.097938 0 -0.995193
    outer loop
      vertex 66.5902 13 -27.3616
      vertex 66.2 11.4 -27.4
      vertex 66.2 13 -27.4
    endloop
  endfacet
  facet normal 0.995193 0 -0.097938
    outer loop
      vertex 68.2 11.4 -25.4
      vertex 68.1616 13 -25.7902
      vertex 68.2 13 -25.4
    endloop
  endfacet
  facet normal 0.995193 0 -0.097938
    outer loop
      vertex 68.1616 13 -25.7902
      vertex 68.2 11.4 -25.4
      vertex 68.1616 11.4 -25.7902
    endloop
  endfacet
  facet normal 0 -1 0
    outer loop
      vertex 63.4902 11.4 -17.4384
      vertex 63.2 11.4 -17.4
      vertex 63.15 11.4 -17.4049
    endloop
  endfacet
  facet normal 0 -1 0
    outer loop
      vertex 63.2 11.4 -17.4
      vertex 63.4902 11.4 -17.4384
      vertex 66.2 11.4 -17.4
    endloop
  endfacet
  facet normal 0 -1 0
    outer loop
      vertex 63.8654 11.4 -17.5522
      vertex 66.2 11.4 -17.4
      vertex 63.4902 11.4 -17.4384
    endloop
  endfacet
  facet normal 0 -1 0
    outer loop
      vertex 64.2111 11.4 -17.7371
      vertex 66.2 11.4 -17.4
      vertex 63.8654 11.4 -17.5522
    endloop
  endfacet
  facet normal 0 -1 0
    outer loop
      vertex 64.5142 11.4 -17.9858
      vertex 66.2 11.4 -17.4
      vertex 64.2111 11.4 -17.7371
    endloop
  endfacet
  facet normal 0 -1 0
    outer loop
      vertex 64.7629 11.4 -18.2889
      vertex 66.2 11.4 -17.4
      vertex 64.5142 11.4 -17.9858
    endloop
  endfacet
  facet normal 0 -1 0
    outer loop
      vertex 64.9478 11.4 -18.6346
      vertex 66.2 11.4 -17.4
      vertex 64.7629 11.4 -18.2889
    endloop
  endfacet
  facet normal 0 -1 0
    outer loop
      vertex 65.0616 11.4 -19.0098
      vertex 66.2 11.4 -17.4
      vertex 64.9478 11.4 -18.6346
    endloop
  endfacet
  facet normal 0 -1 -0
    outer loop
      vertex 66.2 11.4 -17.4
      vertex 65.0616 11.4 -19.0098
      vertex 66.5902 11.4 -17.4384
    endloop
  endfacet
  facet normal 0 -1 -0
    outer loop
      vertex 66.5902 11.4 -17.4384
      vertex 65.0616 11.4 -19.0098
      vertex 66.9654 11.4 -17.5522
    endloop
  endfacet
  facet normal 0 -1 -0
    outer loop
      vertex 66.9654 11.4 -17.5522
      vertex 65.0616 11.4 -19.0098
      vertex 67.3111 11.4 -17.7371
    endloop
  endfacet
  facet normal 0 -1 -0
    outer loop
      vertex 67.3111 11.4 -17.7371
      vertex 65.0616 11.4 -19.0098
      vertex 67.6142 11.4 -17.9858
    endloop
  endfacet
  facet normal 0 -1 0
    outer loop
      vertex 65.1 11.4 -19.4
      vertex 67.6142 11.4 -17.9858
      vertex 65.0616 11.4 -19.0098
    endloop
  endfacet
  facet normal 0 -1 -0
    outer loop
      vertex 67.6142 11.4 -17.9858
      vertex 65.1 11.4 -19.4
      vertex 67.8629 11.4 -18.2889
    endloop
  endfacet
  facet normal 0 -1 -0
    outer loop
      vertex 67.8629 11.4 -18.2889
      vertex 65.1 11.4 -19.4
      vertex 68.0478 11.4 -18.6346
    endloop
  endfacet
  facet normal 0 -1 -0
    outer loop
      vertex 68.0478 11.4 -18.6346
      vertex 65.1 11.4 -19.4
      vertex 68.1616 11.4 -19.0098
    endloop
  endfacet
  facet normal 0 -1 0
    outer loop
      vertex 65.1 11.4 -19.4
      vertex 68.2 11.4 -19.4
      vertex 68.1616 11.4 -19.0098
    endloop
  endfacet
  facet normal 0 -1 0
    outer loop
      vertex 65.1 11.4 -25.4
      vertex 68.2 11.4 -19.4
      vertex 65.1 11.4 -19.4
    endloop
  endfacet
  facet normal 0 -1 0
    outer loop
      vertex 65.1 11.4 -25.4
      vertex 68.2 11.4 -25.4
      vertex 68.2 11.4 -19.4
    endloop
  endfacet
  facet normal 0 -1 0
    outer loop
      vertex 67.6142 11.4 -26.8142
      vertex 65.1 11.4 -25.4
      vertex 65.0616 11.4 -25.7902
    endloop
  endfacet
  facet normal 0 -1 0
    outer loop
      vertex 65.1 11.4 -25.4
      vertex 68.1616 11.4 -25.7902
      vertex 68.2 11.4 -25.4
    endloop
  endfacet
  facet normal 0 -1 0
    outer loop
      vertex 66.2 11.4 -27.4
      vertex 65.0616 11.4 -25.7902
      vertex 64.9478 11.4 -26.1654
    endloop
  endfacet
  facet normal 0 -1 0
    outer loop
      vertex 65.1 11.4 -25.4
      vertex 68.0478 11.4 -26.1654
      vertex 68.1616 11.4 -25.7902
    endloop
  endfacet
  facet normal 0 -1 0
    outer loop
      vertex 66.2 11.4 -27.4
      vertex 64.9478 11.4 -26.1654
      vertex 64.7629 11.4 -26.5111
    endloop
  endfacet
  facet normal 0 -1 0
    outer loop
      vertex 65.1 11.4 -25.4
      vertex 67.8629 11.4 -26.5111
      vertex 68.0478 11.4 -26.1654
    endloop
  endfacet
  facet normal 0 -1 0
    outer loop
      vertex 66.2 11.4 -27.4
      vertex 64.7629 11.4 -26.5111
      vertex 64.5142 11.4 -26.8142
    endloop
  endfacet
  facet normal 0 -1 0
    outer loop
      vertex 65.0616 11.4 -25.7902
      vertex 66.2 11.4 -27.4
      vertex 66.5902 11.4 -27.3616
    endloop
  endfacet
  facet normal 0 -1 0
    outer loop
      vertex 66.2 11.4 -27.4
      vertex 64.5142 11.4 -26.8142
      vertex 64.2111 11.4 -27.0629
    endloop
  endfacet
  facet normal 0 -1 0
    outer loop
      vertex 65.1 11.4 -25.4
      vertex 67.6142 11.4 -26.8142
      vertex 67.8629 11.4 -26.5111
    endloop
  endfacet
  facet normal 0 -1 0
    outer loop
      vertex 66.2 11.4 -27.4
      vertex 64.2111 11.4 -27.0629
      vertex 63.8654 11.4 -27.2478
    endloop
  endfacet
  facet normal 0 -1 0
    outer loop
      vertex 65.0616 11.4 -25.7902
      vertex 67.3111 11.4 -27.0629
      vertex 67.6142 11.4 -26.8142
    endloop
  endfacet
  facet normal 0 -1 0
    outer loop
      vertex 66.2 11.4 -27.4
      vertex 63.8654 11.4 -27.2478
      vertex 63.4902 11.4 -27.3616
    endloop
  endfacet
  facet normal 0 -1 0
    outer loop
      vertex 65.0616 11.4 -25.7902
      vertex 66.9654 11.4 -27.2478
      vertex 67.3111 11.4 -27.0629
    endloop
  endfacet
  facet normal 0 -1 0
    outer loop
      vertex 63.2 11.4 -27.4
      vertex 63.4902 11.4 -27.3616
      vertex 63.15 11.4 -27.3951
    endloop
  endfacet
  facet normal 0 -1 0
    outer loop
      vertex 66.2 11.4 -27.4
      vertex 63.4902 11.4 -27.3616
      vertex 63.2 11.4 -27.4
    endloop
  endfacet
  facet normal 0 -1 0
    outer loop
      vertex 65.0616 11.4 -25.7902
      vertex 66.5902 11.4 -27.3616
      vertex 66.9654 11.4 -27.2478
    endloop
  endfacet
  facet normal 0 0 -1
    outer loop
      vertex 63.2 11.4 -27.4
      vertex 66.2 13 -27.4
      vertex 66.2 11.4 -27.4
    endloop
  endfacet
  facet normal -0 0 -1
    outer loop
      vertex 66.2 13 -27.4
      vertex 63.2 11.4 -27.4
      vertex 63.2 13 -27.4
    endloop
  endfacet
  facet normal 0.77307 -0 0.634321
    outer loop
      vertex 67.6142 11.4 -17.9858
      vertex 67.8629 13 -18.2889
      vertex 67.6142 13 -17.9858
    endloop
  endfacet
  facet normal 0.77307 0 0.634321
    outer loop
      vertex 67.8629 13 -18.2889
      vertex 67.6142 11.4 -17.9858
      vertex 67.8629 11.4 -18.2889
    endloop
  endfacet
  facet normal 0.097938 0 0.995193
    outer loop
      vertex 66.2 13 -17.4
      vertex 66.5902 11.4 -17.4384
      vertex 66.5902 13 -17.4384
    endloop
  endfacet
  facet normal 0.097938 0 0.995193
    outer loop
      vertex 66.5902 11.4 -17.4384
      vertex 66.2 13 -17.4
      vertex 66.2 11.4 -17.4
    endloop
  endfacet
  facet normal 0.634321 0 0.77307
    outer loop
      vertex 67.3111 13 -17.7371
      vertex 67.6142 11.4 -17.9858
      vertex 67.6142 13 -17.9858
    endloop
  endfacet
  facet normal 0.634321 0 0.77307
    outer loop
      vertex 67.6142 11.4 -17.9858
      vertex 67.3111 13 -17.7371
      vertex 67.3111 11.4 -17.7371
    endloop
  endfacet
  facet normal -0.984808 0 0.173647
    outer loop
      vertex 9.2 1 -21.6027
      vertex 9.67846 3.094 -18.8892
      vertex 9.2 3.094 -21.6027
    endloop
  endfacet
  facet normal -0.984808 0 0.173647
    outer loop
      vertex 9.67846 3.094 -18.8892
      vertex 9.2 1 -21.6027
      vertex 9.67846 1 -18.8892
    endloop
  endfacet
  facet normal 0.984808 0 -0.173648
    outer loop
      vertex 1.8 1 -17.5
      vertex 1.20049 3.094 -20.9
      vertex 1.8 3.094 -17.5
    endloop
  endfacet
  facet normal 0.984808 0 -0.173648
    outer loop
      vertex 1.20049 3.094 -20.9
      vertex 1.8 1 -17.5
      vertex 1.20049 1 -20.9
    endloop
  endfacet
  facet normal 0 1 -0
    outer loop
      vertex 9.2 1 -21.6027
      vertex 1.8 1 -17.5
      vertex 9.67846 1 -18.8892
    endloop
  endfacet
  facet normal 0 1 0
    outer loop
      vertex 1.8 1 -17.5
      vertex 9.2 1 -21.6027
      vertex 1.20049 1 -20.9
    endloop
  endfacet
  facet normal 0 1 0
    outer loop
      vertex 1.2 1 -27.4
      vertex 1.20049 1 -20.9
      vertex 9.2 1 -21.6027
    endloop
  endfacet
  facet normal 0 1 0
    outer loop
      vertex 1.2 1 -27.4
      vertex 9.2 1 -21.6027
      vertex 9.2 1 -27.4
    endloop
  endfacet
  facet normal 0 1 0
    outer loop
      vertex 1.20049 1 -20.9
      vertex 1.2 1 -27.4
      vertex 1.2 1 -20.9
    endloop
  endfacet
  facet normal -0.17365 0 -0.984807
    outer loop
      vertex 1.8 1 -17.5
      vertex 9.67846 3.094 -18.8892
      vertex 9.67846 1 -18.8892
    endloop
  endfacet
  facet normal -0.17365 0 -0.984807
    outer loop
      vertex 9.67846 3.094 -18.8892
      vertex 1.8 1 -17.5
      vertex 1.8 3.094 -17.5
    endloop
  endfacet
  facet normal -1 0 0
    outer loop
      vertex 9.2 1 -27.4
      vertex 9.2 3.094 -21.6027
      vertex 9.2 3.094 -27.4
    endloop
  endfacet
  facet normal -1 -0 0
    outer loop
      vertex 9.2 3.094 -21.6027
      vertex 9.2 1 -27.4
      vertex 9.2 1 -21.6027
    endloop
  endfacet
  facet normal 1 -0 0
    outer loop
      vertex 1.2 1 -20.9
      vertex 1.2 3.094 -27.4
      vertex 1.2 3.094 -20.9
    endloop
  endfacet
  facet normal 1 0 0
    outer loop
      vertex 1.2 3.094 -27.4
      vertex 1.2 1 -20.9
      vertex 1.2 1 -27.4
    endloop
  endfacet
  facet normal 0 0 -1
    outer loop
      vertex 1.2 1 -20.9
      vertex 1.20049 3.094 -20.9
      vertex 1.20049 1 -20.9
    endloop
  endfacet
  facet normal -0 0 -1
    outer loop
      vertex 1.20049 3.094 -20.9
      vertex 1.2 1 -20.9
      vertex 1.2 3.094 -20.9
    endloop
  endfacet
  facet normal -0.984804 0 0.17367
    outer loop
      vertex 59.5 1 -24.0355
      vertex 59.8785 3.094 -21.8892
      vertex 59.5 3.094 -24.0355
    endloop
  endfacet
  facet normal -0.984804 0 0.17367
    outer loop
      vertex 59.8785 3.094 -21.8892
      vertex 59.5 1 -24.0355
      vertex 59.8785 1 -21.8892
    endloop
  endfacet
  facet normal 0.984809 0 -0.173643
    outer loop
      vertex 52 1 -20.5
      vertex 51.5063 3.094 -23.3
      vertex 52 3.094 -20.5
    endloop
  endfacet
  facet normal 0.984809 0 -0.173643
    outer loop
      vertex 51.5063 3.094 -23.3
      vertex 52 1 -20.5
      vertex 51.5063 1 -23.3
    endloop
  endfacet
  facet normal 0.984637 0 -0.174615
    outer loop
      vertex 51.5 1 -23.3356
      vertex 51.4964 3.094 -23.3559
      vertex 51.5 3.094 -23.3356
    endloop
  endfacet
  facet normal 0.984637 0 -0.174615
    outer loop
      vertex 51.4964 3.094 -23.3559
      vertex 51.5 1 -23.3356
      vertex 51.4964 1 -23.3559
    endloop
  endfacet
  facet normal 0.19087 0 0.981615
    outer loop
      vertex 51.4964 3.094 -23.3559
      vertex 51.5 1 -23.3566
      vertex 51.5 3.094 -23.3566
    endloop
  endfacet
  facet normal 0.19087 0 0.981615
    outer loop
      vertex 51.5 1 -23.3566
      vertex 51.4964 3.094 -23.3559
      vertex 51.4964 1 -23.3559
    endloop
  endfacet
  facet normal 0 1 -0
    outer loop
      vertex 59.5 1 -24.0355
      vertex 52 1 -20.5
      vertex 59.8785 1 -21.8892
    endloop
  endfacet
  facet normal 0 1 0
    outer loop
      vertex 51.5063 1 -23.3
      vertex 51.5 1 -23.3356
      vertex 51.5 1 -23.3
    endloop
  endfacet
  facet normal 0 1 0
    outer loop
      vertex 52 1 -20.5
      vertex 59.5 1 -24.0355
      vertex 51.5063 1 -23.3
    endloop
  endfacet
  facet normal -0 1 0
    outer loop
      vertex 51.5 1 -23.3566
      vertex 51.5063 1 -23.3
      vertex 59.5 1 -24.0355
    endloop
  endfacet
  facet normal 0 1 0
    outer loop
      vertex 51.5 1 -23.3356
      vertex 51.5 1 -23.3566
      vertex 51.4964 1 -23.3559
    endloop
  endfacet
  facet normal 0 1 0
    outer loop
      vertex 51.5063 1 -23.3
      vertex 51.5 1 -23.3566
      vertex 51.5 1 -23.3356
    endloop
  endfacet
  facet normal 0 1 0
    outer loop
      vertex 51.5 1 -27.4
      vertex 59.5 1 -24.0355
      vertex 59.5 1 -27.4
    endloop
  endfacet
  facet normal 0 1 0
    outer loop
      vertex 59.5 1 -24.0355
      vertex 51.5 1 -27.4
      vertex 51.5 1 -23.3566
    endloop
  endfacet
  facet normal -0.173649 0 -0.984808
    outer loop
      vertex 52 1 -20.5
      vertex 59.8785 3.094 -21.8892
      vertex 59.8785 1 -21.8892
    endloop
  endfacet
  facet normal -0.173649 0 -0.984808
    outer loop
      vertex 59.8785 3.094 -21.8892
      vertex 52 1 -20.5
      vertex 52 3.094 -20.5
    endloop
  endfacet
  facet normal -1 0 0
    outer loop
      vertex 59.5 1 -27.4
      vertex 59.5 3.094 -24.0355
      vertex 59.5 3.094 -27.4
    endloop
  endfacet
  facet normal -1 -0 0
    outer loop
      vertex 59.5 3.094 -24.0355
      vertex 59.5 1 -27.4
      vertex 59.5 1 -24.0355
    endloop
  endfacet
  facet normal 1 -0 0
    outer loop
      vertex 51.5 1 -23.3
      vertex 51.5 3.094 -23.3356
      vertex 51.5 3.094 -23.3
    endloop
  endfacet
  facet normal 1 0 0
    outer loop
      vertex 51.5 3.094 -23.3356
      vertex 51.5 1 -23.3
      vertex 51.5 1 -23.3356
    endloop
  endfacet
  facet normal 1 -0 0
    outer loop
      vertex 51.5 1 -23.3566
      vertex 51.5 3.094 -27.4
      vertex 51.5 3.094 -23.3566
    endloop
  endfacet
  facet normal 1 0 0
    outer loop
      vertex 51.5 3.094 -27.4
      vertex 51.5 1 -23.3566
      vertex 51.5 1 -27.4
    endloop
  endfacet
  facet normal 0 0 -1
    outer loop
      vertex 51.5 1 -23.3
      vertex 51.5063 3.094 -23.3
      vertex 51.5063 1 -23.3
    endloop
  endfacet
  facet normal -0 0 -1
    outer loop
      vertex 51.5063 3.094 -23.3
      vertex 51.5 1 -23.3
      vertex 51.5 3.094 -23.3
    endloop
  endfacet
endsolid OpenSCAD_Model
