solid OpenSCAD_Model
  facet normal 1 0 0
    outer loop
      vertex 46.84 0.0999994 3.09849
      vertex 46.84 -0.932324 1.54999
      vertex 46.84 0.0999994 0.00150061
    endloop
  endfacet
  facet normal 1 0 0
    outer loop
      vertex 46.84 0.0999994 3.09849
      vertex 46.84 23.142 3.1
      vertex 46.84 0.0999994 3.1
    endloop
  endfacet
  facet normal 1 0 0
    outer loop
      vertex 46.84 23.142 3.1
      vertex 46.84 0.0999994 3.09849
      vertex 46.84 23.142 0
    endloop
  endfacet
  facet normal 1 -0 0
    outer loop
      vertex 46.84 0.0999994 0.00150061
      vertex 46.84 23.142 0
      vertex 46.84 0.0999994 3.09849
    endloop
  endfacet
  facet normal 1 0 0
    outer loop
      vertex 46.84 23.142 0
      vertex 46.84 0.0999994 0.00150061
      vertex 46.84 0.0999994 0
    endloop
  endfacet
  facet normal 0 0 1
    outer loop
      vertex 75.3 33.142 3.1
      vertex 77.3 31.142 3.1
      vertex 77.2616 31.5322 3.1
    endloop
  endfacet
  facet normal 0 0 1
    outer loop
      vertex 77.3 31.142 3.1
      vertex 75.3 33.142 3.1
      vertex 77.3 25.142 3.1
    endloop
  endfacet
  facet normal 0 0 1
    outer loop
      vertex 75.3 33.142 3.1
      vertex 77.2616 31.5322 3.1
      vertex 77.1478 31.9074 3.1
    endloop
  endfacet
  facet normal 0 0 1
    outer loop
      vertex 75.3 23.142 3.1
      vertex 77.3 25.142 3.1
      vertex 75.3 33.142 3.1
    endloop
  endfacet
  facet normal 0 0 1
    outer loop
      vertex 75.3 33.142 3.1
      vertex 77.1478 31.9074 3.1
      vertex 76.9629 32.2531 3.1
    endloop
  endfacet
  facet normal 0 0 1
    outer loop
      vertex 77.3 25.142 3.1
      vertex 75.3 23.142 3.1
      vertex 77.2616 24.7518 3.1
    endloop
  endfacet
  facet normal 0 0 1
    outer loop
      vertex 75.3 33.142 3.1
      vertex 76.9629 32.2531 3.1
      vertex 76.7142 32.5562 3.1
    endloop
  endfacet
  facet normal 0 0 1
    outer loop
      vertex 77.2616 24.7518 3.1
      vertex 75.3 23.142 3.1
      vertex 77.1478 24.3766 3.1
    endloop
  endfacet
  facet normal 0 0 1
    outer loop
      vertex 75.3 33.142 3.1
      vertex 76.7142 32.5562 3.1
      vertex 76.4111 32.8049 3.1
    endloop
  endfacet
  facet normal 0 0 1
    outer loop
      vertex 77.1478 24.3766 3.1
      vertex 75.3 23.142 3.1
      vertex 76.9629 24.0309 3.1
    endloop
  endfacet
  facet normal 0 0 1
    outer loop
      vertex 75.3 33.142 3.1
      vertex 76.4111 32.8049 3.1
      vertex 76.0654 32.9898 3.1
    endloop
  endfacet
  facet normal 0 0 1
    outer loop
      vertex 76.9629 24.0309 3.1
      vertex 75.3 23.142 3.1
      vertex 76.7142 23.7278 3.1
    endloop
  endfacet
  facet normal 0 0 1
    outer loop
      vertex 75.3 33.142 3.1
      vertex 76.0654 32.9898 3.1
      vertex 75.6902 33.1036 3.1
    endloop
  endfacet
  facet normal 0 0 1
    outer loop
      vertex 76.7142 23.7278 3.1
      vertex 75.3 23.142 3.1
      vertex 76.4111 23.4791 3.1
    endloop
  endfacet
  facet normal 0 0 1
    outer loop
      vertex 76.4111 23.4791 3.1
      vertex 75.3 23.142 3.1
      vertex 76.0654 23.2942 3.1
    endloop
  endfacet
  facet normal 0 0 1
    outer loop
      vertex 76.0654 23.2942 3.1
      vertex 75.3 23.142 3.1
      vertex 75.6902 23.1804 3.1
    endloop
  endfacet
  facet normal 0 0 1
    outer loop
      vertex 75.3 33.142 3.1
      vertex 65.3 31.142 3.1
      vertex 75.3 23.142 3.1
    endloop
  endfacet
  facet normal 0 0 1
    outer loop
      vertex 75.3 33.142 3.1
      vertex 65.2616 31.5322 3.1
      vertex 65.3 31.142 3.1
    endloop
  endfacet
  facet normal 0 0 1
    outer loop
      vertex 75.3 33.142 3.1
      vertex 65.1478 31.9074 3.1
      vertex 65.2616 31.5322 3.1
    endloop
  endfacet
  facet normal 0 0 1
    outer loop
      vertex 75.3 33.142 3.1
      vertex 64.9629 32.2531 3.1
      vertex 65.1478 31.9074 3.1
    endloop
  endfacet
  facet normal 0 0 1
    outer loop
      vertex 75.3 33.142 3.1
      vertex 64.7142 32.5562 3.1
      vertex 64.9629 32.2531 3.1
    endloop
  endfacet
  facet normal 0 0 1
    outer loop
      vertex 75.3 33.142 3.1
      vertex 64.4111 32.8049 3.1
      vertex 64.7142 32.5562 3.1
    endloop
  endfacet
  facet normal 0 0 1
    outer loop
      vertex 75.3 33.142 3.1
      vertex 64.0654 32.9898 3.1
      vertex 64.4111 32.8049 3.1
    endloop
  endfacet
  facet normal 0 0 1
    outer loop
      vertex 75.3 33.142 3.1
      vertex 63.6902 33.1036 3.1
      vertex 64.0654 32.9898 3.1
    endloop
  endfacet
  facet normal 0 -0 1
    outer loop
      vertex 63.6902 33.1036 3.1
      vertex 75.3 33.142 3.1
      vertex 63.3 33.142 3.1
    endloop
  endfacet
  facet normal -0 0 1
    outer loop
      vertex 65.3 25.142 3.1
      vertex 75.3 23.142 3.1
      vertex 65.3 31.142 3.1
    endloop
  endfacet
  facet normal -0 0 1
    outer loop
      vertex 65.2616 24.7518 3.1
      vertex 75.3 23.142 3.1
      vertex 65.3 25.142 3.1
    endloop
  endfacet
  facet normal -0 0 1
    outer loop
      vertex 65.1478 24.3766 3.1
      vertex 75.3 23.142 3.1
      vertex 65.2616 24.7518 3.1
    endloop
  endfacet
  facet normal -0 0 1
    outer loop
      vertex 64.9629 24.0309 3.1
      vertex 75.3 23.142 3.1
      vertex 65.1478 24.3766 3.1
    endloop
  endfacet
  facet normal -0 0 1
    outer loop
      vertex 64.7142 23.7278 3.1
      vertex 75.3 23.142 3.1
      vertex 64.9629 24.0309 3.1
    endloop
  endfacet
  facet normal -0 0 1
    outer loop
      vertex 64.4111 23.4791 3.1
      vertex 75.3 23.142 3.1
      vertex 64.7142 23.7278 3.1
    endloop
  endfacet
  facet normal -0 0 1
    outer loop
      vertex 64.0654 23.2942 3.1
      vertex 75.3 23.142 3.1
      vertex 64.4111 23.4791 3.1
    endloop
  endfacet
  facet normal -0 0 1
    outer loop
      vertex 63.6902 23.1804 3.1
      vertex 75.3 23.142 3.1
      vertex 64.0654 23.2942 3.1
    endloop
  endfacet
  facet normal 0 0 1
    outer loop
      vertex 75.3 23.142 3.1
      vertex 63.6902 23.1804 3.1
      vertex 63.3 23.142 3.1
    endloop
  endfacet
  facet normal 0 0 1
    outer loop
      vertex 59.5 29.342 3.1
      vertex 61.3 31.142 3.1
      vertex 59.5 33.142 3.1
    endloop
  endfacet
  facet normal 0 0 1
    outer loop
      vertex 61.3384 31.5322 3.1
      vertex 59.5 33.142 3.1
      vertex 61.3 31.142 3.1
    endloop
  endfacet
  facet normal 0 0 1
    outer loop
      vertex 61.4522 31.9074 3.1
      vertex 59.5 33.142 3.1
      vertex 61.3384 31.5322 3.1
    endloop
  endfacet
  facet normal 0 0 1
    outer loop
      vertex 61.6371 32.2531 3.1
      vertex 59.5 33.142 3.1
      vertex 61.4522 31.9074 3.1
    endloop
  endfacet
  facet normal 0 0 1
    outer loop
      vertex 61.8858 32.5562 3.1
      vertex 59.5 33.142 3.1
      vertex 61.6371 32.2531 3.1
    endloop
  endfacet
  facet normal 0 0 1
    outer loop
      vertex 62.1889 32.8049 3.1
      vertex 59.5 33.142 3.1
      vertex 61.8858 32.5562 3.1
    endloop
  endfacet
  facet normal 0 0 1
    outer loop
      vertex 62.5346 32.9898 3.1
      vertex 59.5 33.142 3.1
      vertex 62.1889 32.8049 3.1
    endloop
  endfacet
  facet normal 0 0 1
    outer loop
      vertex 62.9098 33.1036 3.1
      vertex 59.5 33.142 3.1
      vertex 62.5346 32.9898 3.1
    endloop
  endfacet
  facet normal -0 0 1
    outer loop
      vertex 59.5 33.142 3.1
      vertex 62.9098 33.1036 3.1
      vertex 63.3 33.142 3.1
    endloop
  endfacet
  facet normal 0 0 1
    outer loop
      vertex 61.3 31.142 3.1
      vertex 59.5 29.342 3.1
      vertex 61.3 25.142 3.1
    endloop
  endfacet
  facet normal -0 0 1
    outer loop
      vertex 51.5 29.342 3.1
      vertex 61.3 25.142 3.1
      vertex 59.5 29.342 3.1
    endloop
  endfacet
  facet normal 0 0 1
    outer loop
      vertex 61.3 25.142 3.1
      vertex 51.5 29.342 3.1
      vertex 61.3384 24.7518 3.1
    endloop
  endfacet
  facet normal 0 0 1
    outer loop
      vertex 61.3384 24.7518 3.1
      vertex 51.5 29.342 3.1
      vertex 61.4522 24.3766 3.1
    endloop
  endfacet
  facet normal 0 0 1
    outer loop
      vertex 46.84 23.142 3.1
      vertex 61.4522 24.3766 3.1
      vertex 51.5 29.342 3.1
    endloop
  endfacet
  facet normal 0 0 1
    outer loop
      vertex 61.4522 24.3766 3.1
      vertex 46.84 23.142 3.1
      vertex 61.6371 24.0309 3.1
    endloop
  endfacet
  facet normal 0 0 1
    outer loop
      vertex 61.6371 24.0309 3.1
      vertex 46.84 23.142 3.1
      vertex 61.8858 23.7278 3.1
    endloop
  endfacet
  facet normal 0 0 1
    outer loop
      vertex 62.9098 23.1804 3.1
      vertex 46.84 23.142 3.1
      vertex 63.3 23.142 3.1
    endloop
  endfacet
  facet normal 0 0 1
    outer loop
      vertex 62.5346 23.2942 3.1
      vertex 46.84 23.142 3.1
      vertex 62.9098 23.1804 3.1
    endloop
  endfacet
  facet normal 0 0 1
    outer loop
      vertex 62.1889 23.4791 3.1
      vertex 46.84 23.142 3.1
      vertex 62.5346 23.2942 3.1
    endloop
  endfacet
  facet normal 0 0 1
    outer loop
      vertex 61.8858 23.7278 3.1
      vertex 46.84 23.142 3.1
      vertex 62.1889 23.4791 3.1
    endloop
  endfacet
  facet normal 0 0 1
    outer loop
      vertex 51.5 33.142 3.1
      vertex 46.84 23.142 3.1
      vertex 51.5 29.342 3.1
    endloop
  endfacet
  facet normal 0 0 1
    outer loop
      vertex 46.84 23.142 3.1
      vertex 0.459999 23.142 3.1
      vertex 46.84 0.0999994 3.1
    endloop
  endfacet
  facet normal 0 0 1
    outer loop
      vertex 51.5 33.142 3.1
      vertex 0.459999 23.142 3.1
      vertex 46.84 23.142 3.1
    endloop
  endfacet
  facet normal -0 0 1
    outer loop
      vertex -9.929 33.142 3.1
      vertex 0.459999 23.142 3.1
      vertex 51.5 33.142 3.1
    endloop
  endfacet
  facet normal 0 0 1
    outer loop
      vertex -9.929 33.142 3.1
      vertex -9.929 23.142 3.1
      vertex 0.459999 23.142 3.1
    endloop
  endfacet
  facet normal 0 0 1
    outer loop
      vertex -11.929 31.142 3.1
      vertex -9.929 33.142 3.1
      vertex -10.3192 33.1036 3.1
    endloop
  endfacet
  facet normal 0 0 1
    outer loop
      vertex -9.929 33.142 3.1
      vertex -11.929 31.142 3.1
      vertex -9.929 23.142 3.1
    endloop
  endfacet
  facet normal 0 0 1
    outer loop
      vertex -11.929 31.142 3.1
      vertex -10.3192 33.1036 3.1
      vertex -10.6944 32.9898 3.1
    endloop
  endfacet
  facet normal -0 0 1
    outer loop
      vertex -11.929 25.142 3.1
      vertex -9.929 23.142 3.1
      vertex -11.929 31.142 3.1
    endloop
  endfacet
  facet normal 0 0 1
    outer loop
      vertex -11.929 31.142 3.1
      vertex -10.6944 32.9898 3.1
      vertex -11.0401 32.8049 3.1
    endloop
  endfacet
  facet normal 0 0 1
    outer loop
      vertex -9.929 23.142 3.1
      vertex -11.929 25.142 3.1
      vertex -10.3192 23.1804 3.1
    endloop
  endfacet
  facet normal 0 0 1
    outer loop
      vertex -11.929 31.142 3.1
      vertex -11.0401 32.8049 3.1
      vertex -11.3432 32.5562 3.1
    endloop
  endfacet
  facet normal 0 0 1
    outer loop
      vertex -10.3192 23.1804 3.1
      vertex -11.929 25.142 3.1
      vertex -10.6944 23.2942 3.1
    endloop
  endfacet
  facet normal 0 0 1
    outer loop
      vertex -11.929 31.142 3.1
      vertex -11.3432 32.5562 3.1
      vertex -11.5919 32.2531 3.1
    endloop
  endfacet
  facet normal 0 0 1
    outer loop
      vertex -10.6944 23.2942 3.1
      vertex -11.929 25.142 3.1
      vertex -11.0401 23.4791 3.1
    endloop
  endfacet
  facet normal 0 0 1
    outer loop
      vertex -11.929 31.142 3.1
      vertex -11.5919 32.2531 3.1
      vertex -11.7768 31.9074 3.1
    endloop
  endfacet
  facet normal 0 0 1
    outer loop
      vertex -11.0401 23.4791 3.1
      vertex -11.929 25.142 3.1
      vertex -11.3432 23.7278 3.1
    endloop
  endfacet
  facet normal 0 0 1
    outer loop
      vertex -11.929 31.142 3.1
      vertex -11.7768 31.9074 3.1
      vertex -11.8906 31.5322 3.1
    endloop
  endfacet
  facet normal 0 0 1
    outer loop
      vertex -11.3432 23.7278 3.1
      vertex -11.929 25.142 3.1
      vertex -11.5919 24.0309 3.1
    endloop
  endfacet
  facet normal 0 0 1
    outer loop
      vertex -11.5919 24.0309 3.1
      vertex -11.929 25.142 3.1
      vertex -11.7768 24.3766 3.1
    endloop
  endfacet
  facet normal 0 0 1
    outer loop
      vertex -11.7768 24.3766 3.1
      vertex -11.929 25.142 3.1
      vertex -11.8906 24.7518 3.1
    endloop
  endfacet
  facet normal 0 0 1
    outer loop
      vertex 46.84 0.0999994 3.1
      vertex 0.459999 23.142 3.1
      vertex 0.459999 0.0999994 3.1
    endloop
  endfacet
  facet normal 0 0 -1
    outer loop
      vertex 46.84 0.0999994 0
      vertex 0.459999 0.0999994 0
      vertex 46.84 23.142 0
    endloop
  endfacet
  facet normal 0 0 -1
    outer loop
      vertex 75.3 23.142 0
      vertex 77.3 25.142 0
      vertex 77.2616 24.7518 0
    endloop
  endfacet
  facet normal -0 0 -1
    outer loop
      vertex 77.3 25.142 0
      vertex 75.3 23.142 0
      vertex 77.3 31.142 0
    endloop
  endfacet
  facet normal 0 0 -1
    outer loop
      vertex 75.3 23.142 0
      vertex 77.2616 24.7518 0
      vertex 77.1478 24.3766 0
    endloop
  endfacet
  facet normal 0 0 -1
    outer loop
      vertex 75.3 33.142 0
      vertex 77.3 31.142 0
      vertex 75.3 23.142 0
    endloop
  endfacet
  facet normal 0 0 -1
    outer loop
      vertex 75.3 23.142 0
      vertex 77.1478 24.3766 0
      vertex 76.9629 24.0309 0
    endloop
  endfacet
  facet normal 0 0 -1
    outer loop
      vertex 77.3 31.142 0
      vertex 75.3 33.142 0
      vertex 77.2616 31.5322 0
    endloop
  endfacet
  facet normal 0 0 -1
    outer loop
      vertex 75.3 23.142 0
      vertex 76.9629 24.0309 0
      vertex 76.7142 23.7278 0
    endloop
  endfacet
  facet normal 0 0 -1
    outer loop
      vertex 77.2616 31.5322 0
      vertex 75.3 33.142 0
      vertex 77.1478 31.9074 0
    endloop
  endfacet
  facet normal 0 0 -1
    outer loop
      vertex 75.3 23.142 0
      vertex 76.7142 23.7278 0
      vertex 76.4111 23.4791 0
    endloop
  endfacet
  facet normal 0 0 -1
    outer loop
      vertex 77.1478 31.9074 0
      vertex 75.3 33.142 0
      vertex 76.9629 32.2531 0
    endloop
  endfacet
  facet normal 0 0 -1
    outer loop
      vertex 75.3 23.142 0
      vertex 76.4111 23.4791 0
      vertex 76.0654 23.2942 0
    endloop
  endfacet
  facet normal 0 0 -1
    outer loop
      vertex 76.9629 32.2531 0
      vertex 75.3 33.142 0
      vertex 76.7142 32.5562 0
    endloop
  endfacet
  facet normal 0 0 -1
    outer loop
      vertex 75.3 23.142 0
      vertex 76.0654 23.2942 0
      vertex 75.6902 23.1804 0
    endloop
  endfacet
  facet normal 0 0 -1
    outer loop
      vertex 76.7142 32.5562 0
      vertex 75.3 33.142 0
      vertex 76.4111 32.8049 0
    endloop
  endfacet
  facet normal 0 0 -1
    outer loop
      vertex 76.4111 32.8049 0
      vertex 75.3 33.142 0
      vertex 76.0654 32.9898 0
    endloop
  endfacet
  facet normal 0 0 -1
    outer loop
      vertex 76.0654 32.9898 0
      vertex 75.3 33.142 0
      vertex 75.6902 33.1036 0
    endloop
  endfacet
  facet normal 0 0 -1
    outer loop
      vertex 46.84 23.142 0
      vertex 75.3 33.142 0
      vertex 75.3 23.142 0
    endloop
  endfacet
  facet normal 0 0 -1
    outer loop
      vertex 0.459999 23.142 0
      vertex 46.84 23.142 0
      vertex 0.459999 0.0999994 0
    endloop
  endfacet
  facet normal 0 0 -1
    outer loop
      vertex -9.929 33.142 0
      vertex 46.84 23.142 0
      vertex 0.459999 23.142 0
    endloop
  endfacet
  facet normal 0 0 -1
    outer loop
      vertex -9.929 33.142 0
      vertex 0.459999 23.142 0
      vertex -9.929 23.142 0
    endloop
  endfacet
  facet normal 0 0 -1
    outer loop
      vertex 46.84 23.142 0
      vertex -9.929 33.142 0
      vertex 75.3 33.142 0
    endloop
  endfacet
  facet normal 0 0 -1
    outer loop
      vertex -11.929 25.142 0
      vertex -9.929 23.142 0
      vertex -10.3192 23.1804 0
    endloop
  endfacet
  facet normal 0 0 -1
    outer loop
      vertex -9.929 23.142 0
      vertex -11.929 25.142 0
      vertex -9.929 33.142 0
    endloop
  endfacet
  facet normal 0 0 -1
    outer loop
      vertex -11.929 25.142 0
      vertex -10.3192 23.1804 0
      vertex -10.6944 23.2942 0
    endloop
  endfacet
  facet normal 0 0 -1
    outer loop
      vertex -11.929 31.142 0
      vertex -9.929 33.142 0
      vertex -11.929 25.142 0
    endloop
  endfacet
  facet normal 0 0 -1
    outer loop
      vertex -11.929 25.142 0
      vertex -10.6944 23.2942 0
      vertex -11.0401 23.4791 0
    endloop
  endfacet
  facet normal 0 0 -1
    outer loop
      vertex -9.929 33.142 0
      vertex -11.929 31.142 0
      vertex -10.3192 33.1036 0
    endloop
  endfacet
  facet normal 0 0 -1
    outer loop
      vertex -11.929 25.142 0
      vertex -11.0401 23.4791 0
      vertex -11.3432 23.7278 0
    endloop
  endfacet
  facet normal 0 0 -1
    outer loop
      vertex -10.3192 33.1036 0
      vertex -11.929 31.142 0
      vertex -10.6944 32.9898 0
    endloop
  endfacet
  facet normal 0 0 -1
    outer loop
      vertex -11.929 25.142 0
      vertex -11.3432 23.7278 0
      vertex -11.5919 24.0309 0
    endloop
  endfacet
  facet normal 0 0 -1
    outer loop
      vertex -10.6944 32.9898 0
      vertex -11.929 31.142 0
      vertex -11.0401 32.8049 0
    endloop
  endfacet
  facet normal 0 0 -1
    outer loop
      vertex -11.929 25.142 0
      vertex -11.5919 24.0309 0
      vertex -11.7768 24.3766 0
    endloop
  endfacet
  facet normal 0 0 -1
    outer loop
      vertex -11.0401 32.8049 0
      vertex -11.929 31.142 0
      vertex -11.3432 32.5562 0
    endloop
  endfacet
  facet normal 0 0 -1
    outer loop
      vertex -11.929 25.142 0
      vertex -11.7768 24.3766 0
      vertex -11.8906 24.7518 0
    endloop
  endfacet
  facet normal 0 0 -1
    outer loop
      vertex -11.3432 32.5562 0
      vertex -11.929 31.142 0
      vertex -11.5919 32.2531 0
    endloop
  endfacet
  facet normal 0 0 -1
    outer loop
      vertex -11.5919 32.2531 0
      vertex -11.929 31.142 0
      vertex -11.7768 31.9074 0
    endloop
  endfacet
  facet normal 0 0 -1
    outer loop
      vertex -11.7768 31.9074 0
      vertex -11.929 31.142 0
      vertex -11.8906 31.5322 0
    endloop
  endfacet
  facet normal -1 0 0
    outer loop
      vertex 0.459999 0.0999994 0.00150061
      vertex 0.459999 -0.932324 1.54999
      vertex 0.459999 0.0999994 3.09849
    endloop
  endfacet
  facet normal -1 0 0
    outer loop
      vertex 0.459999 0.0999994 0.00150061
      vertex 0.459999 23.142 0
      vertex 0.459999 0.0999994 0
    endloop
  endfacet
  facet normal -1 0 0
    outer loop
      vertex 0.459999 23.142 0
      vertex 0.459999 0.0999994 0.00150061
      vertex 0.459999 23.142 3.1
    endloop
  endfacet
  facet normal -1 0 0
    outer loop
      vertex 0.459999 0.0999994 3.09849
      vertex 0.459999 23.142 3.1
      vertex 0.459999 0.0999994 0.00150061
    endloop
  endfacet
  facet normal -1 -0 0
    outer loop
      vertex 0.459999 23.142 3.1
      vertex 0.459999 0.0999994 3.09849
      vertex 0.459999 0.0999994 3.1
    endloop
  endfacet
  facet normal 0 -1 0
    outer loop
      vertex 0.459999 0.0999994 3.09849
      vertex 46.84 0.0999994 3.1
      vertex 0.459999 0.0999994 3.1
    endloop
  endfacet
  facet normal 0 -1 -0
    outer loop
      vertex 46.84 0.0999994 3.1
      vertex 0.459999 0.0999994 3.09849
      vertex 46.84 0.0999994 3.09849
    endloop
  endfacet
  facet normal 0 -1 0
    outer loop
      vertex 0.459999 0.0999994 0
      vertex 46.84 0.0999994 0.00150061
      vertex 0.459999 0.0999994 0.00150061
    endloop
  endfacet
  facet normal 0 -1 -0
    outer loop
      vertex 46.84 0.0999994 0.00150061
      vertex 0.459999 0.0999994 0
      vertex 46.84 0.0999994 0
    endloop
  endfacet
  facet normal 0 -0.832053 0.554697
    outer loop
      vertex 0.459999 -0.932324 1.54999
      vertex 46.84 0.0999994 3.09849
      vertex 0.459999 0.0999994 3.09849
    endloop
  endfacet
  facet normal 0 -0.832053 0.554697
    outer loop
      vertex 46.84 0.0999994 3.09849
      vertex 0.459999 -0.932324 1.54999
      vertex 46.84 -0.932324 1.54999
    endloop
  endfacet
  facet normal 0 -0.832051 -0.554699
    outer loop
      vertex 0.459999 0.0999994 0.00150061
      vertex 46.84 -0.932324 1.54999
      vertex 0.459999 -0.932324 1.54999
    endloop
  endfacet
  facet normal 0 -0.832051 -0.554699
    outer loop
      vertex 46.84 -0.932324 1.54999
      vertex 0.459999 0.0999994 0.00150061
      vertex 46.84 0.0999994 0.00150061
    endloop
  endfacet
  facet normal 1 -0 0
    outer loop
      vertex 77.3 25.142 3.1
      vertex 77.3 31.142 0
      vertex 77.3 31.142 3.1
    endloop
  endfacet
  facet normal 1 0 0
    outer loop
      vertex 77.3 31.142 0
      vertex 77.3 25.142 3.1
      vertex 77.3 25.142 0
    endloop
  endfacet
  facet normal 0.995193 -0.097938 0
    outer loop
      vertex 77.2616 24.7518 3.1
      vertex 77.3 25.142 0
      vertex 77.3 25.142 3.1
    endloop
  endfacet
  facet normal 0.995193 -0.097938 0
    outer loop
      vertex 77.3 25.142 0
      vertex 77.2616 24.7518 3.1
      vertex 77.2616 24.7518 0
    endloop
  endfacet
  facet normal 0.77307 0.634321 0
    outer loop
      vertex 76.9629 32.2531 3.1
      vertex 76.7142 32.5562 0
      vertex 76.7142 32.5562 3.1
    endloop
  endfacet
  facet normal 0.77307 0.634321 0
    outer loop
      vertex 76.7142 32.5562 0
      vertex 76.9629 32.2531 3.1
      vertex 76.9629 32.2531 0
    endloop
  endfacet
  facet normal 0.471634 -0.881795 0
    outer loop
      vertex 76.0654 23.2942 0
      vertex 76.4111 23.4791 3.1
      vertex 76.0654 23.2942 3.1
    endloop
  endfacet
  facet normal 0.471634 -0.881795 0
    outer loop
      vertex 76.4111 23.4791 3.1
      vertex 76.0654 23.2942 0
      vertex 76.4111 23.4791 0
    endloop
  endfacet
  facet normal 0 -1 0
    outer loop
      vertex 46.84 23.142 0
      vertex 63.3 23.142 3.1
      vertex 46.84 23.142 3.1
    endloop
  endfacet
  facet normal 0 -1 0
    outer loop
      vertex 75.3 23.142 0
      vertex 63.3 23.142 3.1
      vertex 46.84 23.142 0
    endloop
  endfacet
  facet normal 0 -1 0
    outer loop
      vertex 63.3 23.142 3.1
      vertex 75.3 23.142 0
      vertex 75.3 23.142 3.1
    endloop
  endfacet
  facet normal 0 -1 0
    outer loop
      vertex -9.929 23.142 0
      vertex 0.459999 23.142 3.1
      vertex -9.929 23.142 3.1
    endloop
  endfacet
  facet normal 0 -1 -0
    outer loop
      vertex 0.459999 23.142 3.1
      vertex -9.929 23.142 0
      vertex 0.459999 23.142 0
    endloop
  endfacet
  facet normal 0.290248 0.956951 -0
    outer loop
      vertex 76.0654 32.9898 0
      vertex 75.6902 33.1036 3.1
      vertex 76.0654 32.9898 3.1
    endloop
  endfacet
  facet normal 0.290248 0.956951 0
    outer loop
      vertex 75.6902 33.1036 3.1
      vertex 76.0654 32.9898 0
      vertex 75.6902 33.1036 0
    endloop
  endfacet
  facet normal -0.77307 0.634321 0
    outer loop
      vertex -11.5919 32.2531 0
      vertex -11.3432 32.5562 3.1
      vertex -11.3432 32.5562 0
    endloop
  endfacet
  facet normal -0.77307 0.634321 0
    outer loop
      vertex -11.3432 32.5562 3.1
      vertex -11.5919 32.2531 0
      vertex -11.5919 32.2531 3.1
    endloop
  endfacet
  facet normal -1 0 0
    outer loop
      vertex -11.929 25.142 0
      vertex -11.929 31.142 3.1
      vertex -11.929 31.142 0
    endloop
  endfacet
  facet normal -1 -0 0
    outer loop
      vertex -11.929 31.142 3.1
      vertex -11.929 25.142 0
      vertex -11.929 25.142 3.1
    endloop
  endfacet
  facet normal 0.097938 -0.995193 0
    outer loop
      vertex 75.3 23.142 0
      vertex 75.6902 23.1804 3.1
      vertex 75.3 23.142 3.1
    endloop
  endfacet
  facet normal 0.097938 -0.995193 0
    outer loop
      vertex 75.6902 23.1804 3.1
      vertex 75.3 23.142 0
      vertex 75.6902 23.1804 0
    endloop
  endfacet
  facet normal 0.881795 0.471634 0
    outer loop
      vertex 77.1478 31.9074 3.1
      vertex 76.9629 32.2531 0
      vertex 76.9629 32.2531 3.1
    endloop
  endfacet
  facet normal 0.881795 0.471634 0
    outer loop
      vertex 76.9629 32.2531 0
      vertex 77.1478 31.9074 3.1
      vertex 77.1478 31.9074 0
    endloop
  endfacet
  facet normal 0 1 -0
    outer loop
      vertex 75.3 33.142 0
      vertex 63.3 33.142 3.1
      vertex 75.3 33.142 3.1
    endloop
  endfacet
  facet normal 0 1 0
    outer loop
      vertex 63.3 33.142 3.1
      vertex 59.5 33.142 0.799999
      vertex 59.5 33.142 3.1
    endloop
  endfacet
  facet normal 0 1 0
    outer loop
      vertex 59.5 33.142 0.799999
      vertex 75.3 33.142 0
      vertex 51.5 33.142 0.799999
    endloop
  endfacet
  facet normal 0 1 0
    outer loop
      vertex 63.3 33.142 3.1
      vertex 75.3 33.142 0
      vertex 59.5 33.142 0.799999
    endloop
  endfacet
  facet normal 0 1 -0
    outer loop
      vertex 51.5 33.142 0.799999
      vertex -9.929 33.142 3.1
      vertex 51.5 33.142 3.1
    endloop
  endfacet
  facet normal 0 1 0
    outer loop
      vertex 51.5 33.142 0.799999
      vertex -9.929 33.142 0
      vertex -9.929 33.142 3.1
    endloop
  endfacet
  facet normal 0 1 0
    outer loop
      vertex -9.929 33.142 0
      vertex 51.5 33.142 0.799999
      vertex 75.3 33.142 0
    endloop
  endfacet
  facet normal -0.097938 -0.995193 0
    outer loop
      vertex -10.3192 23.1804 0
      vertex -9.929 23.142 3.1
      vertex -10.3192 23.1804 3.1
    endloop
  endfacet
  facet normal -0.097938 -0.995193 -0
    outer loop
      vertex -9.929 23.142 3.1
      vertex -10.3192 23.1804 0
      vertex -9.929 23.142 0
    endloop
  endfacet
  facet normal -0.881795 0.471634 0
    outer loop
      vertex -11.7768 31.9074 0
      vertex -11.5919 32.2531 3.1
      vertex -11.5919 32.2531 0
    endloop
  endfacet
  facet normal -0.881795 0.471634 0
    outer loop
      vertex -11.5919 32.2531 3.1
      vertex -11.7768 31.9074 0
      vertex -11.7768 31.9074 3.1
    endloop
  endfacet
  facet normal 0.634321 -0.77307 0
    outer loop
      vertex 76.4111 23.4791 0
      vertex 76.7142 23.7278 3.1
      vertex 76.4111 23.4791 3.1
    endloop
  endfacet
  facet normal 0.634321 -0.77307 0
    outer loop
      vertex 76.7142 23.7278 3.1
      vertex 76.4111 23.4791 0
      vertex 76.7142 23.7278 0
    endloop
  endfacet
  facet normal -0.634321 -0.77307 0
    outer loop
      vertex -11.3432 23.7278 0
      vertex -11.0401 23.4791 3.1
      vertex -11.3432 23.7278 3.1
    endloop
  endfacet
  facet normal -0.634321 -0.77307 -0
    outer loop
      vertex -11.0401 23.4791 3.1
      vertex -11.3432 23.7278 0
      vertex -11.0401 23.4791 0
    endloop
  endfacet
  facet normal 0.881795 -0.471634 0
    outer loop
      vertex 76.9629 24.0309 3.1
      vertex 77.1478 24.3766 0
      vertex 77.1478 24.3766 3.1
    endloop
  endfacet
  facet normal 0.881795 -0.471634 0
    outer loop
      vertex 77.1478 24.3766 0
      vertex 76.9629 24.0309 3.1
      vertex 76.9629 24.0309 0
    endloop
  endfacet
  facet normal -0.634321 0.77307 0
    outer loop
      vertex -11.0401 32.8049 0
      vertex -11.3432 32.5562 3.1
      vertex -11.0401 32.8049 3.1
    endloop
  endfacet
  facet normal -0.634321 0.77307 0
    outer loop
      vertex -11.3432 32.5562 3.1
      vertex -11.0401 32.8049 0
      vertex -11.3432 32.5562 0
    endloop
  endfacet
  facet normal -0.290248 0.956951 0
    outer loop
      vertex -10.3192 33.1036 0
      vertex -10.6944 32.9898 3.1
      vertex -10.3192 33.1036 3.1
    endloop
  endfacet
  facet normal -0.290248 0.956951 0
    outer loop
      vertex -10.6944 32.9898 3.1
      vertex -10.3192 33.1036 0
      vertex -10.6944 32.9898 0
    endloop
  endfacet
  facet normal -0.471634 -0.881795 0
    outer loop
      vertex -11.0401 23.4791 0
      vertex -10.6944 23.2942 3.1
      vertex -11.0401 23.4791 3.1
    endloop
  endfacet
  facet normal -0.471634 -0.881795 -0
    outer loop
      vertex -10.6944 23.2942 3.1
      vertex -11.0401 23.4791 0
      vertex -10.6944 23.2942 0
    endloop
  endfacet
  facet normal 0.634321 0.77307 -0
    outer loop
      vertex 76.7142 32.5562 0
      vertex 76.4111 32.8049 3.1
      vertex 76.7142 32.5562 3.1
    endloop
  endfacet
  facet normal 0.634321 0.77307 0
    outer loop
      vertex 76.4111 32.8049 3.1
      vertex 76.7142 32.5562 0
      vertex 76.4111 32.8049 0
    endloop
  endfacet
  facet normal 0.290248 -0.956951 0
    outer loop
      vertex 75.6902 23.1804 0
      vertex 76.0654 23.2942 3.1
      vertex 75.6902 23.1804 3.1
    endloop
  endfacet
  facet normal 0.290248 -0.956951 0
    outer loop
      vertex 76.0654 23.2942 3.1
      vertex 75.6902 23.1804 0
      vertex 76.0654 23.2942 0
    endloop
  endfacet
  facet normal 0.995193 0.097938 0
    outer loop
      vertex 77.3 31.142 3.1
      vertex 77.2616 31.5322 0
      vertex 77.2616 31.5322 3.1
    endloop
  endfacet
  facet normal 0.995193 0.097938 0
    outer loop
      vertex 77.2616 31.5322 0
      vertex 77.3 31.142 3.1
      vertex 77.3 31.142 0
    endloop
  endfacet
  facet normal -0.995193 0.097938 0
    outer loop
      vertex -11.929 31.142 0
      vertex -11.8906 31.5322 3.1
      vertex -11.8906 31.5322 0
    endloop
  endfacet
  facet normal -0.995193 0.097938 0
    outer loop
      vertex -11.8906 31.5322 3.1
      vertex -11.929 31.142 0
      vertex -11.929 31.142 3.1
    endloop
  endfacet
  facet normal -0.77307 -0.634321 0
    outer loop
      vertex -11.3432 23.7278 0
      vertex -11.5919 24.0309 3.1
      vertex -11.5919 24.0309 0
    endloop
  endfacet
  facet normal -0.77307 -0.634321 0
    outer loop
      vertex -11.5919 24.0309 3.1
      vertex -11.3432 23.7278 0
      vertex -11.3432 23.7278 3.1
    endloop
  endfacet
  facet normal -0.881795 -0.471634 0
    outer loop
      vertex -11.5919 24.0309 0
      vertex -11.7768 24.3766 3.1
      vertex -11.7768 24.3766 0
    endloop
  endfacet
  facet normal -0.881795 -0.471634 0
    outer loop
      vertex -11.7768 24.3766 3.1
      vertex -11.5919 24.0309 0
      vertex -11.5919 24.0309 3.1
    endloop
  endfacet
  facet normal -0.097938 0.995193 0
    outer loop
      vertex -9.929 33.142 0
      vertex -10.3192 33.1036 3.1
      vertex -9.929 33.142 3.1
    endloop
  endfacet
  facet normal -0.097938 0.995193 0
    outer loop
      vertex -10.3192 33.1036 3.1
      vertex -9.929 33.142 0
      vertex -10.3192 33.1036 0
    endloop
  endfacet
  facet normal -0.995193 -0.097938 0
    outer loop
      vertex -11.8906 24.7518 0
      vertex -11.929 25.142 3.1
      vertex -11.929 25.142 0
    endloop
  endfacet
  facet normal -0.995193 -0.097938 0
    outer loop
      vertex -11.929 25.142 3.1
      vertex -11.8906 24.7518 0
      vertex -11.8906 24.7518 3.1
    endloop
  endfacet
  facet normal 0.77307 -0.634321 0
    outer loop
      vertex 76.7142 23.7278 3.1
      vertex 76.9629 24.0309 0
      vertex 76.9629 24.0309 3.1
    endloop
  endfacet
  facet normal 0.77307 -0.634321 0
    outer loop
      vertex 76.9629 24.0309 0
      vertex 76.7142 23.7278 3.1
      vertex 76.7142 23.7278 0
    endloop
  endfacet
  facet normal 0.097938 0.995193 -0
    outer loop
      vertex 75.6902 33.1036 0
      vertex 75.3 33.142 3.1
      vertex 75.6902 33.1036 3.1
    endloop
  endfacet
  facet normal 0.097938 0.995193 0
    outer loop
      vertex 75.3 33.142 3.1
      vertex 75.6902 33.1036 0
      vertex 75.3 33.142 0
    endloop
  endfacet
  facet normal -0.290248 -0.956951 0
    outer loop
      vertex -10.6944 23.2942 0
      vertex -10.3192 23.1804 3.1
      vertex -10.6944 23.2942 3.1
    endloop
  endfacet
  facet normal -0.290248 -0.956951 -0
    outer loop
      vertex -10.3192 23.1804 3.1
      vertex -10.6944 23.2942 0
      vertex -10.3192 23.1804 0
    endloop
  endfacet
  facet normal -0.956951 -0.290248 0
    outer loop
      vertex -11.7768 24.3766 0
      vertex -11.8906 24.7518 3.1
      vertex -11.8906 24.7518 0
    endloop
  endfacet
  facet normal -0.956951 -0.290248 0
    outer loop
      vertex -11.8906 24.7518 3.1
      vertex -11.7768 24.3766 0
      vertex -11.7768 24.3766 3.1
    endloop
  endfacet
  facet normal 0.956951 -0.290248 0
    outer loop
      vertex 77.1478 24.3766 3.1
      vertex 77.2616 24.7518 0
      vertex 77.2616 24.7518 3.1
    endloop
  endfacet
  facet normal 0.956951 -0.290248 0
    outer loop
      vertex 77.2616 24.7518 0
      vertex 77.1478 24.3766 3.1
      vertex 77.1478 24.3766 0
    endloop
  endfacet
  facet normal 0.471634 0.881795 -0
    outer loop
      vertex 76.4111 32.8049 0
      vertex 76.0654 32.9898 3.1
      vertex 76.4111 32.8049 3.1
    endloop
  endfacet
  facet normal 0.471634 0.881795 0
    outer loop
      vertex 76.0654 32.9898 3.1
      vertex 76.4111 32.8049 0
      vertex 76.0654 32.9898 0
    endloop
  endfacet
  facet normal 0.956951 0.290248 0
    outer loop
      vertex 77.2616 31.5322 3.1
      vertex 77.1478 31.9074 0
      vertex 77.1478 31.9074 3.1
    endloop
  endfacet
  facet normal 0.956951 0.290248 0
    outer loop
      vertex 77.1478 31.9074 0
      vertex 77.2616 31.5322 3.1
      vertex 77.2616 31.5322 0
    endloop
  endfacet
  facet normal -0.471634 0.881795 0
    outer loop
      vertex -10.6944 32.9898 0
      vertex -11.0401 32.8049 3.1
      vertex -10.6944 32.9898 3.1
    endloop
  endfacet
  facet normal -0.471634 0.881795 0
    outer loop
      vertex -11.0401 32.8049 3.1
      vertex -10.6944 32.9898 0
      vertex -11.0401 32.8049 0
    endloop
  endfacet
  facet normal -0.956951 0.290248 0
    outer loop
      vertex -11.8906 31.5322 0
      vertex -11.7768 31.9074 3.1
      vertex -11.7768 31.9074 0
    endloop
  endfacet
  facet normal -0.956951 0.290248 0
    outer loop
      vertex -11.7768 31.9074 3.1
      vertex -11.8906 31.5322 0
      vertex -11.8906 31.5322 3.1
    endloop
  endfacet
  facet normal -0.290248 -0.956951 0
    outer loop
      vertex 62.5346 23.2942 3.1
      vertex 62.9098 23.1804 13
      vertex 62.5346 23.2942 13
    endloop
  endfacet
  facet normal -0.290248 -0.956951 -0
    outer loop
      vertex 62.9098 23.1804 13
      vertex 62.5346 23.2942 3.1
      vertex 62.9098 23.1804 3.1
    endloop
  endfacet
  facet normal 0.097938 0.995193 -0
    outer loop
      vertex 63.6902 33.1036 3.1
      vertex 63.3 33.142 13
      vertex 63.6902 33.1036 13
    endloop
  endfacet
  facet normal 0.097938 0.995193 0
    outer loop
      vertex 63.3 33.142 13
      vertex 63.6902 33.1036 3.1
      vertex 63.3 33.142 3.1
    endloop
  endfacet
  facet normal 0.634321 -0.77307 0
    outer loop
      vertex 64.4111 23.4791 3.1
      vertex 64.7142 23.7278 13
      vertex 64.4111 23.4791 13
    endloop
  endfacet
  facet normal 0.634321 -0.77307 0
    outer loop
      vertex 64.7142 23.7278 13
      vertex 64.4111 23.4791 3.1
      vertex 64.7142 23.7278 3.1
    endloop
  endfacet
  facet normal -0.471634 -0.881795 0
    outer loop
      vertex 62.1889 23.4791 3.1
      vertex 62.5346 23.2942 13
      vertex 62.1889 23.4791 13
    endloop
  endfacet
  facet normal -0.471634 -0.881795 -0
    outer loop
      vertex 62.5346 23.2942 13
      vertex 62.1889 23.4791 3.1
      vertex 62.5346 23.2942 3.1
    endloop
  endfacet
  facet normal 0.995193 0.097938 0
    outer loop
      vertex 65.3 31.142 13
      vertex 65.2616 31.5322 3.1
      vertex 65.2616 31.5322 13
    endloop
  endfacet
  facet normal 0.995193 0.097938 0
    outer loop
      vertex 65.2616 31.5322 3.1
      vertex 65.3 31.142 13
      vertex 65.3 31.142 3.1
    endloop
  endfacet
  facet normal 0.956951 -0.290248 0
    outer loop
      vertex 65.1478 24.3766 13
      vertex 65.2616 24.7518 3.1
      vertex 65.2616 24.7518 13
    endloop
  endfacet
  facet normal 0.956951 -0.290248 0
    outer loop
      vertex 65.2616 24.7518 3.1
      vertex 65.1478 24.3766 13
      vertex 65.1478 24.3766 3.1
    endloop
  endfacet
  facet normal 0.77307 0.634321 0
    outer loop
      vertex 64.9629 32.2531 13
      vertex 64.7142 32.5562 3.1
      vertex 64.7142 32.5562 13
    endloop
  endfacet
  facet normal 0.77307 0.634321 0
    outer loop
      vertex 64.7142 32.5562 3.1
      vertex 64.9629 32.2531 13
      vertex 64.9629 32.2531 3.1
    endloop
  endfacet
  facet normal -1 0 0
    outer loop
      vertex 61.3 25.142 3.1
      vertex 61.3 31.142 13
      vertex 61.3 31.142 3.1
    endloop
  endfacet
  facet normal -1 -0 0
    outer loop
      vertex 61.3 31.142 13
      vertex 61.3 25.142 3.1
      vertex 61.3 25.142 13
    endloop
  endfacet
  facet normal -0.881795 0.471634 0
    outer loop
      vertex 61.4522 31.9074 3.1
      vertex 61.6371 32.2531 13
      vertex 61.6371 32.2531 3.1
    endloop
  endfacet
  facet normal -0.881795 0.471634 0
    outer loop
      vertex 61.6371 32.2531 13
      vertex 61.4522 31.9074 3.1
      vertex 61.4522 31.9074 13
    endloop
  endfacet
  facet normal -0.097938 0.995193 0
    outer loop
      vertex 63.3 33.142 3.1
      vertex 62.9098 33.1036 13
      vertex 63.3 33.142 13
    endloop
  endfacet
  facet normal -0.097938 0.995193 0
    outer loop
      vertex 62.9098 33.1036 13
      vertex 63.3 33.142 3.1
      vertex 62.9098 33.1036 3.1
    endloop
  endfacet
  facet normal -0.77307 -0.634321 0
    outer loop
      vertex 61.8858 23.7278 3.1
      vertex 61.6371 24.0309 13
      vertex 61.6371 24.0309 3.1
    endloop
  endfacet
  facet normal -0.77307 -0.634321 0
    outer loop
      vertex 61.6371 24.0309 13
      vertex 61.8858 23.7278 3.1
      vertex 61.8858 23.7278 13
    endloop
  endfacet
  facet normal 0.881795 -0.471634 0
    outer loop
      vertex 64.9629 24.0309 13
      vertex 65.1478 24.3766 3.1
      vertex 65.1478 24.3766 13
    endloop
  endfacet
  facet normal 0.881795 -0.471634 0
    outer loop
      vertex 65.1478 24.3766 3.1
      vertex 64.9629 24.0309 13
      vertex 64.9629 24.0309 3.1
    endloop
  endfacet
  facet normal -0.471634 0.881795 0
    outer loop
      vertex 62.5346 32.9898 3.1
      vertex 62.1889 32.8049 13
      vertex 62.5346 32.9898 13
    endloop
  endfacet
  facet normal -0.471634 0.881795 0
    outer loop
      vertex 62.1889 32.8049 13
      vertex 62.5346 32.9898 3.1
      vertex 62.1889 32.8049 3.1
    endloop
  endfacet
  facet normal -0.995193 -0.097938 0
    outer loop
      vertex 61.3384 24.7518 3.1
      vertex 61.3 25.142 13
      vertex 61.3 25.142 3.1
    endloop
  endfacet
  facet normal -0.995193 -0.097938 0
    outer loop
      vertex 61.3 25.142 13
      vertex 61.3384 24.7518 3.1
      vertex 61.3384 24.7518 13
    endloop
  endfacet
  facet normal 0.290248 -0.956951 0
    outer loop
      vertex 63.6902 23.1804 3.1
      vertex 64.0654 23.2942 13
      vertex 63.6902 23.1804 13
    endloop
  endfacet
  facet normal 0.290248 -0.956951 0
    outer loop
      vertex 64.0654 23.2942 13
      vertex 63.6902 23.1804 3.1
      vertex 64.0654 23.2942 3.1
    endloop
  endfacet
  facet normal 0.290248 0.956951 -0
    outer loop
      vertex 64.0654 32.9898 3.1
      vertex 63.6902 33.1036 13
      vertex 64.0654 32.9898 13
    endloop
  endfacet
  facet normal 0.290248 0.956951 0
    outer loop
      vertex 63.6902 33.1036 13
      vertex 64.0654 32.9898 3.1
      vertex 63.6902 33.1036 3.1
    endloop
  endfacet
  facet normal 0.471634 -0.881795 0
    outer loop
      vertex 64.0654 23.2942 3.1
      vertex 64.4111 23.4791 13
      vertex 64.0654 23.2942 13
    endloop
  endfacet
  facet normal 0.471634 -0.881795 0
    outer loop
      vertex 64.4111 23.4791 13
      vertex 64.0654 23.2942 3.1
      vertex 64.4111 23.4791 3.1
    endloop
  endfacet
  facet normal 1 -0 0
    outer loop
      vertex 65.3 25.142 13
      vertex 65.3 31.142 3.1
      vertex 65.3 31.142 13
    endloop
  endfacet
  facet normal 1 0 0
    outer loop
      vertex 65.3 31.142 3.1
      vertex 65.3 25.142 13
      vertex 65.3 25.142 3.1
    endloop
  endfacet
  facet normal -0.956951 -0.290248 0
    outer loop
      vertex 61.4522 24.3766 3.1
      vertex 61.3384 24.7518 13
      vertex 61.3384 24.7518 3.1
    endloop
  endfacet
  facet normal -0.956951 -0.290248 0
    outer loop
      vertex 61.3384 24.7518 13
      vertex 61.4522 24.3766 3.1
      vertex 61.4522 24.3766 13
    endloop
  endfacet
  facet normal 0.097938 -0.995193 0
    outer loop
      vertex 63.3 23.142 3.1
      vertex 63.6902 23.1804 13
      vertex 63.3 23.142 13
    endloop
  endfacet
  facet normal 0.097938 -0.995193 0
    outer loop
      vertex 63.6902 23.1804 13
      vertex 63.3 23.142 3.1
      vertex 63.6902 23.1804 3.1
    endloop
  endfacet
  facet normal 0.471634 0.881795 -0
    outer loop
      vertex 64.4111 32.8049 3.1
      vertex 64.0654 32.9898 13
      vertex 64.4111 32.8049 13
    endloop
  endfacet
  facet normal 0.471634 0.881795 0
    outer loop
      vertex 64.0654 32.9898 13
      vertex 64.4111 32.8049 3.1
      vertex 64.0654 32.9898 3.1
    endloop
  endfacet
  facet normal 0.956951 0.290248 0
    outer loop
      vertex 65.2616 31.5322 13
      vertex 65.1478 31.9074 3.1
      vertex 65.1478 31.9074 13
    endloop
  endfacet
  facet normal 0.956951 0.290248 0
    outer loop
      vertex 65.1478 31.9074 3.1
      vertex 65.2616 31.5322 13
      vertex 65.2616 31.5322 3.1
    endloop
  endfacet
  facet normal 0.634321 0.77307 -0
    outer loop
      vertex 64.7142 32.5562 3.1
      vertex 64.4111 32.8049 13
      vertex 64.7142 32.5562 13
    endloop
  endfacet
  facet normal 0.634321 0.77307 0
    outer loop
      vertex 64.4111 32.8049 13
      vertex 64.7142 32.5562 3.1
      vertex 64.4111 32.8049 3.1
    endloop
  endfacet
  facet normal -0.956951 0.290248 0
    outer loop
      vertex 61.3384 31.5322 3.1
      vertex 61.4522 31.9074 13
      vertex 61.4522 31.9074 3.1
    endloop
  endfacet
  facet normal -0.956951 0.290248 0
    outer loop
      vertex 61.4522 31.9074 13
      vertex 61.3384 31.5322 3.1
      vertex 61.3384 31.5322 13
    endloop
  endfacet
  facet normal 0.881795 0.471634 0
    outer loop
      vertex 65.1478 31.9074 13
      vertex 64.9629 32.2531 3.1
      vertex 64.9629 32.2531 13
    endloop
  endfacet
  facet normal 0.881795 0.471634 0
    outer loop
      vertex 64.9629 32.2531 3.1
      vertex 65.1478 31.9074 13
      vertex 65.1478 31.9074 3.1
    endloop
  endfacet
  facet normal -0.290248 0.956951 0
    outer loop
      vertex 62.9098 33.1036 3.1
      vertex 62.5346 32.9898 13
      vertex 62.9098 33.1036 13
    endloop
  endfacet
  facet normal -0.290248 0.956951 0
    outer loop
      vertex 62.5346 32.9898 13
      vertex 62.9098 33.1036 3.1
      vertex 62.5346 32.9898 3.1
    endloop
  endfacet
  facet normal 0.995193 -0.097938 0
    outer loop
      vertex 65.2616 24.7518 13
      vertex 65.3 25.142 3.1
      vertex 65.3 25.142 13
    endloop
  endfacet
  facet normal 0.995193 -0.097938 0
    outer loop
      vertex 65.3 25.142 3.1
      vertex 65.2616 24.7518 13
      vertex 65.2616 24.7518 3.1
    endloop
  endfacet
  facet normal -0.881795 -0.471634 0
    outer loop
      vertex 61.6371 24.0309 3.1
      vertex 61.4522 24.3766 13
      vertex 61.4522 24.3766 3.1
    endloop
  endfacet
  facet normal -0.881795 -0.471634 0
    outer loop
      vertex 61.4522 24.3766 13
      vertex 61.6371 24.0309 3.1
      vertex 61.6371 24.0309 13
    endloop
  endfacet
  facet normal -0.634321 -0.77307 0
    outer loop
      vertex 61.8858 23.7278 3.1
      vertex 62.1889 23.4791 13
      vertex 61.8858 23.7278 13
    endloop
  endfacet
  facet normal -0.634321 -0.77307 -0
    outer loop
      vertex 62.1889 23.4791 13
      vertex 61.8858 23.7278 3.1
      vertex 62.1889 23.4791 3.1
    endloop
  endfacet
  facet normal -0.995193 0.097938 0
    outer loop
      vertex 61.3 31.142 3.1
      vertex 61.3384 31.5322 13
      vertex 61.3384 31.5322 3.1
    endloop
  endfacet
  facet normal -0.995193 0.097938 0
    outer loop
      vertex 61.3384 31.5322 13
      vertex 61.3 31.142 3.1
      vertex 61.3 31.142 13
    endloop
  endfacet
  facet normal -0.634321 0.77307 0
    outer loop
      vertex 62.1889 32.8049 3.1
      vertex 61.8858 32.5562 13
      vertex 62.1889 32.8049 13
    endloop
  endfacet
  facet normal -0.634321 0.77307 0
    outer loop
      vertex 61.8858 32.5562 13
      vertex 62.1889 32.8049 3.1
      vertex 61.8858 32.5562 3.1
    endloop
  endfacet
  facet normal -0.77307 0.634321 0
    outer loop
      vertex 61.6371 32.2531 3.1
      vertex 61.8858 32.5562 13
      vertex 61.8858 32.5562 3.1
    endloop
  endfacet
  facet normal -0.77307 0.634321 0
    outer loop
      vertex 61.8858 32.5562 13
      vertex 61.6371 32.2531 3.1
      vertex 61.6371 32.2531 13
    endloop
  endfacet
  facet normal -0.097938 -0.995193 0
    outer loop
      vertex 62.9098 23.1804 3.1
      vertex 63.3 23.142 13
      vertex 62.9098 23.1804 13
    endloop
  endfacet
  facet normal -0.097938 -0.995193 -0
    outer loop
      vertex 63.3 23.142 13
      vertex 62.9098 23.1804 3.1
      vertex 63.3 23.142 3.1
    endloop
  endfacet
  facet normal 0.77307 -0.634321 0
    outer loop
      vertex 64.7142 23.7278 13
      vertex 64.9629 24.0309 3.1
      vertex 64.9629 24.0309 13
    endloop
  endfacet
  facet normal 0.77307 -0.634321 0
    outer loop
      vertex 64.9629 24.0309 3.1
      vertex 64.7142 23.7278 13
      vertex 64.7142 23.7278 3.1
    endloop
  endfacet
  facet normal 0 0 1
    outer loop
      vertex 61.3 31.142 13
      vertex 65.3 31.142 13
      vertex 65.2616 31.5322 13
    endloop
  endfacet
  facet normal 0 0 1
    outer loop
      vertex 65.3 31.142 13
      vertex 61.3 31.142 13
      vertex 65.3 25.142 13
    endloop
  endfacet
  facet normal 0 0 1
    outer loop
      vertex 61.3 31.142 13
      vertex 65.2616 31.5322 13
      vertex 65.1478 31.9074 13
    endloop
  endfacet
  facet normal 0 0 1
    outer loop
      vertex 61.3 25.142 13
      vertex 65.3 25.142 13
      vertex 61.3 31.142 13
    endloop
  endfacet
  facet normal 0 0 1
    outer loop
      vertex 61.3 31.142 13
      vertex 65.1478 31.9074 13
      vertex 64.9629 32.2531 13
    endloop
  endfacet
  facet normal 0 0 1
    outer loop
      vertex 65.3 25.142 13
      vertex 61.3 25.142 13
      vertex 65.2616 24.7518 13
    endloop
  endfacet
  facet normal 0 0 1
    outer loop
      vertex 61.3 31.142 13
      vertex 64.9629 32.2531 13
      vertex 64.7142 32.5562 13
    endloop
  endfacet
  facet normal 0 0 1
    outer loop
      vertex 65.2616 24.7518 13
      vertex 61.3 25.142 13
      vertex 65.1478 24.3766 13
    endloop
  endfacet
  facet normal 0 0 1
    outer loop
      vertex 61.3 31.142 13
      vertex 64.7142 32.5562 13
      vertex 64.4111 32.8049 13
    endloop
  endfacet
  facet normal 0 0 1
    outer loop
      vertex 65.1478 24.3766 13
      vertex 61.3 25.142 13
      vertex 64.9629 24.0309 13
    endloop
  endfacet
  facet normal 0 0 1
    outer loop
      vertex 61.3 31.142 13
      vertex 64.4111 32.8049 13
      vertex 64.0654 32.9898 13
    endloop
  endfacet
  facet normal 0 0 1
    outer loop
      vertex 64.9629 24.0309 13
      vertex 61.3 25.142 13
      vertex 64.7142 23.7278 13
    endloop
  endfacet
  facet normal 0 0 1
    outer loop
      vertex 61.3 31.142 13
      vertex 64.0654 32.9898 13
      vertex 63.6902 33.1036 13
    endloop
  endfacet
  facet normal 0 0 1
    outer loop
      vertex 64.7142 23.7278 13
      vertex 61.3 25.142 13
      vertex 64.4111 23.4791 13
    endloop
  endfacet
  facet normal 0 0 1
    outer loop
      vertex 61.3 31.142 13
      vertex 63.6902 33.1036 13
      vertex 63.3 33.142 13
    endloop
  endfacet
  facet normal 0 0 1
    outer loop
      vertex 64.4111 23.4791 13
      vertex 61.3 25.142 13
      vertex 64.0654 23.2942 13
    endloop
  endfacet
  facet normal 0 0 1
    outer loop
      vertex 61.3 31.142 13
      vertex 63.3 33.142 13
      vertex 62.9098 33.1036 13
    endloop
  endfacet
  facet normal 0 0 1
    outer loop
      vertex 64.0654 23.2942 13
      vertex 61.3 25.142 13
      vertex 63.6902 23.1804 13
    endloop
  endfacet
  facet normal 0 0 1
    outer loop
      vertex 61.3 31.142 13
      vertex 62.9098 33.1036 13
      vertex 62.5346 32.9898 13
    endloop
  endfacet
  facet normal 0 0 1
    outer loop
      vertex 63.6902 23.1804 13
      vertex 61.3 25.142 13
      vertex 63.3 23.142 13
    endloop
  endfacet
  facet normal 0 0 1
    outer loop
      vertex 61.3 31.142 13
      vertex 62.5346 32.9898 13
      vertex 62.1889 32.8049 13
    endloop
  endfacet
  facet normal 0 0 1
    outer loop
      vertex 63.3 23.142 13
      vertex 61.3 25.142 13
      vertex 62.9098 23.1804 13
    endloop
  endfacet
  facet normal 0 0 1
    outer loop
      vertex 61.3 31.142 13
      vertex 62.1889 32.8049 13
      vertex 61.8858 32.5562 13
    endloop
  endfacet
  facet normal 0 0 1
    outer loop
      vertex 62.9098 23.1804 13
      vertex 61.3 25.142 13
      vertex 62.5346 23.2942 13
    endloop
  endfacet
  facet normal 0 0 1
    outer loop
      vertex 61.3 31.142 13
      vertex 61.8858 32.5562 13
      vertex 61.6371 32.2531 13
    endloop
  endfacet
  facet normal 0 0 1
    outer loop
      vertex 62.5346 23.2942 13
      vertex 61.3 25.142 13
      vertex 62.1889 23.4791 13
    endloop
  endfacet
  facet normal 0 0 1
    outer loop
      vertex 61.3 31.142 13
      vertex 61.6371 32.2531 13
      vertex 61.4522 31.9074 13
    endloop
  endfacet
  facet normal 0 0 1
    outer loop
      vertex 62.1889 23.4791 13
      vertex 61.3 25.142 13
      vertex 61.8858 23.7278 13
    endloop
  endfacet
  facet normal 0 0 1
    outer loop
      vertex 61.3 31.142 13
      vertex 61.4522 31.9074 13
      vertex 61.3384 31.5322 13
    endloop
  endfacet
  facet normal 0 0 1
    outer loop
      vertex 61.8858 23.7278 13
      vertex 61.3 25.142 13
      vertex 61.6371 24.0309 13
    endloop
  endfacet
  facet normal 0 0 1
    outer loop
      vertex 61.6371 24.0309 13
      vertex 61.3 25.142 13
      vertex 61.4522 24.3766 13
    endloop
  endfacet
  facet normal 0 0 1
    outer loop
      vertex 61.4522 24.3766 13
      vertex 61.3 25.142 13
      vertex 61.3384 24.7518 13
    endloop
  endfacet
  facet normal -1 0 0
    outer loop
      vertex 59.5 29.342 0.799999
      vertex 59.5 33.142 3.1
      vertex 59.5 33.142 0.799999
    endloop
  endfacet
  facet normal -1 -0 0
    outer loop
      vertex 59.5 33.142 3.1
      vertex 59.5 29.342 0.799999
      vertex 59.5 29.342 3.1
    endloop
  endfacet
  facet normal -0 0 1
    outer loop
      vertex 51.5 33.142 0.799999
      vertex 59.5 29.342 0.799999
      vertex 59.5 33.142 0.799999
    endloop
  endfacet
  facet normal 0 0 1
    outer loop
      vertex 59.5 29.342 0.799999
      vertex 51.5 33.142 0.799999
      vertex 51.5 29.342 0.799999
    endloop
  endfacet
  facet normal 1 -0 0
    outer loop
      vertex 51.5 29.342 3.1
      vertex 51.5 33.142 0.799999
      vertex 51.5 33.142 3.1
    endloop
  endfacet
  facet normal 1 0 0
    outer loop
      vertex 51.5 33.142 0.799999
      vertex 51.5 29.342 3.1
      vertex 51.5 29.342 0.799999
    endloop
  endfacet
  facet normal 0 1 -0
    outer loop
      vertex 59.5 29.342 0.799999
      vertex 51.5 29.342 3.1
      vertex 59.5 29.342 3.1
    endloop
  endfacet
  facet normal 0 1 0
    outer loop
      vertex 51.5 29.342 3.1
      vertex 59.5 29.342 0.799999
      vertex 51.5 29.342 0.799999
    endloop
  endfacet
endsolid OpenSCAD_Model
