solid OpenSCAD_Model
  facet normal 1 -0 0
    outer loop
      vertex 46.84 3.09849 -2.1
      vertex 46.84 3.1 -17.4
      vertex 46.84 3.1 -2.1
    endloop
  endfacet
  facet normal 1 0 0
    outer loop
      vertex 46.84 0.00150061 -2.1
      vertex 46.84 3.09849 -2.1
      vertex 46.84 1.54999 -1.06767
    endloop
  endfacet
  facet normal 1 0 0
    outer loop
      vertex 46.84 3.09849 -2.1
      vertex 46.84 0.00150061 -2.1
      vertex 46.84 3.1 -17.4
    endloop
  endfacet
  facet normal 1 0 0
    outer loop
      vertex 46.84 0 -17.4
      vertex 46.84 0.00150061 -2.1
      vertex 46.84 0 -2.1
    endloop
  endfacet
  facet normal 1 0 0
    outer loop
      vertex 46.84 0.00150061 -2.1
      vertex 46.84 0 -17.4
      vertex 46.84 3.1 -17.4
    endloop
  endfacet
  facet normal 0 1 -0
    outer loop
      vertex 62.9098 3.1 -17.4384
      vertex 46.84 3.1 -17.4
      vertex 63.3 3.1 -17.4
    endloop
  endfacet
  facet normal 0 1 -0
    outer loop
      vertex 62.5346 3.1 -17.5522
      vertex 46.84 3.1 -17.4
      vertex 62.9098 3.1 -17.4384
    endloop
  endfacet
  facet normal 0 1 -0
    outer loop
      vertex 62.1889 3.1 -17.7371
      vertex 46.84 3.1 -17.4
      vertex 62.5346 3.1 -17.5522
    endloop
  endfacet
  facet normal 0 1 -0
    outer loop
      vertex 61.8858 3.1 -17.9858
      vertex 46.84 3.1 -17.4
      vertex 62.1889 3.1 -17.7371
    endloop
  endfacet
  facet normal 0 1 -0
    outer loop
      vertex 51.5 3.1 -27.4
      vertex 46.84 3.1 -17.4
      vertex 51.5 3.1 -23.3
    endloop
  endfacet
  facet normal 0 1 0
    outer loop
      vertex 46.84 3.1 -17.4
      vertex 51.5 3.1 -27.4
      vertex 0.459999 3.1 -17.4
    endloop
  endfacet
  facet normal 0 1 0
    outer loop
      vertex 0.459999 3.1 -17.4
      vertex -6.092 3.1 -27.4
      vertex -6.092 3.1 -17.4
    endloop
  endfacet
  facet normal -0 1 0
    outer loop
      vertex -8.092 3.1 -19.4
      vertex -6.092 3.1 -17.4
      vertex -6.092 3.1 -27.4
    endloop
  endfacet
  facet normal 0 1 -0
    outer loop
      vertex 61.6371 3.1 -18.2889
      vertex 46.84 3.1 -17.4
      vertex 61.8858 3.1 -17.9858
    endloop
  endfacet
  facet normal 0 1 0
    outer loop
      vertex -6.092 3.1 -17.4
      vertex -8.092 3.1 -19.4
      vertex -6.48218 3.1 -17.4384
    endloop
  endfacet
  facet normal 0 1 -0
    outer loop
      vertex 61.4522 3.1 -18.6346
      vertex 46.84 3.1 -17.4
      vertex 61.6371 3.1 -18.2889
    endloop
  endfacet
  facet normal 0 1 0
    outer loop
      vertex -6.48218 3.1 -17.4384
      vertex -8.092 3.1 -19.4
      vertex -6.85737 3.1 -17.5522
    endloop
  endfacet
  facet normal 0 1 0
    outer loop
      vertex 46.84 3.1 -17.4
      vertex 61.4522 3.1 -18.6346
      vertex 51.5 3.1 -23.3
    endloop
  endfacet
  facet normal 0 1 0
    outer loop
      vertex -6.85737 3.1 -17.5522
      vertex -8.092 3.1 -19.4
      vertex -7.20314 3.1 -17.7371
    endloop
  endfacet
  facet normal 0 1 0
    outer loop
      vertex 51.5 3.1 -23.3
      vertex 61.4522 3.1 -18.6346
      vertex 61.3384 3.1 -19.0098
    endloop
  endfacet
  facet normal 0 1 0
    outer loop
      vertex -7.20314 3.1 -17.7371
      vertex -8.092 3.1 -19.4
      vertex -7.50621 3.1 -17.9858
    endloop
  endfacet
  facet normal 0 1 0
    outer loop
      vertex 51.5 3.1 -23.3
      vertex 61.3384 3.1 -19.0098
      vertex 61.3 3.1 -19.4
    endloop
  endfacet
  facet normal 0 1 0
    outer loop
      vertex -7.50621 3.1 -17.9858
      vertex -8.092 3.1 -19.4
      vertex -7.75494 3.1 -18.2889
    endloop
  endfacet
  facet normal 0 1 0
    outer loop
      vertex 51.5 3.1 -23.3
      vertex 61.3 3.1 -19.4
      vertex 59.5 3.1 -23.3
    endloop
  endfacet
  facet normal 0 1 -0
    outer loop
      vertex 61.3 3.1 -25.4
      vertex 59.5 3.1 -23.3
      vertex 61.3 3.1 -19.4
    endloop
  endfacet
  facet normal 0 1 0
    outer loop
      vertex 59.5 3.1 -27.4
      vertex 61.3 3.1 -25.4
      vertex 61.3384 3.1 -25.7902
    endloop
  endfacet
  facet normal 0 1 0
    outer loop
      vertex 59.5 3.1 -27.4
      vertex 61.3384 3.1 -25.7902
      vertex 61.4522 3.1 -26.1654
    endloop
  endfacet
  facet normal 0 1 0
    outer loop
      vertex 59.5 3.1 -27.4
      vertex 61.4522 3.1 -26.1654
      vertex 61.6371 3.1 -26.5111
    endloop
  endfacet
  facet normal 0 1 0
    outer loop
      vertex 61.3 3.1 -25.4
      vertex 59.5 3.1 -27.4
      vertex 59.5 3.1 -23.3
    endloop
  endfacet
  facet normal 0 1 0
    outer loop
      vertex 61.8858 3.1 -26.8142
      vertex 59.5 3.1 -27.4
      vertex 61.6371 3.1 -26.5111
    endloop
  endfacet
  facet normal 0 1 0
    outer loop
      vertex 62.1889 3.1 -27.0629
      vertex 59.5 3.1 -27.4
      vertex 61.8858 3.1 -26.8142
    endloop
  endfacet
  facet normal 0 1 0
    outer loop
      vertex 62.5346 3.1 -27.2478
      vertex 59.5 3.1 -27.4
      vertex 62.1889 3.1 -27.0629
    endloop
  endfacet
  facet normal 0 1 0
    outer loop
      vertex 62.9098 3.1 -27.3616
      vertex 59.5 3.1 -27.4
      vertex 62.5346 3.1 -27.2478
    endloop
  endfacet
  facet normal 0 1 0
    outer loop
      vertex 59.5 3.1 -27.4
      vertex 62.9098 3.1 -27.3616
      vertex 63.3 3.1 -27.4
    endloop
  endfacet
  facet normal 0 1 -0
    outer loop
      vertex 46.84 3.1 -17.4
      vertex 0.459999 3.1 -2.1
      vertex 46.84 3.1 -2.1
    endloop
  endfacet
  facet normal 0 1 0
    outer loop
      vertex 0.459999 3.1 -2.1
      vertex 46.84 3.1 -17.4
      vertex 0.459999 3.1 -17.4
    endloop
  endfacet
  facet normal 0 1 0
    outer loop
      vertex -7.75494 3.1 -18.2889
      vertex -8.092 3.1 -19.4
      vertex -7.93976 3.1 -18.6346
    endloop
  endfacet
  facet normal 0 1 0
    outer loop
      vertex -7.93976 3.1 -18.6346
      vertex -8.092 3.1 -19.4
      vertex -8.05357 3.1 -19.0098
    endloop
  endfacet
  facet normal 0 1 0
    outer loop
      vertex -8.092 3.1 -19.4
      vertex -6.092 3.1 -27.4
      vertex -8.092 3.1 -25.4
    endloop
  endfacet
  facet normal 0 1 0
    outer loop
      vertex -8.092 3.1 -25.4
      vertex -6.092 3.1 -27.4
      vertex -8.05357 3.1 -25.7902
    endloop
  endfacet
  facet normal 0 1 0
    outer loop
      vertex -8.05357 3.1 -25.7902
      vertex -6.092 3.1 -27.4
      vertex -7.93976 3.1 -26.1654
    endloop
  endfacet
  facet normal 0 1 0
    outer loop
      vertex -7.93976 3.1 -26.1654
      vertex -6.092 3.1 -27.4
      vertex -7.75494 3.1 -26.5111
    endloop
  endfacet
  facet normal 0 1 0
    outer loop
      vertex -7.75494 3.1 -26.5111
      vertex -6.092 3.1 -27.4
      vertex -7.50621 3.1 -26.8142
    endloop
  endfacet
  facet normal 0 1 0
    outer loop
      vertex -7.50621 3.1 -26.8142
      vertex -6.092 3.1 -27.4
      vertex -7.20314 3.1 -27.0629
    endloop
  endfacet
  facet normal 0 1 0
    outer loop
      vertex -7.20314 3.1 -27.0629
      vertex -6.092 3.1 -27.4
      vertex -6.85737 3.1 -27.2478
    endloop
  endfacet
  facet normal 0 1 0
    outer loop
      vertex 0.459999 3.1 -17.4
      vertex 51.5 3.1 -27.4
      vertex -6.092 3.1 -27.4
    endloop
  endfacet
  facet normal 0 1 0
    outer loop
      vertex -6.85737 3.1 -27.2478
      vertex -6.092 3.1 -27.4
      vertex -6.48218 3.1 -27.3616
    endloop
  endfacet
  facet normal 0 -1 0
    outer loop
      vertex -6.092 0 -27.4
      vertex 0.459999 0 -17.4
      vertex -6.092 0 -17.4
    endloop
  endfacet
  facet normal 0 -1 -0
    outer loop
      vertex 0.459999 0 -17.4
      vertex -6.092 0 -27.4
      vertex 46.84 0 -17.4
    endloop
  endfacet
  facet normal 0 -1 0
    outer loop
      vertex -8.092 0 -19.4
      vertex -6.092 0 -17.4
      vertex -6.48218 0 -17.4384
    endloop
  endfacet
  facet normal 0 -1 0
    outer loop
      vertex 63.3 0 -27.4
      vertex 46.84 0 -17.4
      vertex -6.092 0 -27.4
    endloop
  endfacet
  facet normal 0 -1 0
    outer loop
      vertex -8.092 0 -19.4
      vertex -6.48218 0 -17.4384
      vertex -6.85737 0 -17.5522
    endloop
  endfacet
  facet normal 0 -1 0
    outer loop
      vertex 46.84 0 -17.4
      vertex 63.3 0 -27.4
      vertex 63.3 0 -17.4
    endloop
  endfacet
  facet normal 0 -1 0
    outer loop
      vertex -8.092 0 -19.4
      vertex -6.85737 0 -17.5522
      vertex -7.20314 0 -17.7371
    endloop
  endfacet
  facet normal -0 -1 0
    outer loop
      vertex 65.3 0 -19.4
      vertex 63.3 0 -17.4
      vertex 63.3 0 -27.4
    endloop
  endfacet
  facet normal 0 -1 0
    outer loop
      vertex -8.092 0 -19.4
      vertex -7.20314 0 -17.7371
      vertex -7.50621 0 -17.9858
    endloop
  endfacet
  facet normal 0 -1 0
    outer loop
      vertex 63.3 0 -17.4
      vertex 65.3 0 -19.4
      vertex 63.6902 0 -17.4384
    endloop
  endfacet
  facet normal 0 -1 0
    outer loop
      vertex -8.092 0 -19.4
      vertex -7.50621 0 -17.9858
      vertex -7.75494 0 -18.2889
    endloop
  endfacet
  facet normal 0 -1 0
    outer loop
      vertex 63.6902 0 -17.4384
      vertex 65.3 0 -19.4
      vertex 64.0654 0 -17.5522
    endloop
  endfacet
  facet normal 0 -1 0
    outer loop
      vertex -8.092 0 -19.4
      vertex -7.75494 0 -18.2889
      vertex -7.93976 0 -18.6346
    endloop
  endfacet
  facet normal 0 -1 0
    outer loop
      vertex 64.0654 0 -17.5522
      vertex 65.3 0 -19.4
      vertex 64.4111 0 -17.7371
    endloop
  endfacet
  facet normal 0 -1 0
    outer loop
      vertex -8.092 0 -19.4
      vertex -7.93976 0 -18.6346
      vertex -8.05357 0 -19.0098
    endloop
  endfacet
  facet normal 0 -1 0
    outer loop
      vertex 64.4111 0 -17.7371
      vertex 65.3 0 -19.4
      vertex 64.7142 0 -17.9858
    endloop
  endfacet
  facet normal 0 -1 -0
    outer loop
      vertex -6.092 0 -17.4
      vertex -8.092 0 -19.4
      vertex -6.092 0 -27.4
    endloop
  endfacet
  facet normal 0 -1 0
    outer loop
      vertex 64.7142 0 -17.9858
      vertex 65.3 0 -19.4
      vertex 64.9629 0 -18.2889
    endloop
  endfacet
  facet normal 0 -1 0
    outer loop
      vertex -6.092 0 -27.4
      vertex -8.092 0 -19.4
      vertex -8.092 0 -25.4
    endloop
  endfacet
  facet normal 0 -1 0
    outer loop
      vertex 64.9629 0 -18.2889
      vertex 65.3 0 -19.4
      vertex 65.1478 0 -18.6346
    endloop
  endfacet
  facet normal 0 -1 0
    outer loop
      vertex -6.092 0 -27.4
      vertex -8.092 0 -25.4
      vertex -8.05357 0 -25.7902
    endloop
  endfacet
  facet normal 0 -1 0
    outer loop
      vertex 65.1478 0 -18.6346
      vertex 65.3 0 -19.4
      vertex 65.2616 0 -19.0098
    endloop
  endfacet
  facet normal 0 -1 0
    outer loop
      vertex -6.092 0 -27.4
      vertex -8.05357 0 -25.7902
      vertex -7.93976 0 -26.1654
    endloop
  endfacet
  facet normal 0 -1 -0
    outer loop
      vertex 65.3 0 -19.4
      vertex 63.3 0 -27.4
      vertex 65.3 0 -25.4
    endloop
  endfacet
  facet normal 0 -1 0
    outer loop
      vertex -6.092 0 -27.4
      vertex -7.93976 0 -26.1654
      vertex -7.75494 0 -26.5111
    endloop
  endfacet
  facet normal 0 -1 0
    outer loop
      vertex 65.3 0 -25.4
      vertex 63.3 0 -27.4
      vertex 65.2616 0 -25.7902
    endloop
  endfacet
  facet normal 0 -1 0
    outer loop
      vertex -6.092 0 -27.4
      vertex -7.75494 0 -26.5111
      vertex -7.50621 0 -26.8142
    endloop
  endfacet
  facet normal 0 -1 0
    outer loop
      vertex 65.2616 0 -25.7902
      vertex 63.3 0 -27.4
      vertex 65.1478 0 -26.1654
    endloop
  endfacet
  facet normal 0 -1 0
    outer loop
      vertex -6.092 0 -27.4
      vertex -7.50621 0 -26.8142
      vertex -7.20314 0 -27.0629
    endloop
  endfacet
  facet normal 0 -1 0
    outer loop
      vertex 65.1478 0 -26.1654
      vertex 63.3 0 -27.4
      vertex 64.9629 0 -26.5111
    endloop
  endfacet
  facet normal 0 -1 0
    outer loop
      vertex -6.092 0 -27.4
      vertex -7.20314 0 -27.0629
      vertex -6.85737 0 -27.2478
    endloop
  endfacet
  facet normal 0 -1 0
    outer loop
      vertex 64.9629 0 -26.5111
      vertex 63.3 0 -27.4
      vertex 64.7142 0 -26.8142
    endloop
  endfacet
  facet normal 0 -1 0
    outer loop
      vertex -6.092 0 -27.4
      vertex -6.85737 0 -27.2478
      vertex -6.48218 0 -27.3616
    endloop
  endfacet
  facet normal 0 -1 0
    outer loop
      vertex 64.7142 0 -26.8142
      vertex 63.3 0 -27.4
      vertex 64.4111 0 -27.0629
    endloop
  endfacet
  facet normal 0 -1 0
    outer loop
      vertex 64.4111 0 -27.0629
      vertex 63.3 0 -27.4
      vertex 64.0654 0 -27.2478
    endloop
  endfacet
  facet normal 0 -1 0
    outer loop
      vertex 64.0654 0 -27.2478
      vertex 63.3 0 -27.4
      vertex 63.6902 0 -27.3616
    endloop
  endfacet
  facet normal 0 -1 0
    outer loop
      vertex 0.459999 0 -17.4
      vertex 46.84 0 -2.1
      vertex 0.459999 0 -2.1
    endloop
  endfacet
  facet normal 0 -1 -0
    outer loop
      vertex 46.84 0 -2.1
      vertex 0.459999 0 -17.4
      vertex 46.84 0 -17.4
    endloop
  endfacet
  facet normal -1 0 0
    outer loop
      vertex 0.459999 3.1 -17.4
      vertex 0.459999 3.09849 -2.1
      vertex 0.459999 3.1 -2.1
    endloop
  endfacet
  facet normal -1 0 0
    outer loop
      vertex 0.459999 0.00150061 -2.1
      vertex 0.459999 3.09849 -2.1
      vertex 0.459999 3.1 -17.4
    endloop
  endfacet
  facet normal -1 0 0
    outer loop
      vertex 0.459999 3.09849 -2.1
      vertex 0.459999 0.00150061 -2.1
      vertex 0.459999 1.54999 -1.06767
    endloop
  endfacet
  facet normal -1 0 0
    outer loop
      vertex 0.459999 0 -17.4
      vertex 0.459999 0.00150061 -2.1
      vertex 0.459999 3.1 -17.4
    endloop
  endfacet
  facet normal -1 -0 0
    outer loop
      vertex 0.459999 0.00150061 -2.1
      vertex 0.459999 0 -17.4
      vertex 0.459999 0 -2.1
    endloop
  endfacet
  facet normal 0 0 -1
    outer loop
      vertex 63.3 0 -27.4
      vertex 59.5 1 -27.4
      vertex 63.3 3.1 -27.4
    endloop
  endfacet
  facet normal 0 0 -1
    outer loop
      vertex 63.3 0 -27.4
      vertex 51.5 1 -27.4
      vertex 59.5 1 -27.4
    endloop
  endfacet
  facet normal 0 0 -1
    outer loop
      vertex -6.092 0 -27.4
      vertex 51.5 1 -27.4
      vertex 63.3 0 -27.4
    endloop
  endfacet
  facet normal 0 0 -1
    outer loop
      vertex -6.092 3.1 -27.4
      vertex 51.5 1 -27.4
      vertex -6.092 0 -27.4
    endloop
  endfacet
  facet normal 0 0 -1
    outer loop
      vertex 51.5 1 -27.4
      vertex -6.092 3.1 -27.4
      vertex 51.5 3.1 -27.4
    endloop
  endfacet
  facet normal -0 0 -1
    outer loop
      vertex 63.3 3.1 -27.4
      vertex 59.5 1 -27.4
      vertex 59.5 3.1 -27.4
    endloop
  endfacet
  facet normal -0 0 1
    outer loop
      vertex 0.459999 3.1 -2.1
      vertex 46.84 3.09849 -2.1
      vertex 46.84 3.1 -2.1
    endloop
  endfacet
  facet normal 0 0 1
    outer loop
      vertex 46.84 3.09849 -2.1
      vertex 0.459999 3.1 -2.1
      vertex 0.459999 3.09849 -2.1
    endloop
  endfacet
  facet normal -0 0 1
    outer loop
      vertex 0.459999 0.00150061 -2.1
      vertex 46.84 0 -2.1
      vertex 46.84 0.00150061 -2.1
    endloop
  endfacet
  facet normal 0 0 1
    outer loop
      vertex 46.84 0 -2.1
      vertex 0.459999 0.00150061 -2.1
      vertex 0.459999 0 -2.1
    endloop
  endfacet
  facet normal -0 0.554699 0.832051
    outer loop
      vertex 0.459999 3.09849 -2.1
      vertex 46.84 1.54999 -1.06767
      vertex 46.84 3.09849 -2.1
    endloop
  endfacet
  facet normal 0 0.554699 0.832051
    outer loop
      vertex 46.84 1.54999 -1.06767
      vertex 0.459999 3.09849 -2.1
      vertex 0.459999 1.54999 -1.06767
    endloop
  endfacet
  facet normal 0 -0.554702 0.832049
    outer loop
      vertex 0.459999 1.54999 -1.06767
      vertex 46.84 0.00150061 -2.1
      vertex 46.84 1.54999 -1.06767
    endloop
  endfacet
  facet normal 0 -0.554702 0.832049
    outer loop
      vertex 46.84 0.00150061 -2.1
      vertex 0.459999 1.54999 -1.06767
      vertex 0.459999 0.00150061 -2.1
    endloop
  endfacet
  facet normal 1 -0 0
    outer loop
      vertex 65.3 0 -19.4
      vertex 65.3 13 -25.4
      vertex 65.3 13 -19.4
    endloop
  endfacet
  facet normal 1 0 0
    outer loop
      vertex 65.3 13 -25.4
      vertex 65.3 0 -19.4
      vertex 65.3 0 -25.4
    endloop
  endfacet
  facet normal 0.995193 -0 0.097938
    outer loop
      vertex 65.2616 0 -19.0098
      vertex 65.3 13 -19.4
      vertex 65.2616 13 -19.0098
    endloop
  endfacet
  facet normal 0.995193 0 0.097938
    outer loop
      vertex 65.3 13 -19.4
      vertex 65.2616 0 -19.0098
      vertex 65.3 0 -19.4
    endloop
  endfacet
  facet normal 0.097938 0 -0.995193
    outer loop
      vertex 63.3 3.1 -27.4
      vertex 63.6902 0 -27.3616
      vertex 63.3 0 -27.4
    endloop
  endfacet
  facet normal 0.097938 0 -0.995193
    outer loop
      vertex 63.6902 0 -27.3616
      vertex 63.3 3.1 -27.4
      vertex 63.6902 13 -27.3616
    endloop
  endfacet
  facet normal 0.097938 0 -0.995193
    outer loop
      vertex 63.6902 13 -27.3616
      vertex 63.3 3.1 -27.4
      vertex 63.3 13 -27.4
    endloop
  endfacet
  facet normal -0.773033 0 -0.634366
    outer loop
      vertex -7.50621 0 -26.8142
      vertex -7.75494 3.1 -26.5111
      vertex -7.50621 3.1 -26.8142
    endloop
  endfacet
  facet normal -0.773033 -0 -0.634366
    outer loop
      vertex -7.75494 3.1 -26.5111
      vertex -7.50621 0 -26.8142
      vertex -7.75494 0 -26.5111
    endloop
  endfacet
  facet normal 0.77307 -0 0.634321
    outer loop
      vertex 64.7142 0 -17.9858
      vertex 64.9629 13 -18.2889
      vertex 64.7142 13 -17.9858
    endloop
  endfacet
  facet normal 0.77307 0 0.634321
    outer loop
      vertex 64.9629 13 -18.2889
      vertex 64.7142 0 -17.9858
      vertex 64.9629 0 -18.2889
    endloop
  endfacet
  facet normal 0.634321 0 -0.77307
    outer loop
      vertex 64.4111 0 -27.0629
      vertex 64.7142 13 -26.8142
      vertex 64.7142 0 -26.8142
    endloop
  endfacet
  facet normal 0.634321 0 -0.77307
    outer loop
      vertex 64.7142 13 -26.8142
      vertex 64.4111 0 -27.0629
      vertex 64.4111 13 -27.0629
    endloop
  endfacet
  facet normal -0 0 1
    outer loop
      vertex 46.84 3.1 -17.4
      vertex 63.3 0 -17.4
      vertex 63.3 3.1 -17.4
    endloop
  endfacet
  facet normal 0 0 1
    outer loop
      vertex 63.3 0 -17.4
      vertex 46.84 3.1 -17.4
      vertex 46.84 0 -17.4
    endloop
  endfacet
  facet normal -0 0 1
    outer loop
      vertex -6.092 3.1 -17.4
      vertex 0.459999 0 -17.4
      vertex 0.459999 3.1 -17.4
    endloop
  endfacet
  facet normal 0 0 1
    outer loop
      vertex 0.459999 0 -17.4
      vertex -6.092 3.1 -17.4
      vertex -6.092 0 -17.4
    endloop
  endfacet
  facet normal -0.634358 0 -0.773039
    outer loop
      vertex -7.50621 0 -26.8142
      vertex -7.20314 3.1 -27.0629
      vertex -7.20314 0 -27.0629
    endloop
  endfacet
  facet normal -0.634358 0 -0.773039
    outer loop
      vertex -7.20314 3.1 -27.0629
      vertex -7.50621 0 -26.8142
      vertex -7.50621 3.1 -26.8142
    endloop
  endfacet
  facet normal -0.773033 0 0.634366
    outer loop
      vertex -7.75494 0 -18.2889
      vertex -7.50621 3.1 -17.9858
      vertex -7.75494 3.1 -18.2889
    endloop
  endfacet
  facet normal -0.773033 0 0.634366
    outer loop
      vertex -7.50621 3.1 -17.9858
      vertex -7.75494 0 -18.2889
      vertex -7.50621 0 -17.9858
    endloop
  endfacet
  facet normal -1 0 0
    outer loop
      vertex -8.092 0 -25.4
      vertex -8.092 3.1 -19.4
      vertex -8.092 3.1 -25.4
    endloop
  endfacet
  facet normal -1 -0 0
    outer loop
      vertex -8.092 3.1 -19.4
      vertex -8.092 0 -25.4
      vertex -8.092 0 -19.4
    endloop
  endfacet
  facet normal 0.634321 0 0.77307
    outer loop
      vertex 64.4111 13 -17.7371
      vertex 64.7142 0 -17.9858
      vertex 64.7142 13 -17.9858
    endloop
  endfacet
  facet normal 0.634321 0 0.77307
    outer loop
      vertex 64.7142 0 -17.9858
      vertex 64.4111 13 -17.7371
      vertex 64.4111 0 -17.7371
    endloop
  endfacet
  facet normal -0.47156 0 -0.881834
    outer loop
      vertex -7.20314 0 -27.0629
      vertex -6.85737 3.1 -27.2478
      vertex -6.85737 0 -27.2478
    endloop
  endfacet
  facet normal -0.47156 0 -0.881834
    outer loop
      vertex -6.85737 3.1 -27.2478
      vertex -7.20314 0 -27.0629
      vertex -7.20314 3.1 -27.0629
    endloop
  endfacet
  facet normal -0.290255 0 0.956949
    outer loop
      vertex -6.85737 3.1 -17.5522
      vertex -6.48218 0 -17.4384
      vertex -6.48218 3.1 -17.4384
    endloop
  endfacet
  facet normal -0.290255 0 0.956949
    outer loop
      vertex -6.48218 0 -17.4384
      vertex -6.85737 3.1 -17.5522
      vertex -6.85737 0 -17.5522
    endloop
  endfacet
  facet normal -0.0979429 0 0.995192
    outer loop
      vertex -6.48218 3.1 -17.4384
      vertex -6.092 0 -17.4
      vertex -6.092 3.1 -17.4
    endloop
  endfacet
  facet normal -0.0979429 0 0.995192
    outer loop
      vertex -6.092 0 -17.4
      vertex -6.48218 3.1 -17.4384
      vertex -6.48218 0 -17.4384
    endloop
  endfacet
  facet normal 0.881795 0 -0.471634
    outer loop
      vertex 65.1478 0 -26.1654
      vertex 64.9629 13 -26.5111
      vertex 65.1478 13 -26.1654
    endloop
  endfacet
  facet normal 0.881795 0 -0.471634
    outer loop
      vertex 64.9629 13 -26.5111
      vertex 65.1478 0 -26.1654
      vertex 64.9629 0 -26.5111
    endloop
  endfacet
  facet normal 0.956951 0 -0.290248
    outer loop
      vertex 65.2616 0 -25.7902
      vertex 65.1478 13 -26.1654
      vertex 65.2616 13 -25.7902
    endloop
  endfacet
  facet normal 0.956951 0 -0.290248
    outer loop
      vertex 65.1478 13 -26.1654
      vertex 65.2616 0 -25.7902
      vertex 65.1478 0 -26.1654
    endloop
  endfacet
  facet normal -0.634358 0 0.773039
    outer loop
      vertex -7.50621 3.1 -17.9858
      vertex -7.20314 0 -17.7371
      vertex -7.20314 3.1 -17.7371
    endloop
  endfacet
  facet normal -0.634358 0 0.773039
    outer loop
      vertex -7.20314 0 -17.7371
      vertex -7.50621 3.1 -17.9858
      vertex -7.50621 0 -17.9858
    endloop
  endfacet
  facet normal -0.995185 0 -0.0980137
    outer loop
      vertex -8.05357 0 -25.7902
      vertex -8.092 3.1 -25.4
      vertex -8.05357 3.1 -25.7902
    endloop
  endfacet
  facet normal -0.995185 -0 -0.0980137
    outer loop
      vertex -8.092 3.1 -25.4
      vertex -8.05357 0 -25.7902
      vertex -8.092 0 -25.4
    endloop
  endfacet
  facet normal -0.956944 0 -0.290271
    outer loop
      vertex -7.93976 0 -26.1654
      vertex -8.05357 3.1 -25.7902
      vertex -7.93976 3.1 -26.1654
    endloop
  endfacet
  facet normal -0.956944 -0 -0.290271
    outer loop
      vertex -8.05357 3.1 -25.7902
      vertex -7.93976 0 -26.1654
      vertex -8.05357 0 -25.7902
    endloop
  endfacet
  facet normal 0.956951 -0 0.290248
    outer loop
      vertex 65.1478 0 -18.6346
      vertex 65.2616 13 -19.0098
      vertex 65.1478 13 -18.6346
    endloop
  endfacet
  facet normal 0.956951 0 0.290248
    outer loop
      vertex 65.2616 13 -19.0098
      vertex 65.1478 0 -18.6346
      vertex 65.2616 0 -19.0098
    endloop
  endfacet
  facet normal 0.290248 0 0.956951
    outer loop
      vertex 63.6902 13 -17.4384
      vertex 64.0654 0 -17.5522
      vertex 64.0654 13 -17.5522
    endloop
  endfacet
  facet normal 0.290248 0 0.956951
    outer loop
      vertex 64.0654 0 -17.5522
      vertex 63.6902 13 -17.4384
      vertex 63.6902 0 -17.4384
    endloop
  endfacet
  facet normal -0.290255 0 -0.956949
    outer loop
      vertex -6.85737 0 -27.2478
      vertex -6.48218 3.1 -27.3616
      vertex -6.48218 0 -27.3616
    endloop
  endfacet
  facet normal -0.290255 0 -0.956949
    outer loop
      vertex -6.48218 3.1 -27.3616
      vertex -6.85737 0 -27.2478
      vertex -6.85737 3.1 -27.2478
    endloop
  endfacet
  facet normal 0.77307 0 -0.634321
    outer loop
      vertex 64.9629 0 -26.5111
      vertex 64.7142 13 -26.8142
      vertex 64.9629 13 -26.5111
    endloop
  endfacet
  facet normal 0.77307 0 -0.634321
    outer loop
      vertex 64.7142 13 -26.8142
      vertex 64.9629 0 -26.5111
      vertex 64.7142 0 -26.8142
    endloop
  endfacet
  facet normal 0.471634 0 0.881795
    outer loop
      vertex 64.0654 13 -17.5522
      vertex 64.4111 0 -17.7371
      vertex 64.4111 13 -17.7371
    endloop
  endfacet
  facet normal 0.471634 0 0.881795
    outer loop
      vertex 64.4111 0 -17.7371
      vertex 64.0654 13 -17.5522
      vertex 64.0654 0 -17.5522
    endloop
  endfacet
  facet normal -0.881879 0 0.471475
    outer loop
      vertex -7.93976 0 -18.6346
      vertex -7.75494 3.1 -18.2889
      vertex -7.93976 3.1 -18.6346
    endloop
  endfacet
  facet normal -0.881879 0 0.471475
    outer loop
      vertex -7.75494 3.1 -18.2889
      vertex -7.93976 0 -18.6346
      vertex -7.75494 0 -18.2889
    endloop
  endfacet
  facet normal -0.995185 0 0.0980137
    outer loop
      vertex -8.092 0 -19.4
      vertex -8.05357 3.1 -19.0098
      vertex -8.092 3.1 -19.4
    endloop
  endfacet
  facet normal -0.995185 0 0.0980137
    outer loop
      vertex -8.05357 3.1 -19.0098
      vertex -8.092 0 -19.4
      vertex -8.05357 0 -19.0098
    endloop
  endfacet
  facet normal -0.881879 0 -0.471475
    outer loop
      vertex -7.75494 0 -26.5111
      vertex -7.93976 3.1 -26.1654
      vertex -7.75494 3.1 -26.5111
    endloop
  endfacet
  facet normal -0.881879 -0 -0.471475
    outer loop
      vertex -7.93976 3.1 -26.1654
      vertex -7.75494 0 -26.5111
      vertex -7.93976 0 -26.1654
    endloop
  endfacet
  facet normal 0.290248 0 -0.956951
    outer loop
      vertex 63.6902 0 -27.3616
      vertex 64.0654 13 -27.2478
      vertex 64.0654 0 -27.2478
    endloop
  endfacet
  facet normal 0.290248 0 -0.956951
    outer loop
      vertex 64.0654 13 -27.2478
      vertex 63.6902 0 -27.3616
      vertex 63.6902 13 -27.3616
    endloop
  endfacet
  facet normal -0.0979429 0 -0.995192
    outer loop
      vertex -6.48218 0 -27.3616
      vertex -6.092 3.1 -27.4
      vertex -6.092 0 -27.4
    endloop
  endfacet
  facet normal -0.0979429 0 -0.995192
    outer loop
      vertex -6.092 3.1 -27.4
      vertex -6.48218 0 -27.3616
      vertex -6.48218 3.1 -27.3616
    endloop
  endfacet
  facet normal -0.47156 0 0.881834
    outer loop
      vertex -7.20314 3.1 -17.7371
      vertex -6.85737 0 -17.5522
      vertex -6.85737 3.1 -17.5522
    endloop
  endfacet
  facet normal -0.47156 0 0.881834
    outer loop
      vertex -6.85737 0 -17.5522
      vertex -7.20314 3.1 -17.7371
      vertex -7.20314 0 -17.7371
    endloop
  endfacet
  facet normal 0.881795 -0 0.471634
    outer loop
      vertex 64.9629 0 -18.2889
      vertex 65.1478 13 -18.6346
      vertex 64.9629 13 -18.2889
    endloop
  endfacet
  facet normal 0.881795 0 0.471634
    outer loop
      vertex 65.1478 13 -18.6346
      vertex 64.9629 0 -18.2889
      vertex 65.1478 0 -18.6346
    endloop
  endfacet
  facet normal -0.956944 0 0.290271
    outer loop
      vertex -8.05357 0 -19.0098
      vertex -7.93976 3.1 -18.6346
      vertex -8.05357 3.1 -19.0098
    endloop
  endfacet
  facet normal -0.956944 0 0.290271
    outer loop
      vertex -7.93976 3.1 -18.6346
      vertex -8.05357 0 -19.0098
      vertex -7.93976 0 -18.6346
    endloop
  endfacet
  facet normal 0.471634 0 -0.881795
    outer loop
      vertex 64.0654 0 -27.2478
      vertex 64.4111 13 -27.0629
      vertex 64.4111 0 -27.0629
    endloop
  endfacet
  facet normal 0.471634 0 -0.881795
    outer loop
      vertex 64.4111 13 -27.0629
      vertex 64.0654 0 -27.2478
      vertex 64.0654 13 -27.2478
    endloop
  endfacet
  facet normal 0.097938 -0 0.995193
    outer loop
      vertex 63.3 3.1 -17.4
      vertex 63.6902 13 -17.4384
      vertex 63.3 13 -17.4
    endloop
  endfacet
  facet normal 0.097938 0 0.995193
    outer loop
      vertex 63.6902 13 -17.4384
      vertex 63.3 3.1 -17.4
      vertex 63.6902 0 -17.4384
    endloop
  endfacet
  facet normal 0.097938 0 0.995193
    outer loop
      vertex 63.6902 0 -17.4384
      vertex 63.3 3.1 -17.4
      vertex 63.3 0 -17.4
    endloop
  endfacet
  facet normal 0.995193 0 -0.097938
    outer loop
      vertex 65.3 0 -25.4
      vertex 65.2616 13 -25.7902
      vertex 65.3 13 -25.4
    endloop
  endfacet
  facet normal 0.995193 0 -0.097938
    outer loop
      vertex 65.2616 13 -25.7902
      vertex 65.3 0 -25.4
      vertex 65.2616 0 -25.7902
    endloop
  endfacet
  facet normal -0.097938 0 0.995193
    outer loop
      vertex 62.9098 13 -17.4384
      vertex 63.3 3.1 -17.4
      vertex 63.3 13 -17.4
    endloop
  endfacet
  facet normal -0.097938 0 0.995193
    outer loop
      vertex 63.3 3.1 -17.4
      vertex 62.9098 13 -17.4384
      vertex 62.9098 3.1 -17.4384
    endloop
  endfacet
  facet normal -0.471634 0 -0.881795
    outer loop
      vertex 62.1889 3.1 -27.0629
      vertex 62.5346 13 -27.2478
      vertex 62.5346 3.1 -27.2478
    endloop
  endfacet
  facet normal -0.471634 0 -0.881795
    outer loop
      vertex 62.5346 13 -27.2478
      vertex 62.1889 3.1 -27.0629
      vertex 62.1889 13 -27.0629
    endloop
  endfacet
  facet normal -0.77307 0 -0.634321
    outer loop
      vertex 61.8858 3.1 -26.8142
      vertex 61.6371 13 -26.5111
      vertex 61.8858 13 -26.8142
    endloop
  endfacet
  facet normal -0.77307 -0 -0.634321
    outer loop
      vertex 61.6371 13 -26.5111
      vertex 61.8858 3.1 -26.8142
      vertex 61.6371 3.1 -26.5111
    endloop
  endfacet
  facet normal -0.290248 0 0.956951
    outer loop
      vertex 62.5346 13 -17.5522
      vertex 62.9098 3.1 -17.4384
      vertex 62.9098 13 -17.4384
    endloop
  endfacet
  facet normal -0.290248 0 0.956951
    outer loop
      vertex 62.9098 3.1 -17.4384
      vertex 62.5346 13 -17.5522
      vertex 62.5346 3.1 -17.5522
    endloop
  endfacet
  facet normal -0.290248 0 -0.956951
    outer loop
      vertex 62.5346 3.1 -27.2478
      vertex 62.9098 13 -27.3616
      vertex 62.9098 3.1 -27.3616
    endloop
  endfacet
  facet normal -0.290248 0 -0.956951
    outer loop
      vertex 62.9098 13 -27.3616
      vertex 62.5346 3.1 -27.2478
      vertex 62.5346 13 -27.2478
    endloop
  endfacet
  facet normal -0.77307 0 0.634321
    outer loop
      vertex 61.6371 3.1 -18.2889
      vertex 61.8858 13 -17.9858
      vertex 61.6371 13 -18.2889
    endloop
  endfacet
  facet normal -0.77307 0 0.634321
    outer loop
      vertex 61.8858 13 -17.9858
      vertex 61.6371 3.1 -18.2889
      vertex 61.8858 3.1 -17.9858
    endloop
  endfacet
  facet normal -0.097938 0 -0.995193
    outer loop
      vertex 62.9098 3.1 -27.3616
      vertex 63.3 13 -27.4
      vertex 63.3 3.1 -27.4
    endloop
  endfacet
  facet normal -0.097938 0 -0.995193
    outer loop
      vertex 63.3 13 -27.4
      vertex 62.9098 3.1 -27.3616
      vertex 62.9098 13 -27.3616
    endloop
  endfacet
  facet normal -1 0 0
    outer loop
      vertex 61.3 3.1 -25.4
      vertex 61.3 13 -19.4
      vertex 61.3 13 -25.4
    endloop
  endfacet
  facet normal -1 -0 0
    outer loop
      vertex 61.3 13 -19.4
      vertex 61.3 3.1 -25.4
      vertex 61.3 3.1 -19.4
    endloop
  endfacet
  facet normal -0.881795 0 -0.471634
    outer loop
      vertex 61.6371 3.1 -26.5111
      vertex 61.4522 13 -26.1654
      vertex 61.6371 13 -26.5111
    endloop
  endfacet
  facet normal -0.881795 -0 -0.471634
    outer loop
      vertex 61.4522 13 -26.1654
      vertex 61.6371 3.1 -26.5111
      vertex 61.4522 3.1 -26.1654
    endloop
  endfacet
  facet normal -0.995193 0 -0.097938
    outer loop
      vertex 61.3384 3.1 -25.7902
      vertex 61.3 13 -25.4
      vertex 61.3384 13 -25.7902
    endloop
  endfacet
  facet normal -0.995193 -0 -0.097938
    outer loop
      vertex 61.3 13 -25.4
      vertex 61.3384 3.1 -25.7902
      vertex 61.3 3.1 -25.4
    endloop
  endfacet
  facet normal -0.634321 0 0.77307
    outer loop
      vertex 61.8858 13 -17.9858
      vertex 62.1889 3.1 -17.7371
      vertex 62.1889 13 -17.7371
    endloop
  endfacet
  facet normal -0.634321 0 0.77307
    outer loop
      vertex 62.1889 3.1 -17.7371
      vertex 61.8858 13 -17.9858
      vertex 61.8858 3.1 -17.9858
    endloop
  endfacet
  facet normal -0.995193 0 0.097938
    outer loop
      vertex 61.3 3.1 -19.4
      vertex 61.3384 13 -19.0098
      vertex 61.3 13 -19.4
    endloop
  endfacet
  facet normal -0.995193 0 0.097938
    outer loop
      vertex 61.3384 13 -19.0098
      vertex 61.3 3.1 -19.4
      vertex 61.3384 3.1 -19.0098
    endloop
  endfacet
  facet normal -0.956951 0 -0.290248
    outer loop
      vertex 61.4522 3.1 -26.1654
      vertex 61.3384 13 -25.7902
      vertex 61.4522 13 -26.1654
    endloop
  endfacet
  facet normal -0.956951 -0 -0.290248
    outer loop
      vertex 61.3384 13 -25.7902
      vertex 61.4522 3.1 -26.1654
      vertex 61.3384 3.1 -25.7902
    endloop
  endfacet
  facet normal -0.634321 0 -0.77307
    outer loop
      vertex 61.8858 3.1 -26.8142
      vertex 62.1889 13 -27.0629
      vertex 62.1889 3.1 -27.0629
    endloop
  endfacet
  facet normal -0.634321 0 -0.77307
    outer loop
      vertex 62.1889 13 -27.0629
      vertex 61.8858 3.1 -26.8142
      vertex 61.8858 13 -26.8142
    endloop
  endfacet
  facet normal 0 1 0
    outer loop
      vertex 63.6902 13 -17.4384
      vertex 62.9098 13 -17.4384
      vertex 63.3 13 -17.4
    endloop
  endfacet
  facet normal 0 1 0
    outer loop
      vertex 64.0654 13 -17.5522
      vertex 62.9098 13 -17.4384
      vertex 63.6902 13 -17.4384
    endloop
  endfacet
  facet normal 0 1 0
    outer loop
      vertex 64.0654 13 -17.5522
      vertex 62.5346 13 -17.5522
      vertex 62.9098 13 -17.4384
    endloop
  endfacet
  facet normal 0 1 0
    outer loop
      vertex 64.4111 13 -17.7371
      vertex 62.5346 13 -17.5522
      vertex 64.0654 13 -17.5522
    endloop
  endfacet
  facet normal 0 1 0
    outer loop
      vertex 64.4111 13 -17.7371
      vertex 62.1889 13 -17.7371
      vertex 62.5346 13 -17.5522
    endloop
  endfacet
  facet normal 0 1 0
    outer loop
      vertex 64.7142 13 -17.9858
      vertex 62.1889 13 -17.7371
      vertex 64.4111 13 -17.7371
    endloop
  endfacet
  facet normal 0 1 0
    outer loop
      vertex 64.7142 13 -17.9858
      vertex 61.8858 13 -17.9858
      vertex 62.1889 13 -17.7371
    endloop
  endfacet
  facet normal 0 1 0
    outer loop
      vertex 64.9629 13 -18.2889
      vertex 61.8858 13 -17.9858
      vertex 64.7142 13 -17.9858
    endloop
  endfacet
  facet normal 0 1 0
    outer loop
      vertex 64.9629 13 -18.2889
      vertex 61.6371 13 -18.2889
      vertex 61.8858 13 -17.9858
    endloop
  endfacet
  facet normal 0 1 0
    outer loop
      vertex 65.1478 13 -18.6346
      vertex 61.6371 13 -18.2889
      vertex 64.9629 13 -18.2889
    endloop
  endfacet
  facet normal 0 1 0
    outer loop
      vertex 65.1478 13 -18.6346
      vertex 61.4522 13 -18.6346
      vertex 61.6371 13 -18.2889
    endloop
  endfacet
  facet normal 0 1 0
    outer loop
      vertex 65.2616 13 -19.0098
      vertex 61.4522 13 -18.6346
      vertex 65.1478 13 -18.6346
    endloop
  endfacet
  facet normal 0 1 0
    outer loop
      vertex 65.2616 13 -19.0098
      vertex 61.3384 13 -19.0098
      vertex 61.4522 13 -18.6346
    endloop
  endfacet
  facet normal 0 1 0
    outer loop
      vertex 65.3 13 -19.4
      vertex 61.3384 13 -19.0098
      vertex 65.2616 13 -19.0098
    endloop
  endfacet
  facet normal 0 1 0
    outer loop
      vertex 65.3 13 -19.4
      vertex 61.3 13 -19.4
      vertex 61.3384 13 -19.0098
    endloop
  endfacet
  facet normal 0 1 -0
    outer loop
      vertex 65.3 13 -25.4
      vertex 61.3 13 -19.4
      vertex 65.3 13 -19.4
    endloop
  endfacet
  facet normal 0 1 0
    outer loop
      vertex 65.3 13 -25.4
      vertex 61.3 13 -25.4
      vertex 61.3 13 -19.4
    endloop
  endfacet
  facet normal 0 1 -0
    outer loop
      vertex 65.2616 13 -25.7902
      vertex 61.3 13 -25.4
      vertex 65.3 13 -25.4
    endloop
  endfacet
  facet normal 0 1 0
    outer loop
      vertex 65.2616 13 -25.7902
      vertex 61.3384 13 -25.7902
      vertex 61.3 13 -25.4
    endloop
  endfacet
  facet normal 0 1 -0
    outer loop
      vertex 65.1478 13 -26.1654
      vertex 61.3384 13 -25.7902
      vertex 65.2616 13 -25.7902
    endloop
  endfacet
  facet normal 0 1 0
    outer loop
      vertex 65.1478 13 -26.1654
      vertex 61.4522 13 -26.1654
      vertex 61.3384 13 -25.7902
    endloop
  endfacet
  facet normal 0 1 -0
    outer loop
      vertex 64.9629 13 -26.5111
      vertex 61.4522 13 -26.1654
      vertex 65.1478 13 -26.1654
    endloop
  endfacet
  facet normal 0 1 0
    outer loop
      vertex 64.9629 13 -26.5111
      vertex 61.6371 13 -26.5111
      vertex 61.4522 13 -26.1654
    endloop
  endfacet
  facet normal 0 1 -0
    outer loop
      vertex 64.7142 13 -26.8142
      vertex 61.6371 13 -26.5111
      vertex 64.9629 13 -26.5111
    endloop
  endfacet
  facet normal 0 1 0
    outer loop
      vertex 64.7142 13 -26.8142
      vertex 61.8858 13 -26.8142
      vertex 61.6371 13 -26.5111
    endloop
  endfacet
  facet normal 0 1 -0
    outer loop
      vertex 64.4111 13 -27.0629
      vertex 61.8858 13 -26.8142
      vertex 64.7142 13 -26.8142
    endloop
  endfacet
  facet normal 0 1 0
    outer loop
      vertex 64.4111 13 -27.0629
      vertex 62.1889 13 -27.0629
      vertex 61.8858 13 -26.8142
    endloop
  endfacet
  facet normal 0 1 -0
    outer loop
      vertex 64.0654 13 -27.2478
      vertex 62.1889 13 -27.0629
      vertex 64.4111 13 -27.0629
    endloop
  endfacet
  facet normal 0 1 0
    outer loop
      vertex 64.0654 13 -27.2478
      vertex 62.5346 13 -27.2478
      vertex 62.1889 13 -27.0629
    endloop
  endfacet
  facet normal 0 1 -0
    outer loop
      vertex 63.6902 13 -27.3616
      vertex 62.5346 13 -27.2478
      vertex 64.0654 13 -27.2478
    endloop
  endfacet
  facet normal 0 1 0
    outer loop
      vertex 63.6902 13 -27.3616
      vertex 62.9098 13 -27.3616
      vertex 62.5346 13 -27.2478
    endloop
  endfacet
  facet normal -0 1 0
    outer loop
      vertex 62.9098 13 -27.3616
      vertex 63.6902 13 -27.3616
      vertex 63.3 13 -27.4
    endloop
  endfacet
  facet normal -0.471634 0 0.881795
    outer loop
      vertex 62.1889 13 -17.7371
      vertex 62.5346 3.1 -17.5522
      vertex 62.5346 13 -17.5522
    endloop
  endfacet
  facet normal -0.471634 0 0.881795
    outer loop
      vertex 62.5346 3.1 -17.5522
      vertex 62.1889 13 -17.7371
      vertex 62.1889 3.1 -17.7371
    endloop
  endfacet
  facet normal -0.956951 0 0.290248
    outer loop
      vertex 61.3384 3.1 -19.0098
      vertex 61.4522 13 -18.6346
      vertex 61.3384 13 -19.0098
    endloop
  endfacet
  facet normal -0.956951 0 0.290248
    outer loop
      vertex 61.4522 13 -18.6346
      vertex 61.3384 3.1 -19.0098
      vertex 61.4522 3.1 -18.6346
    endloop
  endfacet
  facet normal -0.881795 0 0.471634
    outer loop
      vertex 61.4522 3.1 -18.6346
      vertex 61.6371 13 -18.2889
      vertex 61.4522 13 -18.6346
    endloop
  endfacet
  facet normal -0.881795 0 0.471634
    outer loop
      vertex 61.6371 13 -18.2889
      vertex 61.4522 3.1 -18.6346
      vertex 61.6371 3.1 -18.2889
    endloop
  endfacet
  facet normal -1 0 0
    outer loop
      vertex 59.5 1 -27.4
      vertex 59.5 3.1 -23.3
      vertex 59.5 3.1 -27.4
    endloop
  endfacet
  facet normal -1 -0 0
    outer loop
      vertex 59.5 3.1 -23.3
      vertex 59.5 1 -27.4
      vertex 59.5 1 -23.3
    endloop
  endfacet
  facet normal 0 1 -0
    outer loop
      vertex 59.5 1 -27.4
      vertex 51.5 1 -23.3
      vertex 59.5 1 -23.3
    endloop
  endfacet
  facet normal 0 1 0
    outer loop
      vertex 51.5 1 -23.3
      vertex 59.5 1 -27.4
      vertex 51.5 1 -27.4
    endloop
  endfacet
  facet normal 1 -0 0
    outer loop
      vertex 51.5 1 -23.3
      vertex 51.5 3.1 -27.4
      vertex 51.5 3.1 -23.3
    endloop
  endfacet
  facet normal 1 0 0
    outer loop
      vertex 51.5 3.1 -27.4
      vertex 51.5 1 -23.3
      vertex 51.5 1 -27.4
    endloop
  endfacet
  facet normal 0 0 -1
    outer loop
      vertex 51.5 1 -23.3
      vertex 59.5 3.1 -23.3
      vertex 59.5 1 -23.3
    endloop
  endfacet
  facet normal -0 0 -1
    outer loop
      vertex 59.5 3.1 -23.3
      vertex 51.5 1 -23.3
      vertex 51.5 3.1 -23.3
    endloop
  endfacet
endsolid OpenSCAD_Model
